<?xml version="1.0" encoding="UTF-8" standalone="no"?>
<svg
   xmlns:dc="http://purl.org/dc/elements/1.1/"
   xmlns:cc="http://creativecommons.org/ns#"
   xmlns:rdf="http://www.w3.org/1999/02/22-rdf-syntax-ns#"
   xmlns:svg="http://www.w3.org/2000/svg"
   xmlns="http://www.w3.org/2000/svg"
   xmlns:sodipodi="http://sodipodi.sourceforge.net/DTD/sodipodi-0.dtd"
   xmlns:inkscape="http://www.inkscape.org/namespaces/inkscape"
   inkscape:version="1.0 (6e3e5246a0, 2020-05-07)"
   sodipodi:docname="beach.svg"
   id="svg24"
   preserveAspectRatio="xMidYMid meet"
   viewBox="0 0 1280.000000 1280.000000"
   height="1280.000000pt"
   width="1280.000000pt"
   version="1.0">
  <defs
     id="defs28" />
  <sodipodi:namedview
     inkscape:current-layer="svg24"
     inkscape:window-maximized="1"
     inkscape:window-y="27"
     inkscape:window-x="67"
     inkscape:cy="846.52999"
     inkscape:cx="853.33333"
     inkscape:zoom="0.51445313"
     showgrid="false"
     id="namedview26"
     inkscape:window-height="1025"
     inkscape:window-width="1853"
     inkscape:pageshadow="2"
     inkscape:pageopacity="0"
     guidetolerance="10"
     gridtolerance="10"
     objecttolerance="10"
     borderopacity="1"
     bordercolor="#666666"
     pagecolor="#ffffff" />
  <metadata
     id="metadata2">
Created by potrace 1.15, written by Peter Selinger 2001-2017
<rdf:RDF>
  <cc:Work
     rdf:about="">
    <dc:format>image/svg+xml</dc:format>
    <dc:type
       rdf:resource="http://purl.org/dc/dcmitype/StillImage" />
  </cc:Work>
</rdf:RDF>
</metadata>
  <g
     id="g22"
     stroke="none"
     fill="#000000"
     transform="translate(0.000000,1280.000000) scale(0.100000,-0.100000)">
    <path
       id="path4"
       d="M4671 12787 c-13 -6 -34 -25 -45 -40 l-21 -28 -8 -1457 c-9 -1611 -13 -1503 54 -1538 19 -9 45 -14 63 -11 17 3 181 88 364 190 l332 184 382 7 c275 5 391 11 413 20 39 17 65 56 65 99 0 26 -158 304 -726 1278 -446 764 -739 1257 -760 1277 -36 34 -72 41 -113 19z" />
    <path
       id="path6"
       d="M9603 12133 c-32 -19 -2044 -2008 -2075 -2053 -27 -39 -23 -94 10 -130 24 -28 62 -40 397 -136 l370 -106 280 -269 c283 -272 313 -295 367 -282 30 8 64 39 77 71 10 27 38 129 361 1362 89 338 206 785 261 994 120 455 122 462 103 497 -33 64 -92 84 -151 52z" />
    <path
       id="path8"
       d="M713 9750 c-62 -38 -78 -88 -45 -147 18 -32 2007 -2044 2052 -2075 39 -27 94 -23 130 10 27 24 41 63 137 398 l106 372 269 278 c271 282 294 312 281 366 -8 30 -39 64 -71 77 -15 6 -189 53 -387 105 -1934 508 -2375 623 -2411 629 -20 4 -41 0 -61 -13z" />
    <path
       id="path10"
       d="M6074 9589 c-1027 -99 -1976 -729 -2483 -1645 -183 -330 -311 -723 -366 -1124 -22 -160 -31 -532 -16 -699 63 -715 360 -1378 853 -1907 534 -574 1220 -915 2008 -999 157 -17 488 -19 643 -5 1039 99 1986 723 2496 1646 183 330 311 723 366 1124 22 160 31 532 16 699 -64 721 -364 1386 -865 1921 -528 562 -1215 901 -1996 985 -144 16 -515 18 -656 4z" />
    <path
       id="path12"
       d="M9764 8192 c-37 -23 -59 -71 -51 -111 3 -15 89 -177 190 -359 l184 -332 7 -382 c5 -275 11 -391 20 -413 17 -39 56 -65 99 -65 26 0 304 158 1278 726 796 464 1256 738 1278 761 29 31 33 40 28 75 -6 47 -37 84 -81 97 -18 5 -618 12 -1476 15 -1412 7 -1446 6 -1476 -12z" />
    <path
       id="path14"
       d="M1309 5544 c-796 -464 -1256 -738 -1278 -761 -29 -31 -33 -40 -28 -75 6 -47 37 -84 81 -97 18 -5 618 -12 1473 -16 1303 -6 1444 -5 1472 10 39 20 65 68 58 109 -3 17 -88 181 -190 364 l-184 332 -7 382 c-5 275 -11 391 -20 413 -17 39 -56 65 -99 65 -26 0 -304 -158 -1278 -726z" />
    <path
       id="path16"
       d="M9950 5263 c-27 -25 -40 -63 -136 -399 l-106 -370 -269 -280 c-272 -282 -295 -312 -282 -366 8 -30 39 -64 71 -77 27 -10 129 -38 1362 -361 338 -89 785 -206 994 -261 455 -120 462 -122 497 -103 64 33 84 92 52 151 -19 32 -2008 2044 -2053 2075 -39 27 -94 23 -130 -9z" />
    <path
       id="path18"
       d="M3845 3643 c-27 -7 -61 -39 -74 -71 -10 -27 -38 -129 -361 -1362 -89 -338 -206 -785 -261 -994 -120 -455 -122 -462 -103 -497 33 -64 92 -84 151 -51 32 18 2044 2007 2075 2052 27 39 23 94 -9 130 -25 27 -63 40 -399 136 l-371 106 -269 260 c-148 143 -278 266 -289 273 -25 16 -64 24 -90 18z" />
    <path
       id="path20"
       d="M8040 3072 c-19 -10 -174 -95 -345 -189 l-310 -171 -380 -7 c-273 -5 -388 -10 -410 -19 -39 -17 -65 -56 -65 -99 0 -26 158 -304 726 -1278 465 -797 738 -1256 761 -1278 31 -29 40 -33 75 -28 47 6 84 37 97 81 5 18 12 618 16 1473 7 1591 11 1484 -55 1518 -38 20 -68 19 -110 -3z" />
  </g>
  <path
     transform="scale(0.75000002)"
     id="path30"
     d="m 848.05999,427.00076 c -147.74548,-1.28482 -290.32962,85.38611 -363.76994,212.47153 -39.04785,66.95019 -59.59219,144.63923 -57.09071,222.22472 0.79136,149.26059 89.20596,293.04289 219.39899,364.95449 68.61801,37.7231 147.82007,57.3166 226.20379,52.1555 93.81566,-1.3947 184.80988,-40.6902 256.23358,-100.3939 72.8755,-60.8642 123.881,-146.8361 142.2285,-240.01143 9.5689,-43.29429 9.7599,-88.3215 6.2032,-132.33696 C 1262.4114,668.81905 1176.6969,541.54949 1054.3535,477.20882 991.30783,443.04051 919.73353,425.81464 848.05999,427.00076 Z"
     style="fill:#ffff00;stroke-width:1.94381" />
  <path
     transform="scale(0.75000002)"
     id="path32"
     d="m 99.050873,405.99089 c -10.066771,1.3719 -16.999078,16.42098 -6.1959,22.31587 86.303377,90.08673 173.328637,179.55657 262.437357,266.86789 5.91934,7.33083 18.65978,14.04207 25.72133,4.54061 13.54223,-32.7972 20.37094,-68.39107 32.24325,-101.42341 23.59533,-26.11191 49.91192,-50.2001 71.13566,-78.24629 4.9318,-11.81564 -9.93409,-18.795 -19.34437,-19.70041 -117.19651,-31.54503 -234.47337,-62.92875 -352.16665,-92.53953 -4.56242,-0.83487 -9.16543,-1.93344 -13.830677,-1.81473 z"
     style="fill:#ffff00;stroke-width:1.94381" />
  <path
     transform="scale(0.75000002)"
     id="path34"
     d="m 628.15869,1.302202 c -9.75399,-1.29113636 -13.10878,8.4004703 -12.82403,16.250447 -3.61127,80.262554 -1.36849,160.697491 -2.15228,241.027451 0.60456,48.61586 -0.98802,97.54791 1.68854,145.9795 4.62466,11.62296 18.71555,3.64348 26.26044,0.15187 27.62358,-13.10506 53.68328,-30.26902 81.23701,-42.77624 34.83176,-2.01013 70.16971,0.47876 104.69693,-4.79019 10.58116,-2.80257 8.81535,-15.94569 3.50499,-22.85136 C 770.77148,227.7231 708.547,122.48477 646.12155,17.426356 641.73728,11.168702 637.34589,0.72231792 628.15869,1.302202 Z"
     style="fill:#ffff00;stroke-width:1.94381" />
  <path
     transform="scale(0.75000002)"
     id="path36"
     d="m 1287.8094,86.57555 c -17.5644,9.530893 -30.3276,26.51726 -45.4089,39.52269 -77.1956,76.0953 -154.9903,151.6431 -230.282,229.6269 -6.6659,6.05214 -14.81686,16.38987 -6.2681,24.5558 32.3347,14.12673 67.4825,21.12811 101.139,31.64009 26.4472,23.93143 50.8275,50.56348 79.1647,72.20578 11.5182,5.77744 18.8992,-9.38041 19.8596,-18.60669 32.9448,-120.75073 65.3912,-241.69456 95.224,-363.25361 -0.021,-6.674959 -6.8652,-14.673449 -13.4283,-15.69096 z"
     style="fill:#ffff00;stroke-width:1.94381" />
  <path
     transform="scale(0.75000002)"
     id="path38"
     d="m 1352.1792,612.77145 c -17.0606,1.35105 -35.4088,-2.26621 -51.7654,3.19286 -10.6474,8.70635 0.5694,21.07648 4.2015,30.24308 12.4216,25.83052 28.4983,50.31459 40.1546,76.16097 2.0219,34.83881 -0.4413,70.18231 4.8125,104.71973 2.8918,10.86481 16.3815,8.59856 23.3295,3.23461 106.9628,-60.37464 213.0646,-122.34577 318.3566,-185.58947 8.2345,-4.2617 19.381,-14.07631 11.5637,-23.82586 -8.5655,-9.88151 -24.4133,-4.60907 -35.8047,-6.48218 -104.9419,-1.35099 -209.8987,-1.60567 -314.8483,-1.65374 z"
     style="fill:#ffff00;stroke-width:1.94381" />
  <path
     transform="scale(0.75000002)"
     id="path40"
     d="m 1335.5201,1002.0425 c -13.8705,0.4362 -13.6462,17.7044 -18.0731,27.1456 -8.8024,26.2045 -14.6341,53.8464 -24.1047,79.4801 -23.4074,25.5279 -48.8603,49.4361 -70.3507,76.5976 -6.316,9.7771 4.734,19.2141 14.2445,19.3735 121.8867,33.7985 244.1888,66.313 366.9932,96.5566 8.4672,-0.3263 21.4382,-11.0933 12.7107,-19.3166 -49.0788,-55.3442 -102.9961,-106.2248 -154.5463,-159.2513 -40.0185,-39.2383 -77.9767,-80.7463 -120.0778,-117.7723 -1.9938,-1.3816 -4.214,-3.1021 -6.7958,-2.8132 z"
     style="fill:#ffff00;stroke-width:1.94381" />
  <path
     transform="scale(0.75000002)"
     id="path42"
     d="m 1081.8944,1295.8922 c -26.526,7.2883 -49.1078,24.6751 -73.5937,36.7466 -12.31286,7.4189 -24.54252,15.1439 -39.54497,12.6602 -29.97756,1.914 -60.62975,-1.1072 -90.206,4.5491 -10.41211,3.9436 -6.65773,16.646 -1.70559,23.5633 53.34762,96.4608 110.25223,190.9337 165.95046,286.052 9.7014,14.5604 16.8187,31.4033 28.6291,44.3179 9.912,5.6295 25.2204,-4.5214 21.0009,-16.1994 0.2716,-122.133 3.4714,-244.2996 0.8366,-366.4164 -1.6858,-8.1979 2.2672,-26.4311 -11.3668,-25.2733 z"
     style="fill:#ffff00;stroke-width:1.94381" />
  <path
     transform="scale(0.75000002)"
     id="path44"
     d="m 515.00759,1221.773 c -13.40562,0.1988 -12.10294,17.8182 -16.05287,26.7084 -32.20677,118.5545 -64.57443,237.1481 -93.59405,356.5148 0.70742,8.2086 11.8715,20.5551 19.60137,11.7464 57.29761,-51.0587 110.17055,-106.8868 165.15762,-160.4024 37.24103,-38.0001 76.68667,-74.0073 111.73303,-114.0699 7.28028,-7.9142 -1.10519,-19.6763 -10.58087,-20.2202 -30.55712,-11.0208 -62.95454,-17.806 -93.19648,-28.686 -25.65383,-23.0795 -48.82283,-49.2277 -76.39728,-70.0232 -2.02347,-1.1454 -4.33857,-1.7524 -6.67047,-1.5679 z"
     style="fill:#ffff00;stroke-width:1.94381" />
  <path
     transform="scale(0.75000002)"
     id="path46"
     d="m 345.94153,871.24146 c -23.27608,8.46 -43.64273,23.92454 -65.64927,35.26572 -92.33421,53.65268 -185.311589,106.38892 -275.861736,162.99172 -8.7541504,9.226 2.1875997,27.6182 14.654161,22.9344 125.675825,0.544 251.398835,3.5178 377.054265,0.7444 11.06892,1.7853 19.33801,-12.293 11.8451,-20.9074 -13.9161,-30.015 -32.35175,-58.2408 -46.08729,-87.97199 -2.02205,-34.84236 0.44235,-70.19121 -4.81628,-104.73111 -1.14032,-5.04103 -6.29937,-7.99767 -11.13895,-8.32574 z"
     style="fill:#ffff00;stroke-width:1.94381" />
</svg>
