<?xml version="1.0" encoding="UTF-8" standalone="no"?>
<svg
   xmlns:dc="http://purl.org/dc/elements/1.1/"
   xmlns:cc="http://creativecommons.org/ns#"
   xmlns:rdf="http://www.w3.org/1999/02/22-rdf-syntax-ns#"
   xmlns:svg="http://www.w3.org/2000/svg"
   xmlns="http://www.w3.org/2000/svg"
   xmlns:sodipodi="http://sodipodi.sourceforge.net/DTD/sodipodi-0.dtd"
   xmlns:inkscape="http://www.inkscape.org/namespaces/inkscape"
   inkscape:version="1.0 (6e3e5246a0, 2020-05-07)"
   sodipodi:docname="forest.svg"
   version="1.1"
   width="512"
   viewBox="0 0 512 512"
   height="512"
   enable-background="new 0 0 512 512"
   id="Capa_1">
  <metadata
     id="metadata13">
    <rdf:RDF>
      <cc:Work
         rdf:about="">
        <dc:format>image/svg+xml</dc:format>
        <dc:type
           rdf:resource="http://purl.org/dc/dcmitype/StillImage" />
      </cc:Work>
    </rdf:RDF>
  </metadata>
  <defs
     id="defs11" />
  <sodipodi:namedview
     inkscape:current-layer="Capa_1"
     inkscape:window-maximized="1"
     inkscape:window-y="27"
     inkscape:window-x="67"
     inkscape:cy="253.959"
     inkscape:cx="256"
     inkscape:zoom="1.7148438"
     showgrid="false"
     id="namedview9"
     inkscape:window-height="1025"
     inkscape:window-width="1853"
     inkscape:pageshadow="2"
     inkscape:pageopacity="0"
     guidetolerance="10"
     gridtolerance="10"
     objecttolerance="10"
     borderopacity="1"
     bordercolor="#666666"
     pagecolor="#ffffff" />
  <g
     id="g6">
    <path
       id="path2"
       d="m88 416c12.169 0 24.019-2.644 35-7.726v83.726h-80c-5.522 0-10 4.477-10 10s4.478 10 10 10h426c5.522 0 10-4.477 10-10s-4.478-10-10-10h-80v-83.726c10.981 5.082 22.831 7.726 35 7.726 47.701 0 88-38.925 88-85 0-36.747-26.697-70.415-63.29-81.338-2.12-23.123-15.727-43.791-35.901-54.957 4.106-11.051 6.191-22.682 6.191-34.705 0-8.248-1.011-16.444-3.005-24.363-1.35-5.356-6.787-8.605-12.139-7.256-5.355 1.348-8.604 6.783-7.256 12.139 1.592 6.324 2.4 12.877 2.4 19.48 0 9.581-1.651 18.843-4.902 27.64-4.936-1.087-9.985-1.64-15.098-1.64-36.464 0-66.505 28.022-69.716 63.664-17.195 5.134-32.203 15.292-43.284 28.431v-81.781l57.3-27.286c4.986-2.375 7.104-8.342 4.729-13.328-2.375-4.987-8.344-7.104-13.328-4.729l-48.701 23.191v-74.162c0-5.523-4.478-10-10-10s-10 4.477-10 10v44.162l-48.7-23.191c-4.988-2.373-10.954-.258-13.328 4.729-2.375 4.986-.258 10.954 4.729 13.328l57.3 27.286v111.781c-11.081-13.139-26.089-23.297-43.284-28.431-3.212-35.642-33.253-63.664-69.717-63.664-5.112 0-10.162.553-15.098 1.64-3.251-8.796-4.902-18.059-4.902-27.64 0-39.602 28.549-72.715 67.883-78.735 4.21-.644 7.55-3.884 8.322-8.073 5.495-29.827 34.835-53.192 66.795-53.192s61.3 23.365 66.795 53.192c.772 4.188 4.112 7.429 8.322 8.073 4.091.626 8.161 1.576 12.101 2.822 5.266 1.668 10.885-1.25 12.552-6.516 1.666-5.265-1.251-10.885-6.517-12.551-2.743-.868-5.536-1.621-8.357-2.252-10.069-36.229-45.347-62.768-84.896-62.768s-74.827 26.54-84.896 62.768c-45.224 10.143-78.104 50.134-78.104 97.232 0 12.023 2.085 23.654 6.19 34.704-20.172 11.166-33.781 31.834-35.9 54.958-36.593 10.923-63.29 44.591-63.29 81.338 0 46.075 40.299 85 88 85zm55-7.726c10.981 5.082 22.831 7.726 35 7.726 27.047 0 51.709-12.517 68-31.753v107.753h-103zm123 83.726v-107.753c16.291 19.236 40.953 31.753 68 31.753 12.169 0 24.019-2.644 35-7.726v83.726zm55.12-224.696c4.838-.972 8.761-5.45 7.882-11.751.242-27.365 22.578-49.553 49.998-49.553 27.619 0 49.754 22.371 49.998 49.553-.872 6.254 2.995 10.77 7.882 11.751 31.424 6.312 55.12 33.696 55.12 63.696 0 35.234-31.141 65-68 65-12.402 0-24.406-3.633-35-10.536v-33.284l54.472-27.236c4.94-2.47 6.942-8.477 4.473-13.417-2.471-4.94-8.481-6.943-13.416-4.472l-45.529 22.765c0-8.421 0-60.992 0-73.82 0-5.523-4.478-10-10-10s-10 4.477-10 10v35.857l-12.929-12.929c-3.906-3.904-10.236-3.904-14.143 0-3.905 3.905-3.905 10.237 0 14.143l27.072 27.072v65.321c-10.594 6.903-22.598 10.536-35 10.536-36.859 0-68-29.766-68-65 0-30 23.696-57.384 55.12-63.696zm-246 0c4.833-.971 8.762-5.44 7.882-11.751.244-27.183 22.356-49.553 49.998-49.553 27.42 0 49.756 22.188 49.998 49.553-.874 6.263 3.007 10.772 7.882 11.751 31.424 6.312 55.12 33.696 55.12 63.696 0 35.234-31.141 65-68 65-12.402 0-24.406-3.633-35-10.536v-5.321l27.071-27.071c3.905-3.905 3.905-10.237 0-14.143-3.906-3.904-10.236-3.904-14.143 0l-12.928 12.928v-65.857c0-5.523-4.478-10-10-10s-10 4.477-10 10v43.82l-45.528-22.764c-4.94-2.47-10.946-.468-13.416 4.472s-.468 10.947 4.473 13.417l54.471 27.235v33.283c-10.594 6.904-22.598 10.537-35 10.537-36.859 0-68-29.766-68-65 0-30 23.696-57.384 55.12-63.696z" />
    <circle
       id="circle4"
       r="10"
       cy="99"
       cx="384" />
  </g>
  <path
     id="path15"
     d="m 41.307598,511.45211 c -2.804015,-0.54921 -4.943876,-1.99758 -6.345131,-4.29473 -3.264413,-5.35151 -1.401657,-11.2639 4.375595,-13.88815 2.21338,-1.0054 4.830248,-1.07127 43.030959,-1.0833 l 40.674259,-0.0128 V 450.1868 c 0,-23.09248 -0.12438,-41.98633 -0.27639,-41.98633 -0.15202,0 -2.29493,0.80184 -4.76202,1.78188 -28.751805,11.42144 -63.0017,5.1446 -87.913833,-16.1116 C 15.474725,381.39942 4.6682073,362.68396 1.4950374,344.34624 0.33132412,337.62116 0.31495114,324.75221 1.4617415,318.17602 5.7898855,293.3566 21.951231,271.04094 45.186755,257.80032 c 4.69729,-2.67673 16.197765,-7.63176 17.713069,-7.63176 0.325242,0 0.761609,-1.24646 0.969692,-2.76993 2.757505,-20.18887 14.27309,-38.63893 30.867862,-49.45595 l 4.887331,-3.18572 -1.144489,-3.25628 c -9.499128,-27.02671 -5.522118,-59.74345 10.27795,-84.55117 13.32746,-20.925486 35.4391,-36.858401 60.16365,-43.35192 2.34871,-0.616849 2.47946,-0.777453 3.71656,-4.564935 3.80435,-11.647351 10.71698,-22.594688 20.35573,-32.236792 C 211.6576,8.1258774 235.91453,-1.0190084 262.26879,0.67923675 283.33688,2.036845 303.3956,11.214958 318.72364,26.510845 c 9.7034,9.683038 16.58343,20.420528 20.37026,31.791341 1.52839,4.589357 1.58565,4.665265 3.98465,5.282732 9.68958,2.493959 12.63899,5.108769 12.63899,11.205132 0,4.692947 -4.3646,9.182615 -8.92682,9.182615 -2.46881,0 -13.54866,-2.434198 -17.76203,-3.90225 -3.36812,-1.173542 -5.05474,-3.608213 -6.48069,-9.354969 -3.99672,-16.107404 -13.5084,-29.43019 -27.83371,-38.986004 -23.86341,-15.918281 -53.52589,-15.912252 -77.46419,0.01574 -14.66969,9.760875 -23.95264,23.159382 -28.30658,40.856181 -0.79642,3.237105 -2.55558,5.904223 -4.58721,6.95482 -0.94492,0.488639 -4.21739,1.429938 -7.27215,2.091777 -21.91645,4.74838 -38.95244,16.086707 -50.86004,33.84998 -12.85835,19.18157 -16.61485,41.90551 -10.75983,65.08882 0.93833,3.71534 1.82421,6.87334 1.96863,7.01776 0.14442,0.14442 2.31868,-0.0513 4.83169,-0.43501 25.44134,-3.8843 51.11236,6.6913 66.62814,27.44858 6.29398,8.4202 11.40371,20.53995 12.9234,30.65298 l 0.70993,4.72439 3.89277,1.25375 c 10.97214,3.53381 23.3909,11.29906 33.0774,20.68276 l 6.59031,6.38429 -0.008,-56.20597 -0.008,-56.20596 -28.94094,-13.70387 c -17.75782,-8.40854 -29.6749,-14.38539 -30.84039,-15.46756 -5.01971,-4.6609 -3.23575,-13.07429 3.32924,-15.70107 1.6011,-0.64064 3.14725,-0.84508 4.52153,-0.59786 1.14863,0.20662 13.24104,5.69249 26.87202,12.19082 l 24.7836,11.81513 0.29157,-23.38169 c 0.32092,-25.735439 0.2625,-25.326597 4.07823,-28.537321 5.06375,-4.260866 13.25926,-1.455188 15.09822,5.168774 0.4387,1.580203 0.64496,14.187427 0.64718,39.557217 0.002,29.55615 0.15362,37.17756 0.73218,36.94584 0.40091,-0.16058 11.8092,-5.56815 25.35175,-12.01683 26.02948,-12.3947 27.25148,-12.82345 31.00978,-10.87996 2.58843,1.33853 5.14709,4.65331 5.58288,7.23271 0.45445,2.68988 -0.99352,6.60307 -3.16072,8.54196 -0.71699,0.64145 -14.33504,7.37103 -30.26233,14.95462 l -28.95872,13.78833 -0.14972,41.25516 -0.14972,41.25516 6.59424,-6.38811 c 9.67985,-9.37725 22.10803,-17.15239 33.05078,-20.67673 l 3.8622,-1.2439 0.96654,-5.60895 c 4.95079,-28.72993 27.50699,-51.57926 56.23089,-56.96164 6.01859,-1.12778 16.7073,-1.25491 23.12517,-0.27505 2.51301,0.38368 4.68727,0.57943 4.83169,0.43501 0.80582,-0.80582 3.78227,-14.7759 4.34315,-20.38467 0.75622,-7.56236 0.40605,-13.7452 -1.30816,-23.09714 -1.45563,-7.94124 -1.08762,-9.9557 2.39319,-13.10041 3.02842,-2.73599 6.43873,-3.30875 10.08843,-1.69431 3.24528,1.43554 4.75168,3.51811 5.98358,8.27217 4.14906,16.01175 3.1224,37.76867 -2.54282,53.88723 l -1.13982,3.24299 4.96884,3.30614 c 16.84873,11.21076 28.01144,29.11423 30.77701,49.36211 0.20809,1.52347 0.64445,2.76993 0.9697,2.76993 0.32524,0 3.26442,1.04512 6.5315,2.32248 24.50652,9.58158 44.44671,30.57108 52.21833,54.96623 2.59801,8.15516 3.56712,14.59747 3.56499,23.69884 -0.002,9.37286 -1.05601,16.14838 -3.78845,24.3581 -15.53614,46.67892 -68.87602,72.24687 -113.63142,54.46813 -2.46709,-0.98004 -4.61,-1.78188 -4.76202,-1.78188 -0.15201,0 -0.27639,18.89385 -0.27639,41.98633 v 41.98633 l 40.67426,0.0128 c 38.20071,0.012 40.81758,0.0779 43.03096,1.08331 4.64986,2.11214 6.93183,6.65335 5.59143,11.12719 -0.83377,2.78291 -2.58137,5.01359 -4.93812,6.30315 -1.73758,0.95077 -14.16482,1.01352 -215.85739,1.08993 -117.70752,0.0446 -214.975135,-0.10723 -216.150262,-0.3374 z M 246.08656,438.23235 c 0,-29.66743 -0.10408,-53.94078 -0.23131,-53.94078 -0.12722,0 -2.16093,1.99706 -4.51936,4.43792 -15.2144,15.7461 -37.04002,25.57714 -59.56403,26.82974 -10.61424,0.59027 -24.02228,-1.64772 -33.8394,-5.6483 -2.30317,-0.93856 -4.3844,-1.70738 -4.62494,-1.70847 -0.24055,-10e-4 -0.43736,18.89185 -0.43736,41.98433 v 41.98633 h 51.6082 51.6082 z m 123.04328,11.95444 c 0,-23.09248 -0.19681,-41.98544 -0.43736,-41.98433 -0.24054,0.001 -2.32177,0.76991 -4.62494,1.70847 -9.81712,4.00058 -23.22516,6.23857 -33.8394,5.6483 -22.83226,-1.26975 -44.3904,-11.03724 -59.85008,-27.1167 -2.19503,-2.28303 -4.09753,-4.15096 -4.22779,-4.15096 -0.13026,0 -0.23683,24.27335 -0.23683,53.94078 v 53.94077 h 51.6082 51.6082 z M 98.551253,395.31256 c 5.889387,-0.89655 12.601737,-3.12769 18.660597,-6.20266 l 5.53986,-2.81157 0.15424,-17.18635 0.15424,-17.18635 -27.431343,-13.70314 c -15.087241,-7.53672 -28.078168,-14.30196 -28.868735,-15.03386 -3.57337,-3.30823 -4.224776,-9.05672 -1.465411,-12.93189 1.486468,-2.08754 5.231147,-4.07341 7.71917,-4.09359 0.906164,-0.007 11.780082,5.08026 25.523258,11.94163 13.169461,6.57495 24.070851,11.95445 24.225311,11.95445 0.15446,0 0.2823,-9.90615 0.28409,-22.01367 0.002,-13.3434 0.24048,-22.86782 0.60556,-24.18235 1.21716,-4.38258 5.05054,-7.45319 9.30463,-7.45319 4.07889,0 8.21759,3.11795 9.34178,7.03777 0.34371,1.19844 0.57166,15.36201 0.57166,35.51945 v 33.52618 l 7.43508,-7.39766 c 7.58078,-7.54263 9.17562,-8.62196 12.74006,-8.62196 7.00201,0 11.70103,7.59661 8.50337,13.74683 -0.65474,1.25929 -7.37525,8.45427 -14.93448,15.98884 l -13.74403,13.69922 v 2.94294 c 0,2.92713 0.0164,2.95287 3.0615,4.78829 17.40702,10.49216 41.92163,11.27381 61.42249,1.95846 20.2527,-9.67451 33.98772,-26.94869 37.89465,-47.65912 1.43642,-7.61436 0.91218,-19.6505 -1.16513,-26.75019 -3.2244,-11.02018 -8.952,-20.60732 -17.24504,-28.86561 -8.63565,-8.59945 -19.06376,-14.7098 -30.31927,-17.76559 -11.03424,-2.9957 -13.4123,-5.44968 -13.4123,-13.84046 0,-17.94163 -11.01773,-35.34862 -27.69932,-43.76232 -11.27979,-5.6892 -26.44805,-6.67596 -38.676,-2.51604 -19.867311,6.75881 -33.925362,26.07479 -33.925362,46.61397 0,8.14064 -2.354016,10.50651 -13.412301,13.47982 -3.046924,0.81925 -8.426423,2.92292 -11.954441,4.67483 -27.255939,13.53447 -42.096881,41.95367 -36.430148,69.7608 2.712263,13.30931 8.602783,23.72801 19.180438,33.92489 15.641527,15.07848 36.682996,21.71929 58.361327,18.4192 z m 243.048097,0.37666 c 7.34295,-0.61034 17.92334,-4.08878 24.46899,-8.04449 l 3.0615,-1.85015 v -32.97484 -32.97483 l -13.74403,-13.69922 c -7.55923,-7.53457 -14.2508,-14.67282 -14.87016,-15.86278 -3.78555,-7.27296 2.54493,-15.17376 10.90177,-13.60601 1.77417,0.33284 3.62437,1.82926 9.94603,8.04422 l 7.76639,7.63531 0.003,-18.324 c 0.002,-11.50196 0.24152,-19.18223 0.64325,-20.62921 1.23452,-4.44661 6.68644,-7.94769 10.84873,-6.96677 2.6676,0.62866 5.27223,2.48806 6.6986,4.78201 l 1.34123,2.15739 0.16571,38.34169 c 0.0911,21.08793 0.28312,38.34169 0.42662,38.34169 0.14351,0 11.0841,-5.40355 24.31243,-12.00789 22.4796,-11.22309 24.20486,-11.98366 26.39798,-11.63734 1.29055,0.20381 3.2895,0.99168 4.44211,1.75084 5.15715,3.39672 5.36011,11.45015 0.39,15.47469 -0.66726,0.54032 -13.50878,7.12573 -28.53669,14.63425 l -27.3235,13.65185 0.15424,17.18635 0.15424,17.18635 5.53986,2.81157 c 9.76957,4.95822 18.27878,6.95933 29.53537,6.9458 24.62207,-0.0296 47.05263,-12.91762 59.54862,-34.21515 8.37517,-14.27424 10.5459,-31.92328 5.88127,-47.81777 -6.21694,-21.18395 -25.27622,-39.56996 -47.14749,-45.48199 -11.16334,-3.01757 -13.38567,-5.22192 -13.40271,-13.2943 -0.0263,-12.44716 -5.31836,-25.14415 -14.2966,-34.30101 -10.62048,-10.83175 -23.38054,-15.72388 -38.95642,-14.93562 -18.26477,0.92433 -34.08632,11.46185 -42.0753,28.02311 -3.31995,6.88227 -4.43835,11.34576 -4.92603,19.65963 -0.31797,5.42046 -0.64016,7.12822 -1.65444,8.76936 -1.45387,2.35242 -4.67229,4.33407 -8.02335,4.94015 -1.28292,0.23203 -4.5631,1.20319 -7.28929,2.15814 -21.63325,7.5778 -37.84325,24.3629 -44.06545,45.62882 -2.07731,7.09969 -2.60155,19.13583 -1.16513,26.75019 5.42566,28.76113 31.12172,51.49557 60.97545,53.94765 3.04693,0.25027 6.58952,0.37676 7.87244,0.2811 1.28291,-0.0957 3.98303,-0.31112 6.00026,-0.47879 z"
     style="fill:#a0a0a0;stroke:none;stroke-width:0.583144" />
  <path
     id="path17"
     d="m 379.03735,107.15262 c -2.89525,-1.97049 -4.20781,-4.10866 -4.52062,-7.364107 -0.3806,-3.96101 1.67652,-7.59815 5.28556,-9.345259 3.18592,-1.542274 5.2095,-1.542274 8.39542,0 9.0751,4.393182 5.90069,18.021436 -4.19771,18.021436 -2.18724,0 -3.57323,-0.36644 -4.96265,-1.31207 z"
     style="fill:#f4d7d7;stroke:none;stroke-width:0.583144" />
  <path
     id="path19"
     d="m 39.304496,510.31506 c -3.216866,-1.4735 -5.050847,-4.17697 -5.34801,-7.88349 -0.30285,-3.77745 1.372739,-6.506 5.114972,-8.32928 2.596587,-1.2651 3.037523,-1.28229 43.297563,-1.68814 l 40.674259,-0.41004 v -41.57584 c 0,-22.86671 -0.21901,-41.71119 -0.48667,-41.87662 -0.26768,-0.16543 -3.48226,0.72269 -7.14351,1.9736 -9.21393,3.14805 -14.65673,4.16653 -24.151141,4.51925 C 75.30005,415.63749 61.521669,412.4266 46.726117,404.66591 25.390921,393.47499 9.7775392,374.01745 3.1331122,350.33988 1.8057832,345.60991 1.5782109,343.48942 1.3238142,333.481 0.99412777,320.51056 1.506316,316.72877 5.0253537,306.15034 9.1269318,293.82076 15.72344,283.43721 25.9539,273.20675 c 9.665888,-9.66589 18.943624,-15.74337 31.682558,-20.75401 3.039542,-1.19555 5.715687,-2.5266 5.946985,-2.95788 0.231298,-0.43129 0.730131,-2.62106 1.108509,-4.86616 3.07386,-18.23854 14.791412,-36.14989 30.345535,-46.38591 2.57403,-1.69394 4.680053,-3.38477 4.680053,-3.75739 0,-0.37261 -0.663408,-2.62594 -1.474234,-5.00741 -2.673019,-7.85083 -3.828465,-14.7909 -4.182462,-25.12149 -0.371463,-10.84025 0.263855,-17.82891 2.468965,-27.15917 7.966661,-33.70855 33.491501,-60.874295 67.333521,-71.662164 3.68838,-1.175751 7.00786,-2.428577 7.37662,-2.784055 0.36875,-0.355479 1.36911,-2.614437 2.223,-5.019904 6.56549,-18.495382 22.12452,-36.146093 40.99405,-46.505093 24.33224,-13.3579162 54.86847,-13.8435805 80.32204,-1.277484 9.10209,4.493579 16.64935,9.930189 23.89423,17.212007 9.2064,9.253343 16.03954,19.817469 19.86017,30.704098 0.86997,2.478909 1.8777,4.739639 2.23942,5.023846 0.36171,0.284212 2.49457,1.099179 4.73967,1.811045 7.49142,2.375342 9.62376,4.54056 9.61969,9.767998 -0.004,5.161328 -3.69165,8.920411 -8.74498,8.914433 -3.32315,-0.0041 -14.30949,-2.476692 -17.73394,-3.991489 -3.11608,-1.378393 -4.05341,-3.01393 -6.73159,-11.745921 C 315.5235,46.783707 299.9769,30.903566 278.61132,23.405048 271.21564,20.809441 264.55831,19.726337 256,19.726337 c -15.905,0 -29.51816,4.635383 -42.67637,14.531614 -11.71156,8.808229 -19.08008,19.673223 -23.80534,35.101365 -2.86065,9.340099 -3.04154,9.509018 -12.84383,11.993769 -23.44411,5.942781 -38.77484,16.251568 -50.81662,34.170465 -12.66299,18.84327 -16.38401,42.05876 -10.51152,65.58156 l 1.59166,6.37553 2.90686,-0.12418 c 19.20746,-0.82056 25.19114,-0.28497 35.27133,3.15703 12.65316,4.32058 25.37177,13.51332 33.24875,24.0315 6.04717,8.07481 11.28765,20.26169 13.02991,30.3014 0.46382,2.6728 1.06548,5.06266 1.337,5.3108 0.27153,0.24814 1.93696,0.91687 3.70097,1.48607 11.28552,3.64157 22.93845,11.1129 33.97101,21.78067 l 5.68855,5.50046 -0.14869,-56.75326 -0.14868,-56.75325 -20.99317,-9.99763 c -19.89757,-9.47586 -34.90293,-16.85447 -37.6376,-18.5076 -1.63624,-0.98912 -3.47401,-4.62427 -3.47401,-6.87165 0,-5.9114 6.61219,-10.79583 11.79902,-8.71593 3.59875,1.44308 16.50754,7.40812 33.20902,15.34559 9.19906,4.37191 16.87469,7.94893 17.05694,7.94893 0.18225,0 0.34922,-4.39544 0.37104,-9.76765 0.0218,-5.37221 0.23622,-16.13553 0.47645,-23.91849 0.39827,-12.902927 0.54092,-14.291397 1.6176,-15.744871 4.04072,-5.4548 11.13275,-5.637954 15.13793,-0.390939 l 1.68051,2.201576 0.51882,38.680344 c 0.28535,21.27419 0.72632,38.68035 0.97994,38.68035 0.25362,0 10.25432,-4.62529 22.22378,-10.27842 23.54126,-11.11844 28.36245,-13.15394 31.17026,-13.16 2.32462,-0.005 4.60187,1.48907 6.71436,4.40527 2.04447,2.82233 2.15169,5.58767 0.34225,8.82814 -1.20229,2.15315 -2.33417,2.84983 -14.71478,9.05713 -7.37677,3.69851 -20.82551,10.24188 -29.88611,14.54082 l -16.4738,7.81626 v 41.67483 41.67482 l 5.68565,-5.49765 c 11.11407,-10.74656 22.94898,-18.306 34.22363,-21.86002 3.83129,-1.2077 4.0361,-1.51586 4.99518,-7.51553 2.16575,-13.54822 10.18855,-28.21943 20.98597,-38.37687 14.92212,-14.03766 33.90039,-20.43798 54.8523,-18.49863 4.13038,0.38232 7.75967,0.54069 8.06508,0.35193 0.3054,-0.18875 1.09173,-2.63701 1.7474,-5.44056 3.08208,-13.17877 3.7119,-23.18113 2.10182,-33.37984 -1.71158,-10.84162 -1.73613,-12.87478 -0.18296,-15.14785 3.15283,-4.61417 7.91483,-5.9038 12.39721,-3.35736 3.21449,1.82616 4.75347,5.26934 6.23085,13.94042 1.04123,6.11117 1.18297,8.80629 0.94545,17.9771 -0.30097,11.62107 -1.50128,19.41231 -4.22379,27.4168 -0.80012,2.35247 -1.45477,4.57756 -1.45477,4.94463 0,0.36708 2.29613,2.2157 5.10251,4.10804 15.19431,10.24555 26.16197,26.7771 29.581,44.58747 1.31587,6.85461 1.52999,7.24255 4.46971,8.0979 4.53843,1.32051 17.58075,8.01098 22.52708,11.55598 19.15009,13.72475 31.90146,33.02615 35.97108,54.44845 1.3918,7.32642 1.26401,21.60417 -0.26032,29.08418 -5.96647,29.27797 -28.91767,54.56359 -58.50544,64.45614 -9.72795,3.25251 -14.96922,4.04455 -26.93118,4.06976 -12.63106,0.0267 -16.73332,-0.61945 -27.65,-4.35469 -3.66125,-1.25274 -6.87583,-2.14234 -7.14351,-1.97691 -0.26766,0.16543 -0.48667,19.00991 -0.48667,41.87662 v 41.57584 l 40.67426,0.41004 c 40.26004,0.40585 40.70097,0.42304 43.29756,1.68814 1.44282,0.70297 3.23749,2.19657 3.98816,3.31912 2.56729,3.83911 0.7299,10.5061 -3.57366,12.96711 -1.03036,0.58922 -44.38098,0.76527 -216.46832,0.87909 -209.426303,0.13851 -215.243872,0.11304 -217.570224,-0.95255 z m 206.639314,-72.2285 c 0.0818,-29.58724 -0.0128,-53.79499 -0.21026,-53.79499 -0.19749,0 -3.10081,2.6177 -6.45183,5.8171 -12.43988,11.87706 -26.91439,19.48613 -44.60292,23.44719 -5.08541,1.1388 -7.6789,1.35075 -16.52846,1.35075 -11.81623,0 -17.90753,-1.01708 -28.26552,-4.71953 -3.05624,-1.09245 -5.88482,-1.98636 -6.28573,-1.98645 -0.5764,-1.4e-4 -0.72893,8.78639 -0.72893,41.98932 v 41.98951 l 51.46241,-0.14896 51.46242,-0.14895 z m 123.18603,12.10023 c 0,-34.20301 -0.14146,-41.98633 -0.7631,-41.98633 -0.4197,0 -2.97824,0.81226 -5.68565,1.80501 -15.94116,5.84536 -33.015,6.72654 -49.54892,2.55721 -15.39582,-3.88234 -28.99126,-11.45102 -40.5697,-22.58546 -3.25181,-3.12711 -6.07813,-5.68565 -6.28071,-5.68565 -0.49491,0 -0.47456,106.99778 0.0205,107.49279 0.21379,0.21382 23.43748,0.38876 51.60817,0.38876 h 51.21944 z M 95.440544,395.91421 c 7.263876,-0.80997 14.016066,-2.80011 21.537516,-6.34797 l 6.06522,-2.86095 v -16.61247 c 0,-9.13686 0.127,-16.96195 0.28224,-17.38909 0.19441,-0.53498 -7.75934,-4.83169 -25.56298,-13.80941 -28.968494,-14.60775 -30.844274,-15.6664 -32.463127,-18.32149 -1.532006,-2.51263 -1.535831,-7.08234 -0.008,-9.58803 1.260249,-2.06689 4.995074,-4.25131 7.268698,-4.25131 1.645899,0 15.568392,6.44192 35.753979,16.54333 7.45427,3.73033 13.78077,6.78241 14.05889,6.78241 0.27811,0 0.73952,-10.58352 1.02536,-23.51894 l 0.51969,-23.51893 1.63379,-2.14 c 4.17879,-5.47351 11.41547,-5.19515 15.31344,0.58905 1.18875,1.764 1.24312,2.68311 1.61752,27.34377 0.21308,14.03513 0.38742,29.71867 0.38742,34.85232 v 9.33391 l 7.43508,-7.2941 c 4.08929,-4.01176 8.04912,-7.6209 8.79962,-8.02033 1.89739,-1.00982 6.02821,-0.90704 8.17559,0.20342 4.37279,2.26125 6.0808,8.3436 3.52177,12.54129 -0.6714,1.10135 -7.23079,8.07599 -14.5764,15.49921 l -13.35565,13.49676 v 3.26746 c 0,2.90128 0.17972,3.39434 1.60364,4.3996 4.49964,3.17664 17.25745,8.08302 19.49583,7.49767 0.55223,-0.14441 1.08225,-0.0324 1.17781,0.24889 0.2835,0.83454 11.46389,1.78422 16.50176,1.40168 9.99167,-0.75869 19.47435,-3.17925 26.8246,-6.84726 19.11002,-9.53651 32.65217,-26.49963 36.76531,-46.05281 1.08806,-5.17243 1.10348,-18.25749 0.0281,-23.87373 -2.44698,-12.78003 -9.07631,-24.4859 -19.51494,-34.4589 -8.46931,-8.09153 -16.53052,-12.70719 -29.42042,-16.84545 -7.35456,-2.36115 -10.19046,-3.96008 -11.60144,-6.54106 -0.77314,-1.41424 -1.4946,-6.30211 -1.8198,-12.3289 -0.13603,-2.52109 -0.89235,-6.02697 -1.97788,-9.16836 -5.48025,-15.85913 -18.06706,-28.09716 -33.49739,-32.5692 -5.88992,-1.70703 -18.72937,-2.12392 -25.19838,-0.81818 -12.79045,2.5817 -24.326786,10.61914 -31.786236,22.14572 -4.883745,7.54652 -6.983435,14.47709 -8.112966,26.77901 -0.524246,5.70971 -0.561113,5.81371 -2.801258,7.90251 -1.741413,1.62377 -3.695853,2.56908 -8.393027,4.05948 -13.574814,4.30726 -22.529736,9.32521 -30.977608,17.3585 -11.745229,11.16886 -19.466041,26.47214 -20.0938,39.8276 -0.128142,2.7262 -0.266808,5.08793 -0.308148,5.2483 -0.04134,0.16036 -0.0469,0.47996 -0.01234,0.71021 0.03455,0.23025 0.175483,2.8544 0.313186,5.83143 0.640099,13.83847 7.235299,27.77881 18.451512,39.00115 10.661839,10.66766 24.058428,17.74525 37.292374,19.70205 2.405467,0.35569 5.029613,0.74299 5.831435,0.86069 3.049392,0.44762 8.412446,0.35025 13.800453,-0.25055 z m 246.086556,0 c 7.52387,-0.83896 14.43296,-2.89752 21.62552,-6.44331 l 5.97722,-2.94665 v -33.574 -33.574 l -13.9983,-14.16337 c -7.69906,-7.78985 -14.25943,-14.85019 -14.57859,-15.68964 -2.40323,-6.32097 1.97829,-12.53007 8.84196,-12.53007 3.27267,0 3.94479,0.48694 13.10133,9.49174 l 6.48714,6.37963 0.43194,-19.1612 c 0.4969,-22.04299 0.61397,-22.6516 4.87714,-25.35523 1.60414,-1.01731 3.44277,-1.67841 4.66797,-1.67841 2.63949,0 6.66201,2.39238 8.19611,4.87461 1.17783,1.90576 1.21707,2.68097 1.21817,24.05983 0.001,27.57322 0.61688,54.45509 1.24677,54.45509 0.26246,0 8.55192,-4.02382 18.42103,-8.94183 21.68148,-10.80438 29.43327,-14.38391 31.14961,-14.38391 2.22129,0 6.23125,2.32748 7.47382,4.33799 1.41918,2.29629 1.57951,6.62622 0.33451,9.0338 -0.46958,0.90806 -1.60352,2.2727 -2.51988,3.03255 -0.91636,0.75984 -13.9198,7.54827 -28.89653,15.0854 -23.93854,12.04721 -27.19494,13.84487 -26.93684,14.87016 0.16148,0.64146 0.29718,8.46441 0.30156,17.38433 l 0.008,16.21803 5.97722,2.84727 c 11.61171,5.53128 22.80131,7.58365 35.1043,6.43874 17.34108,-1.61375 31.28535,-8.09592 43.21204,-20.08766 8.55449,-8.60113 14.21031,-18.20344 17.31948,-29.40456 1.0668,-3.84324 1.24262,-6.04192 1.24388,-15.5556 0.001,-10.3838 -0.0974,-11.40146 -1.57215,-16.20211 -3.47761,-11.32003 -8.75735,-20.03426 -17.23303,-28.44318 -9.15394,-9.08184 -16.61674,-13.55528 -29.7516,-17.83407 -12.58039,-4.09816 -13.00016,-4.57156 -13.96855,-15.7533 -0.44625,-5.15261 -1.12036,-8.6163 -2.46772,-12.6796 -5.13889,-15.49756 -17.95981,-28.00053 -33.29865,-32.47286 -5.92473,-1.72747 -18.6808,-2.13427 -25.25101,-0.80527 -9.92316,2.00723 -18.82799,7.0333 -25.96569,14.65557 -7.89763,8.43381 -12.28977,18.1628 -13.38278,29.64416 -0.87881,9.23117 -1.07026,10.02144 -2.94528,12.15696 -1.92094,2.18784 -3.92177,3.12769 -11.37126,5.34142 -11.08119,3.29295 -20.04248,8.51385 -28.44911,16.5746 -5.86716,5.62578 -9.76939,10.65691 -13.19958,17.0182 -5.09904,9.45616 -7.04379,17.64258 -7.04379,29.65072 0,8.99624 1.24971,15.34636 4.60756,23.41228 5.57943,13.40238 17.71779,26.32017 31.26658,33.27425 13.13078,6.73953 25.41377,9.03992 39.73952,7.4425 z"
     style="fill:#e3dedb;stroke-width:0.583144" />
  <path
     id="path21"
     d="m 41.428727,510.41431 c -4.312275,-0.54682 -7.02326,-3.95798 -7.02326,-8.83719 0,-2.24134 0.330602,-3.29284 1.455687,-4.62992 3.11976,-3.70763 2.651463,-3.66245 43.735946,-4.21921 20.52775,-0.27819 38.70522,-0.51684 40.3944,-0.53033 l 3.07122,-0.0245 -0.0344,-41.98633 c -0.0189,-23.09249 -0.25977,-41.98634 -0.53524,-41.98634 -0.27548,0 -3.82089,1.03578 -7.87869,2.30174 -11.32757,3.53399 -17.13967,4.31403 -29.371461,3.94198 -14.508739,-0.44131 -22.941606,-2.52056 -35.59426,-8.7763 -17.924012,-8.862 -31.44038,-22.28856 -40.0111943,-39.74531 -6.5594726,-13.36011 -7.8771134,-19.23642 -7.883689,-35.15898 -0.00486,-11.77704 0.6195679,-16.05298 3.5802478,-24.51658 4.291299,-12.2674 10.8087485,-22.51298 20.6158025,-32.4085 9.345776,-9.4301 17.805366,-15.16201 30.011838,-20.33497 3.698726,-1.56748 7.017897,-3.09307 7.375942,-3.39022 0.358038,-0.29715 1.098345,-2.7929 1.645129,-5.54611 3.641002,-18.33358 13.21977,-33.37905 28.463106,-44.70733 3.796545,-2.82144 6.271639,-5.06241 6.271639,-5.67838 0,-0.55965 -0.778981,-3.54817 -1.731062,-6.64117 -2.847723,-9.25127 -3.691765,-16.90056 -3.350637,-30.36561 0.224574,-8.86425 0.589418,-12.99157 1.513251,-17.1187 6.160718,-27.52234 22.687198,-50.454927 46.612588,-64.68087 6.09754,-3.625573 12.48098,-6.521364 20.78535,-9.429081 3.83516,-1.342857 7.28821,-2.70315 7.67347,-3.022882 0.38525,-0.319732 1.81037,-3.342957 3.16693,-6.718289 8.49389,-21.134079 27.20186,-39.886832 48.44928,-48.5652508 18.89731,-7.71853101 40.35348,-8.46799841 60.11854,-2.0999501 24.54738,7.9088529 45.52423,27.4845829 54.73026,51.0746109 l 2.4637,6.313113 5.59737,2.166238 c 7.86246,3.042843 9.31563,4.810532 8.80857,10.715017 -0.36712,4.274967 -3.76707,6.992573 -8.75105,6.994789 -3.48639,0.0017 -14.14799,-2.377015 -17.24761,-3.847878 -2.62822,-1.247175 -3.1863,-2.254888 -6.56896,-11.861548 -4.54537,-12.908746 -9.46054,-20.651805 -18.38967,-28.969967 -22.04782,-20.539211 -55.44608,-24.551843 -81.77944,-9.825388 -5.4951,3.073033 -12.29112,8.365321 -16.90733,13.166302 -6.98201,7.261468 -11.45989,15.138377 -15.37994,27.054396 -1.05512,3.207289 -2.28155,6.550498 -2.7254,7.429359 -1.02433,2.028249 -4.01243,3.550545 -9.94011,5.064013 -11.61553,2.96571 -22.15992,7.473369 -30.49199,13.035117 -6.0157,4.015556 -15.87553,14.084579 -20.30299,20.733759 -8.92295,13.40052 -12.77004,25.36974 -13.34707,41.52591 -0.35759,10.01198 0.18039,15.46179 2.47268,25.04852 l 1.47583,6.17222 13.24482,-0.007 c 14.8341,-0.008 18.79817,0.63103 28.29921,4.564 12.49032,5.17039 24.89521,15.02597 31.5159,25.03913 5.10506,7.7209 9.38208,18.01848 11.23732,27.05553 1.2139,5.91304 1.45129,6.28868 4.72787,7.48115 12.86773,4.68307 23.70885,11.6552 34.68677,22.3077 l 5.70257,5.53353 V 222.3658 165.22925 l -13.26651,-6.32 c -34.31253,-16.34606 -45.96149,-22.27235 -47.05252,-23.93749 -1.41676,-2.16225 -1.83781,-6.19174 -0.88688,-8.4875 1.08675,-2.62365 4.86481,-5.18996 7.64055,-5.18996 2.53663,0 4.82912,0.98841 32.9882,14.22289 10.6525,5.00658 19.60033,9.10286 19.88405,9.10286 0.69569,0 1.27028,-10.12805 1.30366,-22.9791 0.0151,-5.80341 0.23943,-13.90562 0.49857,-18.00491 0.42408,-6.708423 0.61074,-7.602667 1.86781,-8.948347 2.00159,-2.142673 4.19525,-3.133702 6.93651,-3.133702 2.98611,0 5.35056,1.194727 7.21179,3.644034 l 1.44064,1.895829 0.66735,38.165416 c 0.36704,20.99098 0.80406,38.38661 0.97115,38.65698 0.46466,0.75183 1.50445,0.315 21.19882,-8.90579 30.7641,-14.40358 32.52583,-15.01335 35.98058,-12.45373 5.06435,3.75219 5.69151,9.94736 1.36736,13.50701 -1.14524,0.94277 -32.91628,16.84875 -47.69874,23.8801 l -11.22551,5.33946 v 42.10953 42.10953 l 5.70257,-5.53353 c 9.55166,-9.26852 20.85412,-16.96106 30.16076,-20.52765 2.2451,-0.8604 4.92107,-1.93779 5.94661,-2.39422 2.00906,-0.89416 2.00938,-0.89494 4.14987,-10.23723 5.24008,-22.87048 23.15403,-42.65797 45.32712,-50.06768 8.84264,-2.95499 15.29812,-3.73255 27.44691,-3.30596 l 10.56072,0.37082 0.94344,-3.37019 c 3.15299,-11.26326 4.13379,-26.41052 2.42715,-37.4841 -1.3015,-8.44477 -1.16743,-11.46059 0.61328,-13.79522 1.91806,-2.5147 4.25768,-3.69908 7.30715,-3.69908 7.42737,0 10.35878,7.11458 10.86821,26.3774 0.38729,14.6442 -0.46006,22.15039 -3.69094,32.69598 -0.76661,2.50221 -1.39383,5.02609 -1.39383,5.60862 0,0.66888 2.31097,2.77659 6.27164,5.72 15.07768,11.20518 23.78242,24.67069 28.12513,43.50727 0.6534,2.83415 1.44641,5.63585 1.76226,6.226 0.31583,0.59015 2.00849,1.60962 3.76145,2.26549 4.62087,1.72888 14.54336,6.78896 19.26859,9.82621 19.40702,12.4743 34.45566,34.56008 38.24434,56.12838 1.09424,6.22934 0.91112,22.37212 -0.32084,28.28246 -6.20006,29.74497 -29.22268,54.8528 -59.31416,64.68637 -9.47687,3.09693 -12.79505,3.5415 -26.42711,3.54071 -13.40645,-5.8e-4 -14.56603,-0.16972 -26.30737,-3.83279 -4.03624,-1.25922 -7.56104,-2.2895 -7.83288,-2.2895 -0.27184,0 -0.51402,18.89385 -0.53816,41.98633 l -0.0439,41.98633 3.07415,0.0246 c 1.69078,0.0135 19.9353,0.25299 40.54337,0.53221 36.75532,0.498 37.51912,0.53184 40.08884,1.77581 3.5695,1.72798 4.95674,3.63207 4.95674,6.80354 0,3.16151 -1.10318,5.85958 -3.17904,7.77506 l -1.57993,1.45786 -214.69569,0.0639 c -118.08262,0.0351 -215.602638,-0.0512 -216.711143,-0.19171 z M 246.08656,438.23235 c 0,-29.66743 -0.22061,-53.94078 -0.49025,-53.94078 -0.26964,0 -3.2218,2.51319 -6.56036,5.58487 -10.8316,9.96571 -21.48857,16.26442 -35.05617,20.71962 -10.77014,3.53659 -15.76305,4.20955 -28.45358,3.83504 -11.543,-0.34064 -15.11664,-0.96886 -25.33035,-4.45283 -2.86654,-0.9778 -5.6875,-1.77781 -6.2688,-1.77781 -1.01064,0 -1.05689,1.83731 -1.05689,41.98633 v 41.98633 h 51.6082 51.6082 z m 123.04328,11.95444 c 0,-38.05431 -0.0872,-41.98633 -0.93067,-41.98633 -0.51186,0 -4.25127,1.04639 -8.30979,2.32531 -9.91263,3.12367 -16.06135,4.08926 -26.03972,4.08926 -23.30012,0 -42.70469,-7.97983 -61.45779,-25.27358 -3.01181,-2.77743 -5.70156,-5.04988 -5.97722,-5.04988 -0.27591,0 -0.50121,24.24786 -0.50121,53.94078 v 53.94077 h 51.6082 51.6082 z M 98.647559,395.68062 c 6.626401,-1.15555 11.916701,-2.84916 18.623421,-5.96201 l 5.60763,-2.60272 0.42252,-17.13406 c 0.23239,-9.42373 0.25947,-17.39788 0.0602,-17.72031 -0.45615,-0.73806 -6.99048,-4.20804 -32.955029,-17.50037 -20.776266,-10.63624 -23.959985,-12.496 -25.12805,-14.67856 -0.820501,-1.53312 -0.816168,-7.09574 0.0067,-8.63333 0.984095,-1.8388 4.754806,-4.13263 6.793412,-4.13263 2.321202,0 9.454931,3.16163 31.698327,14.04856 9.7697,4.78172 18.05738,8.69404 18.41709,8.69404 0.39832,0 0.65975,-1.19687 0.6687,-3.06151 0.008,-1.68382 0.33716,-12.24601 0.73127,-23.47152 l 0.71655,-20.41003 1.49002,-1.96451 c 0.81952,-1.08049 2.67318,-2.48789 4.11926,-3.12755 2.22129,-0.98258 2.96532,-1.06235 4.79523,-0.5141 1.19129,0.35692 2.88936,1.21795 3.77347,1.9134 3.28195,2.58157 3.27182,2.47685 3.82021,39.50978 0.27822,18.78811 0.51841,34.2598 0.53376,34.38154 0.0153,0.12173 3.6683,-3.31979 8.11768,-7.64783 8.7682,-8.52908 10.08228,-9.25753 14.53637,-8.05816 4.75261,1.27974 7.29791,6.90118 5.39314,11.9111 -0.30511,0.8025 -6.73427,7.73853 -14.28702,15.41341 l -13.73227,13.95433 v 3.47506 c 0,4.24465 0.74513,5.09102 7.01007,7.96236 7.9837,3.65909 15.94087,5.60061 24.77125,6.0441 21.91208,1.10049 42.82521,-8.00666 56.85659,-24.75963 6.83678,-8.16287 10.90481,-16.0883 13.42835,-26.1614 1.1455,-4.57244 1.245,-6.15982 0.99789,-15.91951 -0.22483,-8.87914 -0.50538,-11.62489 -1.55055,-15.17498 -2.93977,-9.9854 -8.86342,-19.85629 -16.57077,-27.61277 -9.04525,-9.1029 -15.84421,-13.24203 -30.40673,-18.51129 -8.49019,-3.07206 -11.66124,-4.93578 -12.60024,-7.40556 -0.30865,-0.8118 -0.93564,-4.78784 -1.39331,-8.83563 -0.97192,-8.59602 -1.91448,-12.05718 -5.02827,-18.46415 -5.83885,-12.01413 -17.33612,-21.96548 -29.97442,-25.94408 -6.2369,-1.96341 -20.85118,-2.31125 -27.75578,-0.66063 -9.68775,2.31598 -16.78699,6.48516 -24.20311,14.21381 -9.190663,9.57797 -12.905363,18.6826 -14.527919,35.60759 -0.289624,3.02106 -0.725943,4.36106 -1.858128,5.70659 -1.873185,2.22616 -2.982721,2.78289 -11.545717,5.7933 -19.099639,6.71469 -31.815882,16.71188 -40.802772,32.07815 -5.833281,9.97405 -7.981589,18.23434 -7.962256,30.61503 0.01481,9.48123 0.904947,14.82228 3.718778,22.31354 6.542692,17.41861 23.686239,33.56549 42.209636,39.75571 10.151788,3.39257 22.917977,4.42944 32.964811,2.67743 z m 246.086561,0 c 6.64668,-1.15909 11.91938,-2.8504 18.70576,-6.00022 l 5.68996,-2.64094 V 352.93678 318.8341 l -13.97183,-14.21362 c -15.7196,-15.99165 -16.18194,-16.68552 -14.33687,-21.51676 1.31131,-3.43362 4.31975,-5.54496 8.00641,-5.61896 1.43853,-0.0289 3.24924,0.2854 4.02382,0.69839 0.77457,0.41298 4.62277,3.90064 8.55155,7.75035 3.92878,3.8497 7.28788,6.85483 7.46466,6.67804 0.17678,-0.17678 0.57272,-8.5523 0.87986,-18.61227 0.55569,-18.20046 0.92175,-21.88071 2.34721,-23.59829 1.20017,-1.44611 4.99546,-3.14813 7.01995,-3.14813 2.48985,0 6.70045,2.53669 7.82715,4.7155 0.77685,1.50224 0.98237,7.21972 1.42983,39.77687 0.28741,20.91234 0.53665,38.08804 0.55385,38.16822 0.14264,0.66468 4.19071,-1.15811 22.36296,-10.06973 28.19072,-13.82466 27.69882,-13.6523 32.02423,-11.22128 2.94596,1.65572 3.95845,3.62844 3.95845,7.71253 0,5.28851 -0.28357,5.48321 -30.61503,21.02008 -14.75353,7.55729 -27.18331,14.0989 -27.62174,14.5369 -0.6579,0.65727 -0.72203,3.80078 -0.36715,17.99685 l 0.42999,17.20048 4.44915,2.06896 c 10.53514,4.89907 17.14618,6.66369 26.90018,7.18017 20.67332,1.09467 39.64337,-6.44413 53.98057,-21.45216 7.53814,-7.89086 12.34835,-15.87656 15.76142,-26.16642 1.59442,-4.80694 1.64485,-5.3356 1.6686,-17.49431 l 0.0245,-12.53758 -1.90924,-5.5834 c -3.97028,-11.61071 -8.7201,-18.98474 -18.02745,-27.98738 -8.96222,-8.66883 -14.50982,-11.95674 -28.46422,-16.87002 -8.02284,-2.8248 -8.827,-3.19179 -10.70424,-4.88492 -1.92312,-1.73452 -2.25934,-2.87296 -3.26997,-11.07198 -0.99075,-8.03779 -2.48386,-13.49814 -5.1247,-18.74126 -6.33887,-12.58514 -17.03266,-21.86918 -29.88515,-25.94541 -5.20946,-1.6522 -19.21827,-2.30246 -25.57968,-1.18735 -12.55661,2.20108 -24.6476,10.30539 -32.10059,21.51628 -4.96847,7.47366 -7.29291,14.52738 -8.46797,25.69687 -1.00652,9.56748 -2.11785,10.74275 -13.85793,14.65515 -9.18257,3.06011 -15.13585,6.02015 -21.30987,10.59554 -9.65324,7.15372 -17.41375,16.42805 -22.08161,26.38902 -3.73658,7.97364 -4.71314,12.57528 -5.03641,23.73197 -0.39254,13.54726 0.75853,19.28314 6.00507,29.92379 8.98388,18.22048 28.81983,33.01629 49.21611,36.71075 5.92618,1.07344 17.4265,1.09552 23.45042,0.045 z"
     style="fill:#e3dedb;stroke-width:0.583144" />
  <path
     id="path23"
     d="m 41.428727,510.41431 c -4.312275,-0.54682 -7.02326,-3.95798 -7.02326,-8.83719 0,-3.58145 1.791191,-5.99201 5.410661,-7.2816 3.06291,-1.09128 13.392593,-1.50103 42.115535,-1.67058 11.86697,-0.07 25.997117,-0.21284 31.400337,-0.31729 l 9.82402,-0.18993 -0.20215,-41.61861 c -0.11119,-22.89023 -0.36057,-41.77695 -0.55418,-41.97047 -0.19361,-0.19354 -3.34258,0.58805 -6.99772,1.73686 -11.18923,3.51676 -13.03268,3.83553 -24.15,4.17598 -15.218821,0.46606 -25.130482,-1.33616 -37.65496,-6.84673 C 28.974329,396.76116 11.648744,377.22593 3.7087855,351.34396 2.1381946,346.22429 2.0980299,345.7384 2.0698698,331.51708 2.043047,317.97116 2.1363807,316.60902 3.3875075,312.28712 8.5587839,294.42343 17.780293,280.10364 31.687744,268.34057 39.955262,261.34782 44.444047,258.6633 58.947009,252.0382 l 5.006229,-2.28689 1.009532,-5.0833 c 3.671489,-18.48708 13.39757,-33.73196 28.858145,-45.23293 3.23363,-2.40547 5.879836,-4.7672 5.880454,-5.24829 5.83e-4,-0.4811 -0.539921,-2.58041 -1.201194,-4.66515 -2.924698,-9.22043 -3.522828,-13.29904 -3.848327,-26.24146 -0.275279,-10.94535 -0.162808,-13.43034 0.885585,-19.5673 3.528461,-20.65443 13.682047,-39.77651 28.819837,-54.275939 11.38625,-10.906089 22.80775,-17.761332 39.21448,-23.536739 3.84875,-1.354811 7.30181,-2.709687 7.67346,-3.010828 0.37166,-0.301147 1.78566,-3.309164 3.14222,-6.684496 4.26863,-10.620997 10.74854,-20.279473 19.42999,-28.960926 17.82447,-17.8244734 40.63082,-26.90328047 65.0983,-25.9144947 13.49523,0.5453729 23.95131,3.2572769 36.44647,9.4528167 18.87041,9.356615 34.13782,25.682183 41.95449,44.862282 1.38311,3.393797 2.82913,6.549349 3.21338,7.012354 0.38426,0.462998 2.05613,1.286105 3.71527,1.829123 4.59534,1.504008 8.43417,3.596106 9.45371,5.152113 0.512,0.781407 0.92809,2.679661 0.94057,4.290951 0.044,5.677001 -3.13686,8.871817 -8.83551,8.874348 -3.48639,0.0017 -14.14799,-2.377015 -17.24761,-3.847878 -2.60087,-1.234194 -3.41453,-2.636777 -6.15541,-10.610687 -4.09029,-11.899694 -8.49674,-19.563475 -15.54327,-27.033179 -10.03074,-10.633108 -24.66625,-18.44935 -39.19494,-20.932456 -6.10166,-1.042838 -18.44547,-0.920001 -24.54687,0.244274 -13.21965,2.522589 -25.26972,8.690435 -35.37257,18.105499 -8.51244,7.932922 -13.63433,16.347515 -18.31028,30.081391 -1.36488,4.008826 -3.02978,7.836959 -3.69979,8.506962 -1.40184,1.401842 -3.65909,2.259576 -13.50964,5.133517 -17.61559,5.139425 -29.60001,12.490479 -40.02891,24.553102 -12.62207,14.59937 -18.67438,29.84251 -19.45033,48.9869 -0.39584,9.76621 0.19018,15.73592 2.50543,25.52272 l 1.4854,6.27898 9.42278,-0.36822 c 18.96784,-0.74123 31.13123,2.36165 44.89007,11.45146 6.18954,4.08914 14.79656,12.44918 18.45076,17.92132 5.47603,8.20031 9.97073,19.08029 11.66658,28.2404 0.3979,2.14923 1.02418,4.29587 1.39174,4.77031 0.36755,0.47442 3.29242,1.89637 6.49971,3.15987 10.90636,4.29653 20.97365,11.01181 30.9638,20.65411 2.91802,2.81642 5.47656,5.12076 5.68565,5.12076 0.20909,0 0.38016,-25.53856 0.38016,-56.75235 v -56.75234 l -11.51708,-5.46148 c -6.3344,-3.00382 -19.67807,-9.45061 -29.65261,-14.32619 -15.86678,-7.75575 -18.29239,-9.11854 -19.38952,-10.89374 -2.47554,-4.00551 -1.32551,-9.06753 2.67812,-11.78807 4.24459,-2.88427 3.94219,-2.99073 41.17774,14.49622 8.61362,4.04522 15.8553,7.35494 16.09262,7.35494 0.58453,0 1.1857,-11.93222 1.23122,-24.4378 0.0205,-5.64258 0.24578,-13.35173 0.50053,-17.13145 0.41059,-6.091693 0.62159,-7.041768 1.85788,-8.365194 1.99966,-2.140627 4.19407,-3.131615 6.93454,-3.131615 2.98443,0 5.34798,1.193391 7.21713,3.644034 l 1.44598,1.895829 0.66589,38.195896 c 0.36623,21.00775 0.86351,38.39874 1.10506,38.64664 0.56543,0.58033 1.56226,0.1526 23.09669,-9.9105 28.83979,-13.4769 30.18912,-13.94802 33.51987,-11.70342 4.51118,3.04007 5.9242,7.92622 3.44994,11.92964 -1.05632,1.70918 -3.86201,3.29648 -20.26423,11.46434 -10.47099,5.21427 -23.82722,11.75695 -29.68052,14.53929 l -10.64237,5.05881 v 41.71425 c 0,22.94284 0.17107,41.71426 0.38016,41.71426 0.20909,0 2.76763,-2.30434 5.68565,-5.12076 11.1481,-10.75993 21.03119,-17.08131 34.32353,-21.95387 1.52713,-0.55979 3.00749,-1.45418 3.2897,-1.98754 0.28221,-0.53335 0.96586,-3.20025 1.51921,-5.92644 5.21661,-25.70074 24.31341,-46.77649 48.81889,-53.87791 7.9638,-2.30781 14.03345,-2.89398 25.32399,-2.4456 l 10.00173,0.39719 1.48442,-6.29652 c 2.88297,-12.22873 3.4674,-23.08969 1.84502,-34.28741 -1.29158,-8.91455 -1.16918,-11.75925 0.60613,-14.0868 1.91806,-2.5147 4.25768,-3.69908 7.30715,-3.69908 4.89193,0 7.6054,3.12946 9.60695,11.07973 1.27342,5.05806 1.79001,23.50759 0.89703,32.03611 -0.61846,5.90661 -1.26437,8.94256 -3.93538,18.4973 l -1.00368,3.59036 1.71291,1.43507 c 0.94209,0.78929 3.83789,3.03371 6.43509,4.98761 8.34374,6.27707 15.44498,14.86954 20.32445,24.5925 2.81106,5.60139 4.40306,10.17143 6.1946,17.78247 0.67903,2.88468 1.45957,5.66526 1.73455,6.17906 0.27497,0.5138 1.7588,1.40182 3.29739,1.97338 5.47957,2.03555 19.19792,9.40048 23.78924,12.77163 5.96863,4.38244 15.36561,13.9327 19.71845,20.04009 6.65305,9.33475 11.94417,21.18214 14.13092,31.64061 1.26335,6.04221 1.42807,21.96565 0.29558,28.57403 -1.80072,10.5077 -7.50051,23.69227 -14.4265,33.37094 -1.86399,2.60482 -6.02368,7.38019 -9.24375,10.61193 -11.81686,11.85968 -25.43964,19.6359 -42.22836,24.10498 -5.15043,1.37102 -6.56792,1.48602 -18.97846,1.53974 -14.72335,0.0637 -15.51865,-0.0457 -27.50381,-3.78484 -4.05284,-1.26441 -7.5261,-2.14171 -7.71837,-1.94957 -0.19227,0.19215 -0.43858,19.07779 -0.54737,41.96808 l -0.19779,41.61872 9.81966,0.1899 c 5.40081,0.10443 19.529,0.2472 31.39597,0.31725 39.08774,0.23073 42.92956,0.58945 46.05175,4.29997 2.58335,3.07014 1.75692,8.96529 -1.7046,12.15937 l -1.57993,1.45786 -214.69569,0.0639 c -118.08262,0.0351 -215.602638,-0.0511 -216.711143,-0.1917 z M 246.08656,438.23235 c 0,-29.66743 -0.19681,-53.93734 -0.43736,-53.93313 -0.24054,0.004 -2.93029,2.27461 -5.97722,5.04534 -12.33089,11.21313 -22.29707,17.0784 -36.89924,21.71587 -9.68924,3.07717 -14.99624,3.73281 -27.24654,3.36608 -11.62912,-0.34813 -14.0752,-0.77342 -24.9568,-4.33908 -5.645,-1.84975 -6.66603,-2.03492 -7.13458,-1.29389 -0.32678,0.51681 -0.5504,17.46548 -0.55573,42.12218 l -0.009,41.2574 h 51.6082 51.6082 z m 123.03435,12.68337 c -0.005,-24.07304 -0.23224,-41.61041 -0.54507,-42.10493 -0.45332,-0.7166 -1.73557,-0.46803 -8.30086,1.60913 -11.51118,3.64198 -16.83501,4.37911 -29.04947,4.02217 -11.80212,-0.3449 -18.60943,-1.67557 -28.64575,-5.59957 -10.98585,-4.29525 -19.6917,-9.90761 -30.25174,-19.50225 -3.04693,-2.76837 -5.73668,-5.03684 -5.97722,-5.04105 -0.24055,-0.004 -0.43736,24.2657 -0.43736,53.93313 v 53.94077 h 51.6082 51.6082 l -0.009,-41.2574 z M 103.79954,394.60968 c 4.63242,-1.20495 16.15023,-5.74622 18.42772,-7.26574 0.42747,-0.2852 0.77403,-6.19623 1.03765,-17.69844 l 0.39582,-17.27021 -1.57345,-1.03096 c -0.8654,-0.56703 -12.97795,-6.89483 -26.916778,-14.06176 -25.274303,-12.99531 -28.695524,-14.96388 -29.892251,-17.19998 -0.820501,-1.53312 -0.816168,-7.09574 0.0067,-8.63333 0.995665,-1.86042 4.757792,-4.13263 6.842454,-4.13263 2.398889,0 8.328421,2.62382 31.257125,13.83131 10.19545,4.9835 18.63098,8.96165 18.74563,8.84032 0.42521,-0.45 1.45952,-19.32504 1.80122,-32.8706 0.35031,-13.88676 0.36393,-14.00386 1.85592,-15.95996 0.82666,-1.0838 2.68618,-2.49393 4.13226,-3.13359 2.24307,-0.99222 2.95511,-1.06541 4.8479,-0.49832 2.95485,0.8853 5.56201,3.15964 6.26322,5.46368 0.75283,2.47362 1.23019,15.74733 1.3782,38.3226 0.0662,10.10296 0.2134,21.47594 0.32702,25.27327 l 0.2066,6.90426 8.01296,-7.83831 c 8.69878,-8.50919 10.04423,-9.25336 14.54082,-8.04255 3.82643,1.03035 5.94788,4.1495 5.94788,8.74514 0,2.87751 -0.12705,3.09943 -4.6122,8.05656 -2.53672,2.80364 -8.96587,9.42439 -14.28702,14.71277 l -9.67479,9.61524 v 3.6216 c 0,3.40182 0.1152,3.70946 1.89828,5.06949 3.64649,2.78132 11.13919,5.66429 20.51742,7.89453 4.57733,1.08853 15.24526,1.44068 20.86526,0.68877 16.10209,-2.15433 28.48473,-8.02013 39.84719,-18.87607 8.84833,-8.45389 14.36136,-17.09586 18.12822,-28.41695 1.59364,-4.78957 1.64958,-5.35985 1.65885,-16.91116 0.008,-10.00206 -0.17322,-12.62111 -1.10983,-16.03645 -3.1175,-11.3678 -8.81524,-20.9575 -17.67742,-29.75229 -8.32928,-8.26596 -16.03896,-12.88646 -29.82622,-17.87519 -7.75472,-2.80594 -11.13965,-4.69951 -12.31,-6.88632 -0.32637,-0.60982 -0.99017,-4.68744 -1.47511,-9.06139 -0.92542,-8.34676 -2.15598,-12.90755 -5.00296,-18.54237 -7.07642,-14.00586 -20.42214,-24.49973 -34.3085,-26.9771 -5.9587,-1.06306 -17.15406,-1.03681 -22.42811,0.0526 -16.36389,3.38005 -30.944193,16.47799 -36.581097,32.86194 -1.164561,3.38486 -2.513092,10.75828 -3.136361,17.1488 -0.293963,3.0141 -0.735117,4.36417 -1.864689,5.7066 -1.887023,2.24259 -3.299467,2.95422 -11.682254,5.88586 -3.77365,1.31972 -8.698087,3.31173 -10.943189,4.42668 -13.804585,6.85559 -25.054601,18.00897 -31.762184,31.48934 -4.852444,9.75206 -6.139529,16.46337 -5.701523,29.72972 0.252188,7.6383 0.562764,10.07009 1.828742,14.31892 7.083915,23.77483 29.002482,42.91066 54.258912,47.37032 7.274488,1.2845 20.697483,0.77217 27.735953,-1.05862 z m 245.24605,0.25158 c 5.15558,-1.28188 8.43528,-2.49139 15.44822,-5.69709 l 4.63603,-2.11918 v -34.11157 -34.11156 l -13.96401,-14.18141 c -15.7043,-15.94878 -16.19703,-16.68645 -14.35959,-21.49771 1.11347,-2.91556 3.4103,-4.87957 6.52904,-5.58297 3.80676,-0.85856 5.64833,0.21763 13.81334,8.07239 l 7.68965,7.39745 0.37948,-4.95672 c 0.20871,-2.72619 0.41436,-9.15535 0.457,-14.28701 0.10044,-12.08999 0.91296,-21.04447 2.06974,-22.80994 1.18584,-1.80983 5.01434,-3.72554 7.42134,-3.7135 2.58872,0.0129 6.27189,2.19275 7.62777,4.51435 1.04457,1.78855 1.13814,4.11476 1.60677,39.94501 0.27368,20.92522 0.51082,38.11146 0.52697,38.19164 0.12709,0.63072 3.97556,-1.10738 22.24782,-10.04788 28.27018,-13.83242 27.81425,-13.67291 32.13746,-11.24313 2.94596,1.65572 3.95845,3.62844 3.95845,7.71253 0,5.12228 -0.88726,5.77961 -23.32574,17.28096 -24.33495,12.47341 -33.22846,17.14073 -34.60328,18.15979 -1.0164,0.75338 -1.05024,1.69905 -0.64658,18.06794 l 0.42594,17.27297 5.29733,2.42668 c 13.97572,6.40221 25.69853,8.18989 39.88868,6.08285 14.74448,-2.18934 26.99474,-8.11767 37.48563,-18.14062 8.71411,-8.3254 14.26697,-16.98183 18.18946,-28.35582 l 1.85076,-5.36661 0.0241,-12.53759 c 0.0237,-12.31462 -0.006,-12.62573 -1.65766,-17.4943 -3.57361,-10.5324 -8.2847,-18.34242 -15.76317,-26.13217 -10.11218,-10.53309 -16.30871,-14.22196 -34.97271,-20.81974 -2.52996,-0.89435 -5.46627,-2.38676 -6.52514,-3.31646 -2.1115,-1.85392 -2.32612,-2.62915 -3.94793,-14.2606 -1.57162,-11.27155 -5.62743,-19.73563 -13.41215,-27.98984 -7.45226,-7.90168 -16.16536,-12.88438 -25.41675,-14.53485 -6.70062,-1.19542 -18.03647,-1.04968 -23.65621,0.30412 -9.43199,2.27219 -16.6936,6.56225 -23.95385,14.15161 -8.42851,8.8106 -12.27452,17.3765 -13.96271,31.09804 -1.3649,11.09389 -2.20558,12.09245 -13.28334,15.77802 -8.70888,2.89745 -13.00214,4.87416 -18.69234,8.60636 -15.87497,10.41239 -27.07737,26.30938 -29.86328,42.3781 -1.22239,7.05055 -0.90149,22.36857 0.57999,27.68502 3.13351,11.24501 9.26368,21.41013 18.01571,29.8739 10.56686,10.21882 22.49709,16.44671 36.6863,19.15117 6.08453,1.15971 20.80726,0.70046 27.01342,-0.84263 z"
     style="fill:#008000;stroke-width:0.583144" />
  <path
     id="path25"
     d="m 379.18374,106.71841 c -3.05615,-1.86335 -4.32217,-4.40568 -4.08025,-8.193653 0.23815,-3.729054 1.46365,-5.730104 4.60233,-7.514901 3.87799,-2.205198 9.07142,-1.007616 11.83579,2.729281 1.59289,2.153284 1.84732,6.885693 0.50891,9.465643 -2.29984,4.43319 -8.55639,6.14171 -12.86678,3.51363 z"
     style="fill:#008000;stroke-width:0.583144" />
</svg>
