<?xml version="1.0" encoding="UTF-8" standalone="no"?>
<svg
   xmlns:dc="http://purl.org/dc/elements/1.1/"
   xmlns:cc="http://creativecommons.org/ns#"
   xmlns:rdf="http://www.w3.org/1999/02/22-rdf-syntax-ns#"
   xmlns:svg="http://www.w3.org/2000/svg"
   xmlns="http://www.w3.org/2000/svg"
   xmlns:sodipodi="http://sodipodi.sourceforge.net/DTD/sodipodi-0.dtd"
   xmlns:inkscape="http://www.inkscape.org/namespaces/inkscape"
   inkscape:version="1.0 (6e3e5246a0, 2020-05-07)"
   sodipodi:docname="forest.svg"
   version="1.1"
   width="512"
   viewBox="0 0 512 512"
   height="512"
   enable-background="new 0 0 512 512"
   id="Capa_1">
  <metadata
     id="metadata13">
    <rdf:RDF>
      <cc:Work
         rdf:about="">
        <dc:format>image/svg+xml</dc:format>
        <dc:type
           rdf:resource="http://purl.org/dc/dcmitype/StillImage" />
      </cc:Work>
    </rdf:RDF>
  </metadata>
  <defs
     id="defs11" />
  <sodipodi:namedview
     inkscape:current-layer="Capa_1"
     inkscape:window-maximized="1"
     inkscape:window-y="27"
     inkscape:window-x="67"
     inkscape:cy="249.877"
     inkscape:cx="183.49484"
     inkscape:zoom="1.7148438"
     showgrid="false"
     id="namedview9"
     inkscape:window-height="1025"
     inkscape:window-width="1853"
     inkscape:pageshadow="2"
     inkscape:pageopacity="0"
     guidetolerance="10"
     gridtolerance="10"
     objecttolerance="10"
     borderopacity="1"
     bordercolor="#666666"
     pagecolor="#ffffff"
     inkscape:document-rotation="0" />
  <g
     id="g6">
    <path
       id="path2"
       d="m88 416c12.169 0 24.019-2.644 35-7.726v83.726h-80c-5.522 0-10 4.477-10 10s4.478 10 10 10h426c5.522 0 10-4.477 10-10s-4.478-10-10-10h-80v-83.726c10.981 5.082 22.831 7.726 35 7.726 47.701 0 88-38.925 88-85 0-36.747-26.697-70.415-63.29-81.338-2.12-23.123-15.727-43.791-35.901-54.957 4.106-11.051 6.191-22.682 6.191-34.705 0-8.248-1.011-16.444-3.005-24.363-1.35-5.356-6.787-8.605-12.139-7.256-5.355 1.348-8.604 6.783-7.256 12.139 1.592 6.324 2.4 12.877 2.4 19.48 0 9.581-1.651 18.843-4.902 27.64-4.936-1.087-9.985-1.64-15.098-1.64-36.464 0-66.505 28.022-69.716 63.664-17.195 5.134-32.203 15.292-43.284 28.431v-81.781l57.3-27.286c4.986-2.375 7.104-8.342 4.729-13.328-2.375-4.987-8.344-7.104-13.328-4.729l-48.701 23.191v-74.162c0-5.523-4.478-10-10-10s-10 4.477-10 10v44.162l-48.7-23.191c-4.988-2.373-10.954-.258-13.328 4.729-2.375 4.986-.258 10.954 4.729 13.328l57.3 27.286v111.781c-11.081-13.139-26.089-23.297-43.284-28.431-3.212-35.642-33.253-63.664-69.717-63.664-5.112 0-10.162.553-15.098 1.64-3.251-8.796-4.902-18.059-4.902-27.64 0-39.602 28.549-72.715 67.883-78.735 4.21-.644 7.55-3.884 8.322-8.073 5.495-29.827 34.835-53.192 66.795-53.192s61.3 23.365 66.795 53.192c.772 4.188 4.112 7.429 8.322 8.073 4.091.626 8.161 1.576 12.101 2.822 5.266 1.668 10.885-1.25 12.552-6.516 1.666-5.265-1.251-10.885-6.517-12.551-2.743-.868-5.536-1.621-8.357-2.252-10.069-36.229-45.347-62.768-84.896-62.768s-74.827 26.54-84.896 62.768c-45.224 10.143-78.104 50.134-78.104 97.232 0 12.023 2.085 23.654 6.19 34.704-20.172 11.166-33.781 31.834-35.9 54.958-36.593 10.923-63.29 44.591-63.29 81.338 0 46.075 40.299 85 88 85zm55-7.726c10.981 5.082 22.831 7.726 35 7.726 27.047 0 51.709-12.517 68-31.753v107.753h-103zm123 83.726v-107.753c16.291 19.236 40.953 31.753 68 31.753 12.169 0 24.019-2.644 35-7.726v83.726zm55.12-224.696c4.838-.972 8.761-5.45 7.882-11.751.242-27.365 22.578-49.553 49.998-49.553 27.619 0 49.754 22.371 49.998 49.553-.872 6.254 2.995 10.77 7.882 11.751 31.424 6.312 55.12 33.696 55.12 63.696 0 35.234-31.141 65-68 65-12.402 0-24.406-3.633-35-10.536v-33.284l54.472-27.236c4.94-2.47 6.942-8.477 4.473-13.417-2.471-4.94-8.481-6.943-13.416-4.472l-45.529 22.765c0-8.421 0-60.992 0-73.82 0-5.523-4.478-10-10-10s-10 4.477-10 10v35.857l-12.929-12.929c-3.906-3.904-10.236-3.904-14.143 0-3.905 3.905-3.905 10.237 0 14.143l27.072 27.072v65.321c-10.594 6.903-22.598 10.536-35 10.536-36.859 0-68-29.766-68-65 0-30 23.696-57.384 55.12-63.696zm-246 0c4.833-.971 8.762-5.44 7.882-11.751.244-27.183 22.356-49.553 49.998-49.553 27.42 0 49.756 22.188 49.998 49.553-.874 6.263 3.007 10.772 7.882 11.751 31.424 6.312 55.12 33.696 55.12 63.696 0 35.234-31.141 65-68 65-12.402 0-24.406-3.633-35-10.536v-5.321l27.071-27.071c3.905-3.905 3.905-10.237 0-14.143-3.906-3.904-10.236-3.904-14.143 0l-12.928 12.928v-65.857c0-5.523-4.478-10-10-10s-10 4.477-10 10v43.82l-45.528-22.764c-4.94-2.47-10.946-.468-13.416 4.472s-.468 10.947 4.473 13.417l54.471 27.235v33.283c-10.594 6.904-22.598 10.537-35 10.537-36.859 0-68-29.766-68-65 0-30 23.696-57.384 55.12-63.696z" />
    <circle
       id="circle4"
       r="10"
       cy="99"
       cx="384" />
  </g>
  <path
     id="path15"
     d="m 41.307598,511.45211 c -2.804015,-0.54921 -4.943876,-1.99758 -6.345131,-4.29473 -3.264413,-5.35151 -1.401657,-11.2639 4.375595,-13.88815 2.21338,-1.0054 4.830248,-1.07127 43.030959,-1.0833 l 40.674259,-0.0128 V 450.1868 c 0,-23.09248 -0.12438,-41.98633 -0.27639,-41.98633 -0.15202,0 -2.29493,0.80184 -4.76202,1.78188 -28.751805,11.42144 -63.0017,5.1446 -87.913833,-16.1116 C 15.474725,381.39942 4.6682073,362.68396 1.4950374,344.34624 0.33132412,337.62116 0.31495114,324.75221 1.4617415,318.17602 5.7898855,293.3566 21.951231,271.04094 45.186755,257.80032 c 4.69729,-2.67673 16.197765,-7.63176 17.713069,-7.63176 0.325242,0 0.761609,-1.24646 0.969692,-2.76993 2.757505,-20.18887 14.27309,-38.63893 30.867862,-49.45595 l 4.887331,-3.18572 -1.144489,-3.25628 c -9.499128,-27.02671 -5.522118,-59.74345 10.27795,-84.55117 13.32746,-20.925486 35.4391,-36.858401 60.16365,-43.35192 2.34871,-0.616849 2.47946,-0.777453 3.71656,-4.564935 3.80435,-11.647351 10.71698,-22.594688 20.35573,-32.236792 C 211.6576,8.1258774 235.91453,-1.0190084 262.26879,0.67923675 283.33688,2.036845 303.3956,11.214958 318.72364,26.510845 c 9.7034,9.683038 16.58343,20.420528 20.37026,31.791341 1.52839,4.589357 1.58565,4.665265 3.98465,5.282732 9.68958,2.493959 12.63899,5.108769 12.63899,11.205132 0,4.692947 -4.3646,9.182615 -8.92682,9.182615 -2.46881,0 -13.54866,-2.434198 -17.76203,-3.90225 -3.36812,-1.173542 -5.05474,-3.608213 -6.48069,-9.354969 -3.99672,-16.107404 -13.5084,-29.43019 -27.83371,-38.986004 -23.86341,-15.918281 -53.52589,-15.912252 -77.46419,0.01574 -14.66969,9.760875 -23.95264,23.159382 -28.30658,40.856181 -0.79642,3.237105 -2.55558,5.904223 -4.58721,6.95482 -0.94492,0.488639 -4.21739,1.429938 -7.27215,2.091777 -21.91645,4.74838 -38.95244,16.086707 -50.86004,33.84998 -12.85835,19.18157 -16.61485,41.90551 -10.75983,65.08882 0.93833,3.71534 1.82421,6.87334 1.96863,7.01776 0.14442,0.14442 2.31868,-0.0513 4.83169,-0.43501 25.44134,-3.8843 51.11236,6.6913 66.62814,27.44858 6.29398,8.4202 11.40371,20.53995 12.9234,30.65298 l 0.70993,4.72439 3.89277,1.25375 c 10.97214,3.53381 23.3909,11.29906 33.0774,20.68276 l 6.59031,6.38429 -0.008,-56.20597 -0.008,-56.20596 -28.94094,-13.70387 c -17.75782,-8.40854 -29.6749,-14.38539 -30.84039,-15.46756 -5.01971,-4.6609 -3.23575,-13.07429 3.32924,-15.70107 1.6011,-0.64064 3.14725,-0.84508 4.52153,-0.59786 1.14863,0.20662 13.24104,5.69249 26.87202,12.19082 l 24.7836,11.81513 0.29157,-23.38169 c 0.32092,-25.735439 0.2625,-25.326597 4.07823,-28.537321 5.06375,-4.260866 13.25926,-1.455188 15.09822,5.168774 0.4387,1.580203 0.64496,14.187427 0.64718,39.557217 0.002,29.55615 0.15362,37.17756 0.73218,36.94584 0.40091,-0.16058 11.8092,-5.56815 25.35175,-12.01683 26.02948,-12.3947 27.25148,-12.82345 31.00978,-10.87996 2.58843,1.33853 5.14709,4.65331 5.58288,7.23271 0.45445,2.68988 -0.99352,6.60307 -3.16072,8.54196 -0.71699,0.64145 -14.33504,7.37103 -30.26233,14.95462 l -28.95872,13.78833 -0.14972,41.25516 -0.14972,41.25516 6.59424,-6.38811 c 9.67985,-9.37725 22.10803,-17.15239 33.05078,-20.67673 l 3.8622,-1.2439 0.96654,-5.60895 c 4.95079,-28.72993 27.50699,-51.57926 56.23089,-56.96164 6.01859,-1.12778 16.7073,-1.25491 23.12517,-0.27505 2.51301,0.38368 4.68727,0.57943 4.83169,0.43501 0.80582,-0.80582 3.78227,-14.7759 4.34315,-20.38467 0.75622,-7.56236 0.40605,-13.7452 -1.30816,-23.09714 -1.45563,-7.94124 -1.08762,-9.9557 2.39319,-13.10041 3.02842,-2.73599 6.43873,-3.30875 10.08843,-1.69431 3.24528,1.43554 4.75168,3.51811 5.98358,8.27217 4.14906,16.01175 3.1224,37.76867 -2.54282,53.88723 l -1.13982,3.24299 4.96884,3.30614 c 16.84873,11.21076 28.01144,29.11423 30.77701,49.36211 0.20809,1.52347 0.64445,2.76993 0.9697,2.76993 0.32524,0 3.26442,1.04512 6.5315,2.32248 24.50652,9.58158 44.44671,30.57108 52.21833,54.96623 2.59801,8.15516 3.56712,14.59747 3.56499,23.69884 -0.002,9.37286 -1.05601,16.14838 -3.78845,24.3581 -15.53614,46.67892 -68.87602,72.24687 -113.63142,54.46813 -2.46709,-0.98004 -4.61,-1.78188 -4.76202,-1.78188 -0.15201,0 -0.27639,18.89385 -0.27639,41.98633 v 41.98633 l 40.67426,0.0128 c 38.20071,0.012 40.81758,0.0779 43.03096,1.08331 4.64986,2.11214 6.93183,6.65335 5.59143,11.12719 -0.83377,2.78291 -2.58137,5.01359 -4.93812,6.30315 -1.73758,0.95077 -14.16482,1.01352 -215.85739,1.08993 -117.70752,0.0446 -214.975135,-0.10723 -216.150262,-0.3374 z M 246.08656,438.23235 c 0,-29.66743 -0.10408,-53.94078 -0.23131,-53.94078 -0.12722,0 -2.16093,1.99706 -4.51936,4.43792 -15.2144,15.7461 -37.04002,25.57714 -59.56403,26.82974 -10.61424,0.59027 -24.02228,-1.64772 -33.8394,-5.6483 -2.30317,-0.93856 -4.3844,-1.70738 -4.62494,-1.70847 -0.24055,-10e-4 -0.43736,18.89185 -0.43736,41.98433 v 41.98633 h 51.6082 51.6082 z m 123.04328,11.95444 c 0,-23.09248 -0.19681,-41.98544 -0.43736,-41.98433 -0.24054,0.001 -2.32177,0.76991 -4.62494,1.70847 -9.81712,4.00058 -23.22516,6.23857 -33.8394,5.6483 -22.83226,-1.26975 -44.3904,-11.03724 -59.85008,-27.1167 -2.19503,-2.28303 -4.09753,-4.15096 -4.22779,-4.15096 -0.13026,0 -0.23683,24.27335 -0.23683,53.94078 v 53.94077 h 51.6082 51.6082 z M 98.551253,395.31256 c 5.889387,-0.89655 12.601737,-3.12769 18.660597,-6.20266 l 5.53986,-2.81157 0.15424,-17.18635 0.15424,-17.18635 -27.431343,-13.70314 c -15.087241,-7.53672 -28.078168,-14.30196 -28.868735,-15.03386 -3.57337,-3.30823 -4.224776,-9.05672 -1.465411,-12.93189 1.486468,-2.08754 5.231147,-4.07341 7.71917,-4.09359 0.906164,-0.007 11.780082,5.08026 25.523258,11.94163 13.169461,6.57495 24.070851,11.95445 24.225311,11.95445 0.15446,0 0.2823,-9.90615 0.28409,-22.01367 0.002,-13.3434 0.24048,-22.86782 0.60556,-24.18235 1.21716,-4.38258 5.05054,-7.45319 9.30463,-7.45319 4.07889,0 8.21759,3.11795 9.34178,7.03777 0.34371,1.19844 0.57166,15.36201 0.57166,35.51945 v 33.52618 l 7.43508,-7.39766 c 7.58078,-7.54263 9.17562,-8.62196 12.74006,-8.62196 7.00201,0 11.70103,7.59661 8.50337,13.74683 -0.65474,1.25929 -7.37525,8.45427 -14.93448,15.98884 l -13.74403,13.69922 v 2.94294 c 0,2.92713 0.0164,2.95287 3.0615,4.78829 17.40702,10.49216 41.92163,11.27381 61.42249,1.95846 20.2527,-9.67451 33.98772,-26.94869 37.89465,-47.65912 1.43642,-7.61436 0.91218,-19.6505 -1.16513,-26.75019 -3.2244,-11.02018 -8.952,-20.60732 -17.24504,-28.86561 -8.63565,-8.59945 -19.06376,-14.7098 -30.31927,-17.76559 -11.03424,-2.9957 -13.4123,-5.44968 -13.4123,-13.84046 0,-17.94163 -11.01773,-35.34862 -27.69932,-43.76232 -11.27979,-5.6892 -26.44805,-6.67596 -38.676,-2.51604 -19.867311,6.75881 -33.925362,26.07479 -33.925362,46.61397 0,8.14064 -2.354016,10.50651 -13.412301,13.47982 -3.046924,0.81925 -8.426423,2.92292 -11.954441,4.67483 -27.255939,13.53447 -42.096881,41.95367 -36.430148,69.7608 2.712263,13.30931 8.602783,23.72801 19.180438,33.92489 15.641527,15.07848 36.682996,21.71929 58.361327,18.4192 z m 243.048097,0.37666 c 7.34295,-0.61034 17.92334,-4.08878 24.46899,-8.04449 l 3.0615,-1.85015 v -32.97484 -32.97483 l -13.74403,-13.69922 c -7.55923,-7.53457 -14.2508,-14.67282 -14.87016,-15.86278 -3.78555,-7.27296 2.54493,-15.17376 10.90177,-13.60601 1.77417,0.33284 3.62437,1.82926 9.94603,8.04422 l 7.76639,7.63531 0.003,-18.324 c 0.002,-11.50196 0.24152,-19.18223 0.64325,-20.62921 1.23452,-4.44661 6.68644,-7.94769 10.84873,-6.96677 2.6676,0.62866 5.27223,2.48806 6.6986,4.78201 l 1.34123,2.15739 0.16571,38.34169 c 0.0911,21.08793 0.28312,38.34169 0.42662,38.34169 0.14351,0 11.0841,-5.40355 24.31243,-12.00789 22.4796,-11.22309 24.20486,-11.98366 26.39798,-11.63734 1.29055,0.20381 3.2895,0.99168 4.44211,1.75084 5.15715,3.39672 5.36011,11.45015 0.39,15.47469 -0.66726,0.54032 -13.50878,7.12573 -28.53669,14.63425 l -27.3235,13.65185 0.15424,17.18635 0.15424,17.18635 5.53986,2.81157 c 9.76957,4.95822 18.27878,6.95933 29.53537,6.9458 24.62207,-0.0296 47.05263,-12.91762 59.54862,-34.21515 8.37517,-14.27424 10.5459,-31.92328 5.88127,-47.81777 -6.21694,-21.18395 -25.27622,-39.56996 -47.14749,-45.48199 -11.16334,-3.01757 -13.38567,-5.22192 -13.40271,-13.2943 -0.0263,-12.44716 -5.31836,-25.14415 -14.2966,-34.30101 -10.62048,-10.83175 -23.38054,-15.72388 -38.95642,-14.93562 -18.26477,0.92433 -34.08632,11.46185 -42.0753,28.02311 -3.31995,6.88227 -4.43835,11.34576 -4.92603,19.65963 -0.31797,5.42046 -0.64016,7.12822 -1.65444,8.76936 -1.45387,2.35242 -4.67229,4.33407 -8.02335,4.94015 -1.28292,0.23203 -4.5631,1.20319 -7.28929,2.15814 -21.63325,7.5778 -37.84325,24.3629 -44.06545,45.62882 -2.07731,7.09969 -2.60155,19.13583 -1.16513,26.75019 5.42566,28.76113 31.12172,51.49557 60.97545,53.94765 3.04693,0.25027 6.58952,0.37676 7.87244,0.2811 1.28291,-0.0957 3.98303,-0.31112 6.00026,-0.47879 z"
     style="fill:#a0a0a0;stroke:none;stroke-width:0.583144" />
  <path
     id="path17"
     d="m 379.03735,107.15262 c -2.89525,-1.97049 -4.20781,-4.10866 -4.52062,-7.364107 -0.3806,-3.96101 1.67652,-7.59815 5.28556,-9.345259 3.18592,-1.542274 5.2095,-1.542274 8.39542,0 9.0751,4.393182 5.90069,18.021436 -4.19771,18.021436 -2.18724,0 -3.57323,-0.36644 -4.96265,-1.31207 z"
     style="fill:#f4d7d7;stroke:none;stroke-width:0.583144" />
  <path
     id="path19"
     d="m 39.304496,510.31506 c -3.216866,-1.4735 -5.050847,-4.17697 -5.34801,-7.88349 -0.30285,-3.77745 1.372739,-6.506 5.114972,-8.32928 2.596587,-1.2651 3.037523,-1.28229 43.297563,-1.68814 l 40.674259,-0.41004 v -41.57584 c 0,-22.86671 -0.21901,-41.71119 -0.48667,-41.87662 -0.26768,-0.16543 -3.48226,0.72269 -7.14351,1.9736 -9.21393,3.14805 -14.65673,4.16653 -24.151141,4.51925 C 75.30005,415.63749 61.521669,412.4266 46.726117,404.66591 25.390921,393.47499 9.7775392,374.01745 3.1331122,350.33988 1.8057832,345.60991 1.5782109,343.48942 1.3238142,333.481 0.99412777,320.51056 1.506316,316.72877 5.0253537,306.15034 9.1269318,293.82076 15.72344,283.43721 25.9539,273.20675 c 9.665888,-9.66589 18.943624,-15.74337 31.682558,-20.75401 3.039542,-1.19555 5.715687,-2.5266 5.946985,-2.95788 0.231298,-0.43129 0.730131,-2.62106 1.108509,-4.86616 3.07386,-18.23854 14.791412,-36.14989 30.345535,-46.38591 2.57403,-1.69394 4.680053,-3.38477 4.680053,-3.75739 0,-0.37261 -0.663408,-2.62594 -1.474234,-5.00741 -2.673019,-7.85083 -3.828465,-14.7909 -4.182462,-25.12149 -0.371463,-10.84025 0.263855,-17.82891 2.468965,-27.15917 7.966661,-33.70855 33.491501,-60.874295 67.333521,-71.662164 3.68838,-1.175751 7.00786,-2.428577 7.37662,-2.784055 0.36875,-0.355479 1.36911,-2.614437 2.223,-5.019904 6.56549,-18.495382 22.12452,-36.146093 40.99405,-46.505093 24.33224,-13.3579162 54.86847,-13.8435805 80.32204,-1.277484 9.10209,4.493579 16.64935,9.930189 23.89423,17.212007 9.2064,9.253343 16.03954,19.817469 19.86017,30.704098 0.86997,2.478909 1.8777,4.739639 2.23942,5.023846 0.36171,0.284212 2.49457,1.099179 4.73967,1.811045 7.49142,2.375342 9.62376,4.54056 9.61969,9.767998 -0.004,5.161328 -3.69165,8.920411 -8.74498,8.914433 -3.32315,-0.0041 -14.30949,-2.476692 -17.73394,-3.991489 -3.11608,-1.378393 -4.05341,-3.01393 -6.73159,-11.745921 C 315.5235,46.783707 299.9769,30.903566 278.61132,23.405048 271.21564,20.809441 264.55831,19.726337 256,19.726337 c -15.905,0 -29.51816,4.635383 -42.67637,14.531614 -11.71156,8.808229 -19.08008,19.673223 -23.80534,35.101365 -2.86065,9.340099 -3.04154,9.509018 -12.84383,11.993769 -23.44411,5.942781 -38.77484,16.251568 -50.81662,34.170465 -12.66299,18.84327 -16.38401,42.05876 -10.51152,65.58156 l 1.59166,6.37553 2.90686,-0.12418 c 19.20746,-0.82056 25.19114,-0.28497 35.27133,3.15703 12.65316,4.32058 25.37177,13.51332 33.24875,24.0315 6.04717,8.07481 11.28765,20.26169 13.02991,30.3014 0.46382,2.6728 1.06548,5.06266 1.337,5.3108 0.27153,0.24814 1.93696,0.91687 3.70097,1.48607 11.28552,3.64157 22.93845,11.1129 33.97101,21.78067 l 5.68855,5.50046 -0.14869,-56.75326 -0.14868,-56.75325 -20.99317,-9.99763 c -19.89757,-9.47586 -34.90293,-16.85447 -37.6376,-18.5076 -1.63624,-0.98912 -3.47401,-4.62427 -3.47401,-6.87165 0,-5.9114 6.61219,-10.79583 11.79902,-8.71593 3.59875,1.44308 16.50754,7.40812 33.20902,15.34559 9.19906,4.37191 16.87469,7.94893 17.05694,7.94893 0.18225,0 0.34922,-4.39544 0.37104,-9.76765 0.0218,-5.37221 0.23622,-16.13553 0.47645,-23.91849 0.39827,-12.902927 0.54092,-14.291397 1.6176,-15.744871 4.04072,-5.4548 11.13275,-5.637954 15.13793,-0.390939 l 1.68051,2.201576 0.51882,38.680344 c 0.28535,21.27419 0.72632,38.68035 0.97994,38.68035 0.25362,0 10.25432,-4.62529 22.22378,-10.27842 23.54126,-11.11844 28.36245,-13.15394 31.17026,-13.16 2.32462,-0.005 4.60187,1.48907 6.71436,4.40527 2.04447,2.82233 2.15169,5.58767 0.34225,8.82814 -1.20229,2.15315 -2.33417,2.84983 -14.71478,9.05713 -7.37677,3.69851 -20.82551,10.24188 -29.88611,14.54082 l -16.4738,7.81626 v 41.67483 41.67482 l 5.68565,-5.49765 c 11.11407,-10.74656 22.94898,-18.306 34.22363,-21.86002 3.83129,-1.2077 4.0361,-1.51586 4.99518,-7.51553 2.16575,-13.54822 10.18855,-28.21943 20.98597,-38.37687 14.92212,-14.03766 33.90039,-20.43798 54.8523,-18.49863 4.13038,0.38232 7.75967,0.54069 8.06508,0.35193 0.3054,-0.18875 1.09173,-2.63701 1.7474,-5.44056 3.08208,-13.17877 3.7119,-23.18113 2.10182,-33.37984 -1.71158,-10.84162 -1.73613,-12.87478 -0.18296,-15.14785 3.15283,-4.61417 7.91483,-5.9038 12.39721,-3.35736 3.21449,1.82616 4.75347,5.26934 6.23085,13.94042 1.04123,6.11117 1.18297,8.80629 0.94545,17.9771 -0.30097,11.62107 -1.50128,19.41231 -4.22379,27.4168 -0.80012,2.35247 -1.45477,4.57756 -1.45477,4.94463 0,0.36708 2.29613,2.2157 5.10251,4.10804 15.19431,10.24555 26.16197,26.7771 29.581,44.58747 1.31587,6.85461 1.52999,7.24255 4.46971,8.0979 4.53843,1.32051 17.58075,8.01098 22.52708,11.55598 19.15009,13.72475 31.90146,33.02615 35.97108,54.44845 1.3918,7.32642 1.26401,21.60417 -0.26032,29.08418 -5.96647,29.27797 -28.91767,54.56359 -58.50544,64.45614 -9.72795,3.25251 -14.96922,4.04455 -26.93118,4.06976 -12.63106,0.0267 -16.73332,-0.61945 -27.65,-4.35469 -3.66125,-1.25274 -6.87583,-2.14234 -7.14351,-1.97691 -0.26766,0.16543 -0.48667,19.00991 -0.48667,41.87662 v 41.57584 l 40.67426,0.41004 c 40.26004,0.40585 40.70097,0.42304 43.29756,1.68814 1.44282,0.70297 3.23749,2.19657 3.98816,3.31912 2.56729,3.83911 0.7299,10.5061 -3.57366,12.96711 -1.03036,0.58922 -44.38098,0.76527 -216.46832,0.87909 -209.426303,0.13851 -215.243872,0.11304 -217.570224,-0.95255 z m 206.639314,-72.2285 c 0.0818,-29.58724 -0.0128,-53.79499 -0.21026,-53.79499 -0.19749,0 -3.10081,2.6177 -6.45183,5.8171 -12.43988,11.87706 -26.91439,19.48613 -44.60292,23.44719 -5.08541,1.1388 -7.6789,1.35075 -16.52846,1.35075 -11.81623,0 -17.90753,-1.01708 -28.26552,-4.71953 -3.05624,-1.09245 -5.88482,-1.98636 -6.28573,-1.98645 -0.5764,-1.4e-4 -0.72893,8.78639 -0.72893,41.98932 v 41.98951 l 51.46241,-0.14896 51.46242,-0.14895 z m 123.18603,12.10023 c 0,-34.20301 -0.14146,-41.98633 -0.7631,-41.98633 -0.4197,0 -2.97824,0.81226 -5.68565,1.80501 -15.94116,5.84536 -33.015,6.72654 -49.54892,2.55721 -15.39582,-3.88234 -28.99126,-11.45102 -40.5697,-22.58546 -3.25181,-3.12711 -6.07813,-5.68565 -6.28071,-5.68565 -0.49491,0 -0.47456,106.99778 0.0205,107.49279 0.21379,0.21382 23.43748,0.38876 51.60817,0.38876 h 51.21944 z M 95.440544,395.91421 c 7.263876,-0.80997 14.016066,-2.80011 21.537516,-6.34797 l 6.06522,-2.86095 v -16.61247 c 0,-9.13686 0.127,-16.96195 0.28224,-17.38909 0.19441,-0.53498 -7.75934,-4.83169 -25.56298,-13.80941 -28.968494,-14.60775 -30.844274,-15.6664 -32.463127,-18.32149 -1.532006,-2.51263 -1.535831,-7.08234 -0.008,-9.58803 1.260249,-2.06689 4.995074,-4.25131 7.268698,-4.25131 1.645899,0 15.568392,6.44192 35.753979,16.54333 7.45427,3.73033 13.78077,6.78241 14.05889,6.78241 0.27811,0 0.73952,-10.58352 1.02536,-23.51894 l 0.51969,-23.51893 1.63379,-2.14 c 4.17879,-5.47351 11.41547,-5.19515 15.31344,0.58905 1.18875,1.764 1.24312,2.68311 1.61752,27.34377 0.21308,14.03513 0.38742,29.71867 0.38742,34.85232 v 9.33391 l 7.43508,-7.2941 c 4.08929,-4.01176 8.04912,-7.6209 8.79962,-8.02033 1.89739,-1.00982 6.02821,-0.90704 8.17559,0.20342 4.37279,2.26125 6.0808,8.3436 3.52177,12.54129 -0.6714,1.10135 -7.23079,8.07599 -14.5764,15.49921 l -13.35565,13.49676 v 3.26746 c 0,2.90128 0.17972,3.39434 1.60364,4.3996 4.49964,3.17664 17.25745,8.08302 19.49583,7.49767 0.55223,-0.14441 1.08225,-0.0324 1.17781,0.24889 0.2835,0.83454 11.46389,1.78422 16.50176,1.40168 9.99167,-0.75869 19.47435,-3.17925 26.8246,-6.84726 19.11002,-9.53651 32.65217,-26.49963 36.76531,-46.05281 1.08806,-5.17243 1.10348,-18.25749 0.0281,-23.87373 -2.44698,-12.78003 -9.07631,-24.4859 -19.51494,-34.4589 -8.46931,-8.09153 -16.53052,-12.70719 -29.42042,-16.84545 -7.35456,-2.36115 -10.19046,-3.96008 -11.60144,-6.54106 -0.77314,-1.41424 -1.4946,-6.30211 -1.8198,-12.3289 -0.13603,-2.52109 -0.89235,-6.02697 -1.97788,-9.16836 -5.48025,-15.85913 -18.06706,-28.09716 -33.49739,-32.5692 -5.88992,-1.70703 -18.72937,-2.12392 -25.19838,-0.81818 -12.79045,2.5817 -24.326786,10.61914 -31.786236,22.14572 -4.883745,7.54652 -6.983435,14.47709 -8.112966,26.77901 -0.524246,5.70971 -0.561113,5.81371 -2.801258,7.90251 -1.741413,1.62377 -3.695853,2.56908 -8.393027,4.05948 -13.574814,4.30726 -22.529736,9.32521 -30.977608,17.3585 -11.745229,11.16886 -19.466041,26.47214 -20.0938,39.8276 -0.128142,2.7262 -0.266808,5.08793 -0.308148,5.2483 -0.04134,0.16036 -0.0469,0.47996 -0.01234,0.71021 0.03455,0.23025 0.175483,2.8544 0.313186,5.83143 0.640099,13.83847 7.235299,27.77881 18.451512,39.00115 10.661839,10.66766 24.058428,17.74525 37.292374,19.70205 2.405467,0.35569 5.029613,0.74299 5.831435,0.86069 3.049392,0.44762 8.412446,0.35025 13.800453,-0.25055 z m 246.086556,0 c 7.52387,-0.83896 14.43296,-2.89752 21.62552,-6.44331 l 5.97722,-2.94665 v -33.574 -33.574 l -13.9983,-14.16337 c -7.69906,-7.78985 -14.25943,-14.85019 -14.57859,-15.68964 -2.40323,-6.32097 1.97829,-12.53007 8.84196,-12.53007 3.27267,0 3.94479,0.48694 13.10133,9.49174 l 6.48714,6.37963 0.43194,-19.1612 c 0.4969,-22.04299 0.61397,-22.6516 4.87714,-25.35523 1.60414,-1.01731 3.44277,-1.67841 4.66797,-1.67841 2.63949,0 6.66201,2.39238 8.19611,4.87461 1.17783,1.90576 1.21707,2.68097 1.21817,24.05983 0.001,27.57322 0.61688,54.45509 1.24677,54.45509 0.26246,0 8.55192,-4.02382 18.42103,-8.94183 21.68148,-10.80438 29.43327,-14.38391 31.14961,-14.38391 2.22129,0 6.23125,2.32748 7.47382,4.33799 1.41918,2.29629 1.57951,6.62622 0.33451,9.0338 -0.46958,0.90806 -1.60352,2.2727 -2.51988,3.03255 -0.91636,0.75984 -13.9198,7.54827 -28.89653,15.0854 -23.93854,12.04721 -27.19494,13.84487 -26.93684,14.87016 0.16148,0.64146 0.29718,8.46441 0.30156,17.38433 l 0.008,16.21803 5.97722,2.84727 c 11.61171,5.53128 22.80131,7.58365 35.1043,6.43874 17.34108,-1.61375 31.28535,-8.09592 43.21204,-20.08766 8.55449,-8.60113 14.21031,-18.20344 17.31948,-29.40456 1.0668,-3.84324 1.24262,-6.04192 1.24388,-15.5556 0.001,-10.3838 -0.0974,-11.40146 -1.57215,-16.20211 -3.47761,-11.32003 -8.75735,-20.03426 -17.23303,-28.44318 -9.15394,-9.08184 -16.61674,-13.55528 -29.7516,-17.83407 -12.58039,-4.09816 -13.00016,-4.57156 -13.96855,-15.7533 -0.44625,-5.15261 -1.12036,-8.6163 -2.46772,-12.6796 -5.13889,-15.49756 -17.95981,-28.00053 -33.29865,-32.47286 -5.92473,-1.72747 -18.6808,-2.13427 -25.25101,-0.80527 -9.92316,2.00723 -18.82799,7.0333 -25.96569,14.65557 -7.89763,8.43381 -12.28977,18.1628 -13.38278,29.64416 -0.87881,9.23117 -1.07026,10.02144 -2.94528,12.15696 -1.92094,2.18784 -3.92177,3.12769 -11.37126,5.34142 -11.08119,3.29295 -20.04248,8.51385 -28.44911,16.5746 -5.86716,5.62578 -9.76939,10.65691 -13.19958,17.0182 -5.09904,9.45616 -7.04379,17.64258 -7.04379,29.65072 0,8.99624 1.24971,15.34636 4.60756,23.41228 5.57943,13.40238 17.71779,26.32017 31.26658,33.27425 13.13078,6.73953 25.41377,9.03992 39.73952,7.4425 z"
     style="fill:#e3dedb;stroke-width:0.583144" />
  <path
     id="path21"
     d="m 41.428727,510.41431 c -4.312275,-0.54682 -7.02326,-3.95798 -7.02326,-8.83719 0,-2.24134 0.330602,-3.29284 1.455687,-4.62992 3.11976,-3.70763 2.651463,-3.66245 43.735946,-4.21921 20.52775,-0.27819 38.70522,-0.51684 40.3944,-0.53033 l 3.07122,-0.0245 -0.0344,-41.98633 c -0.0189,-23.09249 -0.25977,-41.98634 -0.53524,-41.98634 -0.27548,0 -3.82089,1.03578 -7.87869,2.30174 -11.32757,3.53399 -17.13967,4.31403 -29.371461,3.94198 -14.508739,-0.44131 -22.941606,-2.52056 -35.59426,-8.7763 -17.924012,-8.862 -31.44038,-22.28856 -40.0111943,-39.74531 -6.5594726,-13.36011 -7.8771134,-19.23642 -7.883689,-35.15898 -0.00486,-11.77704 0.6195679,-16.05298 3.5802478,-24.51658 4.291299,-12.2674 10.8087485,-22.51298 20.6158025,-32.4085 9.345776,-9.4301 17.805366,-15.16201 30.011838,-20.33497 3.698726,-1.56748 7.017897,-3.09307 7.375942,-3.39022 0.358038,-0.29715 1.098345,-2.7929 1.645129,-5.54611 3.641002,-18.33358 13.21977,-33.37905 28.463106,-44.70733 3.796545,-2.82144 6.271639,-5.06241 6.271639,-5.67838 0,-0.55965 -0.778981,-3.54817 -1.731062,-6.64117 -2.847723,-9.25127 -3.691765,-16.90056 -3.350637,-30.36561 0.224574,-8.86425 0.589418,-12.99157 1.513251,-17.1187 6.160718,-27.52234 22.687198,-50.454927 46.612588,-64.68087 6.09754,-3.625573 12.48098,-6.521364 20.78535,-9.429081 3.83516,-1.342857 7.28821,-2.70315 7.67347,-3.022882 0.38525,-0.319732 1.81037,-3.342957 3.16693,-6.718289 8.49389,-21.134079 27.20186,-39.886832 48.44928,-48.5652508 18.89731,-7.71853101 40.35348,-8.46799841 60.11854,-2.0999501 24.54738,7.9088529 45.52423,27.4845829 54.73026,51.0746109 l 2.4637,6.313113 5.59737,2.166238 c 7.86246,3.042843 9.31563,4.810532 8.80857,10.715017 -0.36712,4.274967 -3.76707,6.992573 -8.75105,6.994789 -3.48639,0.0017 -14.14799,-2.377015 -17.24761,-3.847878 -2.62822,-1.247175 -3.1863,-2.254888 -6.56896,-11.861548 -4.54537,-12.908746 -9.46054,-20.651805 -18.38967,-28.969967 -22.04782,-20.539211 -55.44608,-24.551843 -81.77944,-9.825388 -5.4951,3.073033 -12.29112,8.365321 -16.90733,13.166302 -6.98201,7.261468 -11.45989,15.138377 -15.37994,27.054396 -1.05512,3.207289 -2.28155,6.550498 -2.7254,7.429359 -1.02433,2.028249 -4.01243,3.550545 -9.94011,5.064013 -11.61553,2.96571 -22.15992,7.473369 -30.49199,13.035117 -6.0157,4.015556 -15.87553,14.084579 -20.30299,20.733759 -8.92295,13.40052 -12.77004,25.36974 -13.34707,41.52591 -0.35759,10.01198 0.18039,15.46179 2.47268,25.04852 l 1.47583,6.17222 13.24482,-0.007 c 14.8341,-0.008 18.79817,0.63103 28.29921,4.564 12.49032,5.17039 24.89521,15.02597 31.5159,25.03913 5.10506,7.7209 9.38208,18.01848 11.23732,27.05553 1.2139,5.91304 1.45129,6.28868 4.72787,7.48115 12.86773,4.68307 23.70885,11.6552 34.68677,22.3077 l 5.70257,5.53353 V 222.3658 165.22925 l -13.26651,-6.32 c -34.31253,-16.34606 -45.96149,-22.27235 -47.05252,-23.93749 -1.41676,-2.16225 -1.83781,-6.19174 -0.88688,-8.4875 1.08675,-2.62365 4.86481,-5.18996 7.64055,-5.18996 2.53663,0 4.82912,0.98841 32.9882,14.22289 10.6525,5.00658 19.60033,9.10286 19.88405,9.10286 0.69569,0 1.27028,-10.12805 1.30366,-22.9791 0.0151,-5.80341 0.23943,-13.90562 0.49857,-18.00491 0.42408,-6.708423 0.61074,-7.602667 1.86781,-8.948347 2.00159,-2.142673 4.19525,-3.133702 6.93651,-3.133702 2.98611,0 5.35056,1.194727 7.21179,3.644034 l 1.44064,1.895829 0.66735,38.165416 c 0.36704,20.99098 0.80406,38.38661 0.97115,38.65698 0.46466,0.75183 1.50445,0.315 21.19882,-8.90579 30.7641,-14.40358 32.52583,-15.01335 35.98058,-12.45373 5.06435,3.75219 5.69151,9.94736 1.36736,13.50701 -1.14524,0.94277 -32.91628,16.84875 -47.69874,23.8801 l -11.22551,5.33946 v 42.10953 42.10953 l 5.70257,-5.53353 c 9.55166,-9.26852 20.85412,-16.96106 30.16076,-20.52765 2.2451,-0.8604 4.92107,-1.93779 5.94661,-2.39422 2.00906,-0.89416 2.00938,-0.89494 4.14987,-10.23723 5.24008,-22.87048 23.15403,-42.65797 45.32712,-50.06768 8.84264,-2.95499 15.29812,-3.73255 27.44691,-3.30596 l 10.56072,0.37082 0.94344,-3.37019 c 3.15299,-11.26326 4.13379,-26.41052 2.42715,-37.4841 -1.3015,-8.44477 -1.16743,-11.46059 0.61328,-13.79522 1.91806,-2.5147 4.25768,-3.69908 7.30715,-3.69908 7.42737,0 10.35878,7.11458 10.86821,26.3774 0.38729,14.6442 -0.46006,22.15039 -3.69094,32.69598 -0.76661,2.50221 -1.39383,5.02609 -1.39383,5.60862 0,0.66888 2.31097,2.77659 6.27164,5.72 15.07768,11.20518 23.78242,24.67069 28.12513,43.50727 0.6534,2.83415 1.44641,5.63585 1.76226,6.226 0.31583,0.59015 2.00849,1.60962 3.76145,2.26549 4.62087,1.72888 14.54336,6.78896 19.26859,9.82621 19.40702,12.4743 34.45566,34.56008 38.24434,56.12838 1.09424,6.22934 0.91112,22.37212 -0.32084,28.28246 -6.20006,29.74497 -29.22268,54.8528 -59.31416,64.68637 -9.47687,3.09693 -12.79505,3.5415 -26.42711,3.54071 -13.40645,-5.8e-4 -14.56603,-0.16972 -26.30737,-3.83279 -4.03624,-1.25922 -7.56104,-2.2895 -7.83288,-2.2895 -0.27184,0 -0.51402,18.89385 -0.53816,41.98633 l -0.0439,41.98633 3.07415,0.0246 c 1.69078,0.0135 19.9353,0.25299 40.54337,0.53221 36.75532,0.498 37.51912,0.53184 40.08884,1.77581 3.5695,1.72798 4.95674,3.63207 4.95674,6.80354 0,3.16151 -1.10318,5.85958 -3.17904,7.77506 l -1.57993,1.45786 -214.69569,0.0639 c -118.08262,0.0351 -215.602638,-0.0512 -216.711143,-0.19171 z M 246.08656,438.23235 c 0,-29.66743 -0.22061,-53.94078 -0.49025,-53.94078 -0.26964,0 -3.2218,2.51319 -6.56036,5.58487 -10.8316,9.96571 -21.48857,16.26442 -35.05617,20.71962 -10.77014,3.53659 -15.76305,4.20955 -28.45358,3.83504 -11.543,-0.34064 -15.11664,-0.96886 -25.33035,-4.45283 -2.86654,-0.9778 -5.6875,-1.77781 -6.2688,-1.77781 -1.01064,0 -1.05689,1.83731 -1.05689,41.98633 v 41.98633 h 51.6082 51.6082 z m 123.04328,11.95444 c 0,-38.05431 -0.0872,-41.98633 -0.93067,-41.98633 -0.51186,0 -4.25127,1.04639 -8.30979,2.32531 -9.91263,3.12367 -16.06135,4.08926 -26.03972,4.08926 -23.30012,0 -42.70469,-7.97983 -61.45779,-25.27358 -3.01181,-2.77743 -5.70156,-5.04988 -5.97722,-5.04988 -0.27591,0 -0.50121,24.24786 -0.50121,53.94078 v 53.94077 h 51.6082 51.6082 z M 98.647559,395.68062 c 6.626401,-1.15555 11.916701,-2.84916 18.623421,-5.96201 l 5.60763,-2.60272 0.42252,-17.13406 c 0.23239,-9.42373 0.25947,-17.39788 0.0602,-17.72031 -0.45615,-0.73806 -6.99048,-4.20804 -32.955029,-17.50037 -20.776266,-10.63624 -23.959985,-12.496 -25.12805,-14.67856 -0.820501,-1.53312 -0.816168,-7.09574 0.0067,-8.63333 0.984095,-1.8388 4.754806,-4.13263 6.793412,-4.13263 2.321202,0 9.454931,3.16163 31.698327,14.04856 9.7697,4.78172 18.05738,8.69404 18.41709,8.69404 0.39832,0 0.65975,-1.19687 0.6687,-3.06151 0.008,-1.68382 0.33716,-12.24601 0.73127,-23.47152 l 0.71655,-20.41003 1.49002,-1.96451 c 0.81952,-1.08049 2.67318,-2.48789 4.11926,-3.12755 2.22129,-0.98258 2.96532,-1.06235 4.79523,-0.5141 1.19129,0.35692 2.88936,1.21795 3.77347,1.9134 3.28195,2.58157 3.27182,2.47685 3.82021,39.50978 0.27822,18.78811 0.51841,34.2598 0.53376,34.38154 0.0153,0.12173 3.6683,-3.31979 8.11768,-7.64783 8.7682,-8.52908 10.08228,-9.25753 14.53637,-8.05816 4.75261,1.27974 7.29791,6.90118 5.39314,11.9111 -0.30511,0.8025 -6.73427,7.73853 -14.28702,15.41341 l -13.73227,13.95433 v 3.47506 c 0,4.24465 0.74513,5.09102 7.01007,7.96236 7.9837,3.65909 15.94087,5.60061 24.77125,6.0441 21.91208,1.10049 42.82521,-8.00666 56.85659,-24.75963 6.83678,-8.16287 10.90481,-16.0883 13.42835,-26.1614 1.1455,-4.57244 1.245,-6.15982 0.99789,-15.91951 -0.22483,-8.87914 -0.50538,-11.62489 -1.55055,-15.17498 -2.93977,-9.9854 -8.86342,-19.85629 -16.57077,-27.61277 -9.04525,-9.1029 -15.84421,-13.24203 -30.40673,-18.51129 -8.49019,-3.07206 -11.66124,-4.93578 -12.60024,-7.40556 -0.30865,-0.8118 -0.93564,-4.78784 -1.39331,-8.83563 -0.97192,-8.59602 -1.91448,-12.05718 -5.02827,-18.46415 -5.83885,-12.01413 -17.33612,-21.96548 -29.97442,-25.94408 -6.2369,-1.96341 -20.85118,-2.31125 -27.75578,-0.66063 -9.68775,2.31598 -16.78699,6.48516 -24.20311,14.21381 -9.190663,9.57797 -12.905363,18.6826 -14.527919,35.60759 -0.289624,3.02106 -0.725943,4.36106 -1.858128,5.70659 -1.873185,2.22616 -2.982721,2.78289 -11.545717,5.7933 -19.099639,6.71469 -31.815882,16.71188 -40.802772,32.07815 -5.833281,9.97405 -7.981589,18.23434 -7.962256,30.61503 0.01481,9.48123 0.904947,14.82228 3.718778,22.31354 6.542692,17.41861 23.686239,33.56549 42.209636,39.75571 10.151788,3.39257 22.917977,4.42944 32.964811,2.67743 z m 246.086561,0 c 6.64668,-1.15909 11.91938,-2.8504 18.70576,-6.00022 l 5.68996,-2.64094 V 352.93678 318.8341 l -13.97183,-14.21362 c -15.7196,-15.99165 -16.18194,-16.68552 -14.33687,-21.51676 1.31131,-3.43362 4.31975,-5.54496 8.00641,-5.61896 1.43853,-0.0289 3.24924,0.2854 4.02382,0.69839 0.77457,0.41298 4.62277,3.90064 8.55155,7.75035 3.92878,3.8497 7.28788,6.85483 7.46466,6.67804 0.17678,-0.17678 0.57272,-8.5523 0.87986,-18.61227 0.55569,-18.20046 0.92175,-21.88071 2.34721,-23.59829 1.20017,-1.44611 4.99546,-3.14813 7.01995,-3.14813 2.48985,0 6.70045,2.53669 7.82715,4.7155 0.77685,1.50224 0.98237,7.21972 1.42983,39.77687 0.28741,20.91234 0.53665,38.08804 0.55385,38.16822 0.14264,0.66468 4.19071,-1.15811 22.36296,-10.06973 28.19072,-13.82466 27.69882,-13.6523 32.02423,-11.22128 2.94596,1.65572 3.95845,3.62844 3.95845,7.71253 0,5.28851 -0.28357,5.48321 -30.61503,21.02008 -14.75353,7.55729 -27.18331,14.0989 -27.62174,14.5369 -0.6579,0.65727 -0.72203,3.80078 -0.36715,17.99685 l 0.42999,17.20048 4.44915,2.06896 c 10.53514,4.89907 17.14618,6.66369 26.90018,7.18017 20.67332,1.09467 39.64337,-6.44413 53.98057,-21.45216 7.53814,-7.89086 12.34835,-15.87656 15.76142,-26.16642 1.59442,-4.80694 1.64485,-5.3356 1.6686,-17.49431 l 0.0245,-12.53758 -1.90924,-5.5834 c -3.97028,-11.61071 -8.7201,-18.98474 -18.02745,-27.98738 -8.96222,-8.66883 -14.50982,-11.95674 -28.46422,-16.87002 -8.02284,-2.8248 -8.827,-3.19179 -10.70424,-4.88492 -1.92312,-1.73452 -2.25934,-2.87296 -3.26997,-11.07198 -0.99075,-8.03779 -2.48386,-13.49814 -5.1247,-18.74126 -6.33887,-12.58514 -17.03266,-21.86918 -29.88515,-25.94541 -5.20946,-1.6522 -19.21827,-2.30246 -25.57968,-1.18735 -12.55661,2.20108 -24.6476,10.30539 -32.10059,21.51628 -4.96847,7.47366 -7.29291,14.52738 -8.46797,25.69687 -1.00652,9.56748 -2.11785,10.74275 -13.85793,14.65515 -9.18257,3.06011 -15.13585,6.02015 -21.30987,10.59554 -9.65324,7.15372 -17.41375,16.42805 -22.08161,26.38902 -3.73658,7.97364 -4.71314,12.57528 -5.03641,23.73197 -0.39254,13.54726 0.75853,19.28314 6.00507,29.92379 8.98388,18.22048 28.81983,33.01629 49.21611,36.71075 5.92618,1.07344 17.4265,1.09552 23.45042,0.045 z"
     style="fill:#e3dedb;stroke-width:0.583144" />
  <path
     id="path23"
     d="m 41.428727,510.41431 c -4.312275,-0.54682 -7.02326,-3.95798 -7.02326,-8.83719 0,-3.58145 1.791191,-5.99201 5.410661,-7.2816 3.06291,-1.09128 13.392593,-1.50103 42.115535,-1.67058 11.86697,-0.07 25.997117,-0.21284 31.400337,-0.31729 l 9.82402,-0.18993 -0.20215,-41.61861 c -0.11119,-22.89023 -0.36057,-41.77695 -0.55418,-41.97047 -0.19361,-0.19354 -3.34258,0.58805 -6.99772,1.73686 -11.18923,3.51676 -13.03268,3.83553 -24.15,4.17598 -15.218821,0.46606 -25.130482,-1.33616 -37.65496,-6.84673 C 28.974329,396.76116 11.648744,377.22593 3.7087855,351.34396 2.1381946,346.22429 2.0980299,345.7384 2.0698698,331.51708 2.043047,317.97116 2.1363807,316.60902 3.3875075,312.28712 8.5587839,294.42343 17.780293,280.10364 31.687744,268.34057 39.955262,261.34782 44.444047,258.6633 58.947009,252.0382 l 5.006229,-2.28689 1.009532,-5.0833 c 3.671489,-18.48708 13.39757,-33.73196 28.858145,-45.23293 3.23363,-2.40547 5.879836,-4.7672 5.880454,-5.24829 5.83e-4,-0.4811 -0.539921,-2.58041 -1.201194,-4.66515 -2.924698,-9.22043 -3.522828,-13.29904 -3.848327,-26.24146 -0.275279,-10.94535 -0.162808,-13.43034 0.885585,-19.5673 3.528461,-20.65443 13.682047,-39.77651 28.819837,-54.275939 11.38625,-10.906089 22.80775,-17.761332 39.21448,-23.536739 3.84875,-1.354811 7.30181,-2.709687 7.67346,-3.010828 0.37166,-0.301147 1.78566,-3.309164 3.14222,-6.684496 4.26863,-10.620997 10.74854,-20.279473 19.42999,-28.960926 17.82447,-17.8244734 40.63082,-26.90328047 65.0983,-25.9144947 13.49523,0.5453729 23.95131,3.2572769 36.44647,9.4528167 18.87041,9.356615 34.13782,25.682183 41.95449,44.862282 1.38311,3.393797 2.82913,6.549349 3.21338,7.012354 0.38426,0.462998 2.05613,1.286105 3.71527,1.829123 4.59534,1.504008 8.43417,3.596106 9.45371,5.152113 0.512,0.781407 0.92809,2.679661 0.94057,4.290951 0.044,5.677001 -3.13686,8.871817 -8.83551,8.874348 -3.48639,0.0017 -14.14799,-2.377015 -17.24761,-3.847878 -2.60087,-1.234194 -3.41453,-2.636777 -6.15541,-10.610687 -4.09029,-11.899694 -8.49674,-19.563475 -15.54327,-27.033179 -10.03074,-10.633108 -24.66625,-18.44935 -39.19494,-20.932456 -6.10166,-1.042838 -18.44547,-0.920001 -24.54687,0.244274 -13.21965,2.522589 -25.26972,8.690435 -35.37257,18.105499 -8.51244,7.932922 -13.63433,16.347515 -18.31028,30.081391 -1.36488,4.008826 -3.02978,7.836959 -3.69979,8.506962 -1.40184,1.401842 -3.65909,2.259576 -13.50964,5.133517 -17.61559,5.139425 -29.60001,12.490479 -40.02891,24.553102 -12.62207,14.59937 -18.67438,29.84251 -19.45033,48.9869 -0.39584,9.76621 0.19018,15.73592 2.50543,25.52272 l 1.4854,6.27898 9.42278,-0.36822 c 18.96784,-0.74123 31.13123,2.36165 44.89007,11.45146 6.18954,4.08914 14.79656,12.44918 18.45076,17.92132 5.47603,8.20031 9.97073,19.08029 11.66658,28.2404 0.3979,2.14923 1.02418,4.29587 1.39174,4.77031 0.36755,0.47442 3.29242,1.89637 6.49971,3.15987 10.90636,4.29653 20.97365,11.01181 30.9638,20.65411 2.91802,2.81642 5.47656,5.12076 5.68565,5.12076 0.20909,0 0.38016,-25.53856 0.38016,-56.75235 v -56.75234 l -11.51708,-5.46148 c -6.3344,-3.00382 -19.67807,-9.45061 -29.65261,-14.32619 -15.86678,-7.75575 -18.29239,-9.11854 -19.38952,-10.89374 -2.47554,-4.00551 -1.32551,-9.06753 2.67812,-11.78807 4.24459,-2.88427 3.94219,-2.99073 41.17774,14.49622 8.61362,4.04522 15.8553,7.35494 16.09262,7.35494 0.58453,0 1.1857,-11.93222 1.23122,-24.4378 0.0205,-5.64258 0.24578,-13.35173 0.50053,-17.13145 0.41059,-6.091693 0.62159,-7.041768 1.85788,-8.365194 1.99966,-2.140627 4.19407,-3.131615 6.93454,-3.131615 2.98443,0 5.34798,1.193391 7.21713,3.644034 l 1.44598,1.895829 0.66589,38.195896 c 0.36623,21.00775 0.86351,38.39874 1.10506,38.64664 0.56543,0.58033 1.56226,0.1526 23.09669,-9.9105 28.83979,-13.4769 30.18912,-13.94802 33.51987,-11.70342 4.51118,3.04007 5.9242,7.92622 3.44994,11.92964 -1.05632,1.70918 -3.86201,3.29648 -20.26423,11.46434 -10.47099,5.21427 -23.82722,11.75695 -29.68052,14.53929 l -10.64237,5.05881 v 41.71425 c 0,22.94284 0.17107,41.71426 0.38016,41.71426 0.20909,0 2.76763,-2.30434 5.68565,-5.12076 11.1481,-10.75993 21.03119,-17.08131 34.32353,-21.95387 1.52713,-0.55979 3.00749,-1.45418 3.2897,-1.98754 0.28221,-0.53335 0.96586,-3.20025 1.51921,-5.92644 5.21661,-25.70074 24.31341,-46.77649 48.81889,-53.87791 7.9638,-2.30781 14.03345,-2.89398 25.32399,-2.4456 l 10.00173,0.39719 1.48442,-6.29652 c 2.88297,-12.22873 3.4674,-23.08969 1.84502,-34.28741 -1.29158,-8.91455 -1.16918,-11.75925 0.60613,-14.0868 1.91806,-2.5147 4.25768,-3.69908 7.30715,-3.69908 4.89193,0 7.6054,3.12946 9.60695,11.07973 1.27342,5.05806 1.79001,23.50759 0.89703,32.03611 -0.61846,5.90661 -1.26437,8.94256 -3.93538,18.4973 l -1.00368,3.59036 1.71291,1.43507 c 0.94209,0.78929 3.83789,3.03371 6.43509,4.98761 8.34374,6.27707 15.44498,14.86954 20.32445,24.5925 2.81106,5.60139 4.40306,10.17143 6.1946,17.78247 0.67903,2.88468 1.45957,5.66526 1.73455,6.17906 0.27497,0.5138 1.7588,1.40182 3.29739,1.97338 5.47957,2.03555 19.19792,9.40048 23.78924,12.77163 5.96863,4.38244 15.36561,13.9327 19.71845,20.04009 6.65305,9.33475 11.94417,21.18214 14.13092,31.64061 1.26335,6.04221 1.42807,21.96565 0.29558,28.57403 -1.80072,10.5077 -7.50051,23.69227 -14.4265,33.37094 -1.86399,2.60482 -6.02368,7.38019 -9.24375,10.61193 -11.81686,11.85968 -25.43964,19.6359 -42.22836,24.10498 -5.15043,1.37102 -6.56792,1.48602 -18.97846,1.53974 -14.72335,0.0637 -15.51865,-0.0457 -27.50381,-3.78484 -4.05284,-1.26441 -7.5261,-2.14171 -7.71837,-1.94957 -0.19227,0.19215 -0.43858,19.07779 -0.54737,41.96808 l -0.19779,41.61872 9.81966,0.1899 c 5.40081,0.10443 19.529,0.2472 31.39597,0.31725 39.08774,0.23073 42.92956,0.58945 46.05175,4.29997 2.58335,3.07014 1.75692,8.96529 -1.7046,12.15937 l -1.57993,1.45786 -214.69569,0.0639 c -118.08262,0.0351 -215.602638,-0.0511 -216.711143,-0.1917 z M 246.08656,438.23235 c 0,-29.66743 -0.19681,-53.93734 -0.43736,-53.93313 -0.24054,0.004 -2.93029,2.27461 -5.97722,5.04534 -12.33089,11.21313 -22.29707,17.0784 -36.89924,21.71587 -9.68924,3.07717 -14.99624,3.73281 -27.24654,3.36608 -11.62912,-0.34813 -14.0752,-0.77342 -24.9568,-4.33908 -5.645,-1.84975 -6.66603,-2.03492 -7.13458,-1.29389 -0.32678,0.51681 -0.5504,17.46548 -0.55573,42.12218 l -0.009,41.2574 h 51.6082 51.6082 z m 123.03435,12.68337 c -0.005,-24.07304 -0.23224,-41.61041 -0.54507,-42.10493 -0.45332,-0.7166 -1.73557,-0.46803 -8.30086,1.60913 -11.51118,3.64198 -16.83501,4.37911 -29.04947,4.02217 -11.80212,-0.3449 -18.60943,-1.67557 -28.64575,-5.59957 -10.98585,-4.29525 -19.6917,-9.90761 -30.25174,-19.50225 -3.04693,-2.76837 -5.73668,-5.03684 -5.97722,-5.04105 -0.24055,-0.004 -0.43736,24.2657 -0.43736,53.93313 v 53.94077 h 51.6082 51.6082 l -0.009,-41.2574 z M 103.79954,394.60968 c 4.63242,-1.20495 16.15023,-5.74622 18.42772,-7.26574 0.42747,-0.2852 0.77403,-6.19623 1.03765,-17.69844 l 0.39582,-17.27021 -1.57345,-1.03096 c -0.8654,-0.56703 -12.97795,-6.89483 -26.916778,-14.06176 -25.274303,-12.99531 -28.695524,-14.96388 -29.892251,-17.19998 -0.820501,-1.53312 -0.816168,-7.09574 0.0067,-8.63333 0.995665,-1.86042 4.757792,-4.13263 6.842454,-4.13263 2.398889,0 8.328421,2.62382 31.257125,13.83131 10.19545,4.9835 18.63098,8.96165 18.74563,8.84032 0.42521,-0.45 1.45952,-19.32504 1.80122,-32.8706 0.35031,-13.88676 0.36393,-14.00386 1.85592,-15.95996 0.82666,-1.0838 2.68618,-2.49393 4.13226,-3.13359 2.24307,-0.99222 2.95511,-1.06541 4.8479,-0.49832 2.95485,0.8853 5.56201,3.15964 6.26322,5.46368 0.75283,2.47362 1.23019,15.74733 1.3782,38.3226 0.0662,10.10296 0.2134,21.47594 0.32702,25.27327 l 0.2066,6.90426 8.01296,-7.83831 c 8.69878,-8.50919 10.04423,-9.25336 14.54082,-8.04255 3.82643,1.03035 5.94788,4.1495 5.94788,8.74514 0,2.87751 -0.12705,3.09943 -4.6122,8.05656 -2.53672,2.80364 -8.96587,9.42439 -14.28702,14.71277 l -9.67479,9.61524 v 3.6216 c 0,3.40182 0.1152,3.70946 1.89828,5.06949 3.64649,2.78132 11.13919,5.66429 20.51742,7.89453 4.57733,1.08853 15.24526,1.44068 20.86526,0.68877 16.10209,-2.15433 28.48473,-8.02013 39.84719,-18.87607 8.84833,-8.45389 14.36136,-17.09586 18.12822,-28.41695 1.59364,-4.78957 1.64958,-5.35985 1.65885,-16.91116 0.008,-10.00206 -0.17322,-12.62111 -1.10983,-16.03645 -3.1175,-11.3678 -8.81524,-20.9575 -17.67742,-29.75229 -8.32928,-8.26596 -16.03896,-12.88646 -29.82622,-17.87519 -7.75472,-2.80594 -11.13965,-4.69951 -12.31,-6.88632 -0.32637,-0.60982 -0.99017,-4.68744 -1.47511,-9.06139 -0.92542,-8.34676 -2.15598,-12.90755 -5.00296,-18.54237 -7.07642,-14.00586 -20.42214,-24.49973 -34.3085,-26.9771 -5.9587,-1.06306 -17.15406,-1.03681 -22.42811,0.0526 -16.36389,3.38005 -30.944193,16.47799 -36.581097,32.86194 -1.164561,3.38486 -2.513092,10.75828 -3.136361,17.1488 -0.293963,3.0141 -0.735117,4.36417 -1.864689,5.7066 -1.887023,2.24259 -3.299467,2.95422 -11.682254,5.88586 -3.77365,1.31972 -8.698087,3.31173 -10.943189,4.42668 -13.804585,6.85559 -25.054601,18.00897 -31.762184,31.48934 -4.852444,9.75206 -6.139529,16.46337 -5.701523,29.72972 0.252188,7.6383 0.562764,10.07009 1.828742,14.31892 7.083915,23.77483 29.002482,42.91066 54.258912,47.37032 7.274488,1.2845 20.697483,0.77217 27.735953,-1.05862 z m 245.24605,0.25158 c 5.15558,-1.28188 8.43528,-2.49139 15.44822,-5.69709 l 4.63603,-2.11918 v -34.11157 -34.11156 l -13.96401,-14.18141 c -15.7043,-15.94878 -16.19703,-16.68645 -14.35959,-21.49771 1.11347,-2.91556 3.4103,-4.87957 6.52904,-5.58297 3.80676,-0.85856 5.64833,0.21763 13.81334,8.07239 l 7.68965,7.39745 0.37948,-4.95672 c 0.20871,-2.72619 0.41436,-9.15535 0.457,-14.28701 0.10044,-12.08999 0.91296,-21.04447 2.06974,-22.80994 1.18584,-1.80983 5.01434,-3.72554 7.42134,-3.7135 2.58872,0.0129 6.27189,2.19275 7.62777,4.51435 1.04457,1.78855 1.13814,4.11476 1.60677,39.94501 0.27368,20.92522 0.51082,38.11146 0.52697,38.19164 0.12709,0.63072 3.97556,-1.10738 22.24782,-10.04788 28.27018,-13.83242 27.81425,-13.67291 32.13746,-11.24313 2.94596,1.65572 3.95845,3.62844 3.95845,7.71253 0,5.12228 -0.88726,5.77961 -23.32574,17.28096 -24.33495,12.47341 -33.22846,17.14073 -34.60328,18.15979 -1.0164,0.75338 -1.05024,1.69905 -0.64658,18.06794 l 0.42594,17.27297 5.29733,2.42668 c 13.97572,6.40221 25.69853,8.18989 39.88868,6.08285 14.74448,-2.18934 26.99474,-8.11767 37.48563,-18.14062 8.71411,-8.3254 14.26697,-16.98183 18.18946,-28.35582 l 1.85076,-5.36661 0.0241,-12.53759 c 0.0237,-12.31462 -0.006,-12.62573 -1.65766,-17.4943 -3.57361,-10.5324 -8.2847,-18.34242 -15.76317,-26.13217 -10.11218,-10.53309 -16.30871,-14.22196 -34.97271,-20.81974 -2.52996,-0.89435 -5.46627,-2.38676 -6.52514,-3.31646 -2.1115,-1.85392 -2.32612,-2.62915 -3.94793,-14.2606 -1.57162,-11.27155 -5.62743,-19.73563 -13.41215,-27.98984 -7.45226,-7.90168 -16.16536,-12.88438 -25.41675,-14.53485 -6.70062,-1.19542 -18.03647,-1.04968 -23.65621,0.30412 -9.43199,2.27219 -16.6936,6.56225 -23.95385,14.15161 -8.42851,8.8106 -12.27452,17.3765 -13.96271,31.09804 -1.3649,11.09389 -2.20558,12.09245 -13.28334,15.77802 -8.70888,2.89745 -13.00214,4.87416 -18.69234,8.60636 -15.87497,10.41239 -27.07737,26.30938 -29.86328,42.3781 -1.22239,7.05055 -0.90149,22.36857 0.57999,27.68502 3.13351,11.24501 9.26368,21.41013 18.01571,29.8739 10.56686,10.21882 22.49709,16.44671 36.6863,19.15117 6.08453,1.15971 20.80726,0.70046 27.01342,-0.84263 z"
     style="fill:#008000;stroke-width:0.583144" />
  <path
     id="path25"
     d="m 379.18374,106.71841 c -3.05615,-1.86335 -4.32217,-4.40568 -4.08025,-8.193653 0.23815,-3.729054 1.46365,-5.730104 4.60233,-7.514901 3.87799,-2.205198 9.07142,-1.007616 11.83579,2.729281 1.59289,2.153284 1.84732,6.885693 0.50891,9.465643 -2.29984,4.43319 -8.55639,6.14171 -12.86678,3.51363 z"
     style="fill:#008000;stroke-width:0.583144" />
  <path
     style="fill:#ffff00;stroke-width:0.583143"
     d="M 254.92597,-0.35078757 C 219.57641,-0.61466183 185.35831,22.788054 172.82233,55.865612 c -1.44927,2.70656 -1.24214,7.145746 -5.19465,7.155356 -29.87973,7.772399 -55.72353,29.849296 -67.3828,58.521182 -5.220748,12.52865 -8.239332,26.07718 -7.477351,39.69931 -0.627118,11.24264 2.180706,22.27493 5.415847,32.90319 -5.653268,4.37092 -11.826465,8.22639 -16.537582,13.72779 -10.543176,11.23537 -17.201375,25.9144 -19.063783,41.1492 -23.509999,7.97084 -44.307841,24.79368 -55.1127553,47.36333 -6.2770775,12.48715 -8.6193477,26.6229 -7.61670251,40.50832 1.86614551,30.15276 22.19487681,57.55481 49.14533481,70.48317 21.195947,10.34399 46.692596,12.15533 68.822162,3.63721 1.95049,-0.58917 4.76064,-2.11605 3.86333,1.25398 0.39941,26.209 0.34891,52.42217 0.4943,78.63326 -17.89732,1.09619 -35.87436,0.45034 -53.802955,0.66903 -9.850874,0.33273 -19.851516,-0.60686 -29.615037,0.85033 -6.354571,2.48717 -8.605811,11.85995 -3.329158,16.55922 2.18726,3.08937 5.695218,3.23904 9.176538,3.01937 99.109112,0.91463 198.225792,0.6397 297.338242,0.61486 43.53242,-0.2058 87.0793,0.11117 130.60138,-0.78229 5.48342,-2.11824 9.00714,-9.12063 5.82916,-14.51822 -1.80793,-4.14356 -6.37802,-5.9625 -10.68348,-5.52051 -25.58101,-0.64306 -51.33338,0.3213 -76.81493,-0.78181 -2.35803,-1.52762 -0.38124,-6.94341 -1.00863,-10.02335 0.13965,-23.69014 0.0515,-47.38385 0.51046,-71.07069 10.31166,3.26112 20.78512,6.73184 31.75398,6.459 24.52717,0.81312 48.88571,-9.46789 65.8246,-27.1435 13.23181,-13.41692 22.47128,-31.32573 23.98975,-50.23349 0.89256,-12.00227 0.18751,-24.32183 -4.49434,-35.55615 -9.28233,-25.22062 -30.90527,-44.94867 -56.08454,-53.64177 -3.2098,-0.44272 -2.04034,-4.17067 -2.99629,-6.43306 -3.6324,-19.59215 -15.95762,-37.17112 -32.75057,-47.78473 -3.38769,-1.23445 -0.59578,-4.38984 -0.27036,-6.68046 3.07297,-9.95173 4.37085,-20.34006 3.87856,-30.74209 -0.41621,-8.95275 0.11332,-18.83173 -4.93166,-26.67426 -4.68774,-6.58348 -16.38771,-4.01216 -18.10592,3.84851 -1.22495,5.60193 1.58919,11.19469 1.65831,16.80183 1.16988,11.61971 -0.35056,23.47186 -3.92255,34.48747 -14.15138,-1.93987 -29.01866,-1.51142 -42.24259,4.40774 -23.26142,9.67364 -40.39633,32.44645 -42.94924,57.54748 -3.08182,2.21397 -7.78234,3.0774 -11.38228,5.09765 -11.40473,5.38415 -21.90536,12.82895 -30.3063,22.27287 -0.38316,-26.47935 -0.16378,-52.96299 -0.21526,-79.44419 19.74293,-9.63031 40.00559,-18.28735 59.25057,-28.88952 5.99304,-4.73034 3.61819,-15.23155 -3.53531,-17.41002 -4.95956,-2.52603 -9.65305,1.6788 -14.1402,3.27228 -13.72131,6.24606 -27.27325,13.05615 -41.04317,19.02954 -0.863,-24.59095 -0.0763,-49.22818 -1.27863,-73.802269 0.33838,-7.143094 -8.64261,-11.200431 -14.4913,-8.170394 -4.76145,1.926117 -6.62465,7.290203 -6.16665,12.081633 -0.51781,13.43092 0.11807,26.88976 -0.57822,40.3113 -16.65591,-7.56808 -32.84711,-16.22569 -49.84624,-23.00227 -7.6145,-2.44051 -14.91755,6.64423 -11.83144,13.74487 2.1223,5.51662 8.74664,6.62391 13.25198,9.49331 16.05256,7.96929 32.3091,15.51854 48.47239,23.25953 0.0342,36.50356 0.36506,73.00861 0.0399,109.51139 -11.13702,-12.47283 -25.85103,-21.42816 -41.59339,-26.84624 -2.3368,-24.03892 -17.93261,-46.06111 -39.6606,-56.51936 -12.80342,-6.50759 -27.54515,-8.15672 -41.68222,-6.37813 -3.24441,1.01938 -4.89793,-0.22002 -5.12416,-3.68734 -7.44085,-25.84062 -1.47657,-55.53171 17.09568,-75.37758 12.10589,-13.447095 28.80347,-22.136633 46.51481,-25.280179 5.38146,-0.808242 8.91529,-5.518304 9.79384,-10.637814 6.4377,-27.439512 32.6044,-48.420688 60.47153,-50.190205 19.21084,-1.689521 38.9631,5.458925 52.6492,19.1082 9.50037,8.775172 16.23873,20.371321 18.88383,33.089978 0.90798,6.229967 7.63927,8.854486 13.13008,9.557693 5.48418,0.945269 12.00662,4.426018 16.98381,0.167817 4.20784,-2.739294 5.37611,-9.149802 3.00911,-13.399769 -2.78721,-4.970278 -8.87096,-5.838468 -13.81549,-7.331437 C 335.67065,43.894452 324.06181,27.434157 308.24903,16.35211 292.82749,5.3855968 273.93644,-1.009436 254.92597,-0.35078757 Z M 379.04328,207.00684 c 18.94811,-0.80822 36.92583,11.41401 44.707,28.35526 3.59836,7.1649 4.59643,15.21544 4.75996,23.12423 0.39403,6.23679 6.51512,9.49466 12.03075,10.34738 25.90954,6.42995 47.62739,29.31045 50.28247,56.10137 2.69703,23.25145 -9.90485,46.61834 -29.19135,59.0148 -18.44896,12.40138 -42.89743,14.84302 -63.2491,5.92246 -2.9995,-1.23586 -5.82622,-2.84422 -8.52652,-4.6343 0,-10.91724 0,-21.83447 0,-32.75171 18.50361,-9.39405 37.29279,-18.26354 55.49658,-28.22665 6.20042,-4.27858 4.84251,-14.58582 -1.79044,-17.73235 -4.86987,-2.81182 -10.13747,1.31457 -14.68009,2.98783 -12.95262,6.19092 -25.69848,12.78424 -38.6707,18.9279 -0.84177,-24.92283 0.27737,-49.90389 -0.98519,-74.80297 -1.64811,-7.08295 -11.75744,-11.30087 -17.01481,-5.41571 -2.73668,1.8381 -3.77048,4.91502 -3.53303,8.09794 -0.5136,11.22582 -0.48857,22.46787 -0.70956,33.7016 -5.60945,-4.76943 -10.08027,-11.43189 -17.02165,-14.36788 -6.88173,-1.63377 -13.97548,5.63694 -12.29043,12.53758 0.83375,4.12211 5.19944,6.30995 7.55467,9.52165 7.26485,7.48777 14.68215,14.82578 22.02734,22.23462 -0.10033,21.83143 -0.19981,43.66286 -0.29841,65.4943 -12.14145,7.79744 -26.78841,10.80636 -41.08217,9.45403 -26.80291,-2.52085 -51.50144,-22.55755 -58.12626,-48.83558 -5.81183,-21.24622 1.66166,-44.97404 17.95672,-59.79043 9.3729,-9.81157 22.10143,-15.31836 35.03189,-18.67995 4.56555,-1.42084 8.2938,-5.60549 7.96356,-10.58543 -0.92226,-22.36864 15.62727,-43.64599 37.31207,-48.79384 3.94127,-0.91592 8.01046,-1.18549 12.0467,-1.20615 z m -246.09795,10e-4 c 19.42652,-0.85528 38.00859,12.00006 45.43259,29.82333 3.84669,7.84498 3.23637,16.88395 4.90112,25.30195 3.66073,6.34727 11.87058,6.20111 17.85818,8.91557 24.24601,8.49786 43.52235,32.05302 43.93795,58.12201 1.30373,26.12391 -16.41796,50.65617 -40.04604,60.44922 -9.47304,4.33655 -19.96236,6.05307 -30.28881,5.34349 -10.78123,-0.20531 -21.41433,-3.66208 -30.36105,-9.53303 -0.97047,-2.77011 -1.14349,-6.2248 1.81532,-7.85377 8.88908,-9.26529 18.63376,-17.84568 26.65735,-27.87402 3.14489,-7.45114 -4.88726,-16.55462 -12.61162,-13.89066 -6.58207,3.22909 -11.08532,9.38866 -16.47152,14.1697 -0.23234,-21.78106 0.45849,-43.59268 -0.46356,-65.35535 -0.56516,-7.51356 -10.42718,-12.01306 -16.34168,-7.1287 -5.123,3.13856 -4.60337,9.58158 -4.70853,14.76251 -0.40501,12.03686 0.14343,24.17928 -0.70605,36.14865 -15.35938,-7.3085 -30.251882,-15.67301 -45.98861,-22.15034 -6.745314,-3.20531 -13.930639,4.53024 -12.912301,11.1549 0.471267,6.08686 6.7166,8.51558 11.377106,10.85193 15.945132,8.25953 32.069775,16.16549 48.118335,24.22096 0,10.91724 0,21.83447 0,32.75171 -11.10849,7.21984 -24.27158,10.4494 -37.477208,9.9223 -28.811666,-0.95609 -56.200761,-22.61122 -62.436227,-51.08175 -5.016712,-21.30318 3.259046,-44.86837 19.832021,-59.2969 9.529032,-9.1089 21.919914,-14.06239 34.368435,-17.4999 4.70128,-1.58092 7.699699,-6.28336 7.259676,-11.21687 -0.62173,-25.89686 22.357953,-49.82839 48.444193,-49.05239 0.27032,0.002 0.54062,-0.005 0.81093,-0.005 z M 267.28132,386.7436 c 14.56605,15.32935 34.10105,26.3412 55.19476,29.08655 9.30685,0.13529 18.78606,0.92812 27.98178,-0.81435 5.91004,-1.3079 11.59457,-3.44661 17.31549,-5.33257 0.75674,27.23676 0.32779,54.59618 0.45671,81.87926 -33.80523,-0.1878 -67.61578,0.0154 -101.41685,-0.59453 0.0495,-34.82524 -0.13308,-69.65195 0.19818,-104.47607 z m -22.28246,0.27448 c 0.31127,34.65348 0.14293,69.30912 0.18793,103.96355 -33.80743,-0.0957 -67.61294,0.33268 -101.41685,0.7631 0.15313,-27.32917 -0.34675,-54.83652 0.49089,-82.06036 9.93954,3.57281 20.24281,6.84165 30.94988,6.53986 26.1311,1.5474 51.79892,-10.66903 69.51822,-29.48861 -0.26174,0.19982 1.14847,-1.13913 0.26993,0.28246 z"
     id="path16" />
  <path
     style="fill:#006100;stroke:#008000;stroke-width:0.583143;fill-opacity:1"
     d="m 254.96697,-1.0364368 c -33.70878,0.0422366 -66.20711,20.9329118 -80.42269,51.4695488 -2.13747,3.457935 -2.51263,7.949375 -5.11148,11.056644 -6.26097,2.730505 -13.08338,4.185652 -19.15396,7.46086 -35.92221,16.048593 -60.198284,55.127674 -58.124188,94.496634 -0.0545,10.26812 2.314426,20.31449 5.213232,30.09945 -7.413491,6.50751 -15.743235,12.20823 -21.455581,20.43963 -7.604616,10.03548 -11.935262,22.22832 -13.906601,34.57746 -24.573348,8.50528 -45.974875,26.76249 -56.4293849,50.78473 -6.8310144,14.13395 -6.9820087,30.37598 -5.37068887,45.67226 5.82801447,33.02752 32.72188277,60.42064 64.88841877,68.87546 12.470051,3.43818 25.725206,3.42836 38.468603,1.71652 5.86799,-0.86856 11.34235,-3.29537 17.09453,-4.5934 0.68517,26.41533 1.13779,53.13508 0.84738,79.47608 -26.455225,0.53118 -52.938121,0.0746 -79.376991,1.14579 -3.571656,-0.0779 -7.13829,1.40376 -8.675399,4.81776 -3.370616,5.0899 -0.566562,11.58661 3.808325,15.05376 2.907397,1.8669 7.077411,0.37935 10.462858,0.94224 75.727987,0.76445 151.463427,0.45849 227.194637,0.60712 62.99468,-0.12793 125.99484,0.30831 188.98563,-0.47803 3.36442,-0.51567 7.37874,0.79196 10.36563,-0.82288 4.55344,-3.41621 7.81361,-10.02338 4.28997,-15.28968 -1.60636,-3.66449 -5.51056,-4.95411 -9.2398,-4.87313 -25.90935,-1.12477 -52.02106,-0.0743 -77.83309,-1.35807 -1.47079,-1.07566 -0.35696,-4.34517 -0.76889,-6.26639 -0.16938,-24.36125 -0.26501,-48.73259 0.3395,-73.08783 11.19517,3.36724 22.67048,6.79092 34.51337,5.95634 23.60187,-0.30373 47.10537,-10.2778 62.96157,-27.90623 12.87199,-12.61535 21.60862,-29.63802 23.69135,-47.57972 1.0027,-13.32042 0.7257,-27.16825 -4.80335,-39.58076 -9.80382,-24.43216 -30.8089,-43.60059 -55.49619,-52.37596 -3.74889,-1.54265 -2.34976,-6.53961 -3.78361,-9.58997 -4.35832,-18.47901 -16.73542,-34.26996 -32.20159,-44.92597 -2.95771,-1.74555 0.34249,-5.18251 0.44678,-7.7154 4.30804,-14.32505 3.82951,-29.58924 2.35846,-44.31421 -0.73913,-6.45764 -3.6533,-14.80529 -11.14693,-15.62073 -7.31234,-1.06818 -13.93949,6.42074 -12.04555,13.57745 2.53336,14.27584 2.86232,29.17984 -1.45103,43.14806 -0.0564,3.01816 -3.78575,1.2752 -5.61503,1.51595 -20.45692,-2.54536 -41.89741,3.88469 -57.04897,17.98405 -12.40948,11.17726 -20.69639,26.70987 -23.14921,43.22323 -0.47406,3.38861 -4.8696,3.19298 -7.24067,4.73422 -12.58096,5.17009 -23.80399,13.50473 -33.39372,22.86715 -0.42639,-25.82841 -0.19351,-51.66235 -0.25626,-77.49317 19.70453,-9.43439 39.76852,-18.21126 58.9476,-28.69134 5.12182,-4.02798 4.67851,-13.34006 -0.89977,-16.87243 -3.14612,-2.84489 -7.65822,-2.8801 -11.23705,-0.88926 -15.45088,6.80269 -30.58946,14.29885 -46.0101,21.17399 -1.44361,-24.29764 0.0263,-48.75527 -1.75285,-73.058081 0.0103,-6.624568 -7.39756,-10.658172 -13.34055,-8.968111 -5.39182,1.014372 -8.33994,6.53817 -8.01822,11.692492 -0.63268,13.47386 -0.35933,26.97518 -1,40.44988 -16.84143,-7.04198 -32.80878,-16.14145 -49.97152,-22.39749 -8.69194,-2.07657 -16.1069,10.74029 -9.69021,17.17539 8.05031,6.42217 17.96376,9.97119 27.0213,14.71955 10.79186,5.18542 21.61186,10.30857 32.42289,15.45471 1.16685,31.13434 0.6047,62.36797 0.65198,93.54434 -0.0357,4.73631 -0.0542,9.47336 -0.17134,14.20851 -10.53142,-10.60039 -23.15561,-19.22119 -37.24342,-24.40668 -4.004,-0.29095 -3.44374,-4.30153 -4.20305,-7.26075 -5.81915,-30.33854 -33.14891,-55.5257 -64.22665,-57.39993 -6.4083,-0.75152 -12.87394,-0.0478 -19.22437,0.50927 -2.74115,-2.05193 -2.37193,-6.31301 -3.36079,-9.34392 -4.98038,-24.57373 1.6712,-51.76634 19.3232,-69.9989 12.10162,-12.938574 28.69655,-20.896902 45.87585,-24.195902 7.36205,-1.634213 9.3749,-9.75311 11.07176,-15.957856 8.9193,-26.547003 36.32036,-45.619681 64.23004,-44.680329 17.74509,-0.227447 35.26178,7.37311 47.55356,20.282835 8.9576,8.449404 14.78193,19.783243 17.78359,31.671982 1.15147,5.29573 6.11253,8.285921 11.11276,9.222093 5.3946,0.902817 10.96114,3.751701 16.46241,2.250573 7.64797,-2.242671 10.49578,-13.620751 3.83485,-18.542144 C 350.0971,63.883251 345.944,62.949102 342.05353,61.784745 334.34733,38.551154 317.3417,18.305194 294.99886,7.9647019 282.56272,1.9920651 268.77035,-1.1624561 254.96697,-1.0364368 Z M 379.5672,207.72779 c 13.35513,-0.45617 26.39201,5.573 35.17956,15.55803 9.0305,9.2291 13.06846,22.20202 13.14959,34.91122 0.27854,6.95394 7.63503,10.31696 13.53488,11.5406 24.20083,6.44604 44.34276,27.15405 48.29726,52.09863 1.65704,11.91077 0.35555,24.22138 -5.16358,35.02933 -10.04741,21.03687 -31.91075,36.06382 -55.28473,37.45558 -13.45917,0.92157 -27.41622,-2.08083 -38.84055,-9.35421 0.006,-10.73083 0.0105,-21.46165 0.0148,-32.19249 18.59938,-9.53488 37.57388,-18.39832 55.78815,-28.65033 6.03873,-4.7356 4.07148,-14.89835 -2.53303,-18.11846 -4.83887,-2.58901 -10.01219,1.35494 -14.51373,2.94552 -12.80132,5.90311 -25.28954,12.45304 -38.19014,18.11713 -0.90124,-24.00229 -0.12733,-48.14199 -1.33713,-72.16287 0.0593,-6.51309 -7.4965,-11.06241 -13.41344,-9.64807 -4.41123,1.53457 -8.56922,5.54777 -7.96583,10.58884 -0.62842,10.84076 -0.38423,21.78919 -1.03531,32.57176 -5.65822,-4.58708 -10.13381,-11.56658 -17.55011,-13.43622 -5.46169,-0.38714 -10.70902,4.41436 -11.67198,9.64806 -1.08295,6.08192 5.13951,9.95556 8.47645,14.06232 7.00903,7.13292 14.09487,14.19058 21.13744,21.29075 -0.26488,21.50382 0.38559,43.04876 -0.7284,64.5266 -0.91989,2.49302 -4.85156,3.07083 -7.12434,4.5058 -12.5505,5.65446 -26.998,6.88004 -40.35161,4.0624 -25.94207,-5.69399 -48.43289,-27.95242 -51.52913,-54.66655 -0.50233,-9.35783 -0.4485,-19.4786 3.34624,-28.14578 5.59139,-14.64207 17.01217,-26.65399 30.47722,-34.45331 7.60093,-4.5008 16.72212,-5.7178 24.40775,-10.1492 5.87467,-4.64614 3.39294,-12.82264 5.04897,-19.17198 4.19784,-21.39013 24.43144,-39.35628 46.7328,-38.73476 0.54701,-0.0208 1.09467,-0.0171 1.64192,-0.0283 z m -246.90205,0.18793 c 8.79775,-0.68835 17.64314,1.68235 25.17537,6.33468 12.99444,7.75929 22.33955,21.64182 23.36924,36.91526 0.89595,4.02445 0.3219,8.71262 2.18763,12.29321 5.71832,6.08845 14.68812,6.22627 21.76776,9.93862 22.25098,9.47126 39.4587,32.35845 39.15717,56.87813 1.02191,18.67686 -8.72884,36.59372 -22.80068,48.40206 -13.05607,11.35332 -30.65132,16.87969 -47.81934,15.46109 -10.11185,-0.50044 -20.15289,-3.12638 -28.43464,-9.10118 -2.69196,-3.24033 0.86203,-6.77134 3.14563,-8.9427 8.19829,-8.80303 17.38438,-16.80621 24.80197,-26.27371 3.03885,-6.48367 -2.8782,-14.3369 -9.49202,-15.13212 -6.79588,0.44785 -11.2391,6.69445 -16.01169,10.81159 -1.91741,2.10095 -3.8521,3.95252 -3.13075,-0.31886 -0.62924,-20.68526 0.1601,-41.42094 -1.02954,-62.07928 -1.54671,-7.33012 -11.74303,-10.8029 -17.35536,-5.61731 -5.28282,3.56942 -3.88597,10.84882 -4.4442,16.31441 -0.27605,11.09953 -0.27368,22.20714 -0.76764,33.30062 -15.93671,-6.95314 -30.990375,-15.99526 -47.375856,-21.918 -8.940645,-1.53158 -15.30807,11.64742 -8.87016,17.94191 5.485053,4.37962 12.3041,6.84845 18.375049,10.3359 12.768201,6.53057 25.630007,12.87702 38.444997,19.31559 7.6e-4,10.78929 0.002,21.57858 0.002,32.36788 -14.60028,8.25278 -32.110414,11.91088 -48.488798,7.82441 -25.62457,-5.65529 -47.335469,-27.45948 -51.095483,-53.60346 -0.71748,-9.84793 -0.494524,-20.00802 3.435565,-29.2348 7.116651,-19.61717 24.466651,-34.01846 44.093611,-40.09571 5.188887,-1.88918 12.249885,-3.07655 13.984492,-9.24579 1.487809,-5.89852 0.401022,-12.02341 2.517081,-17.80752 4.948142,-17.4663 20.348592,-31.78719 38.288152,-34.83599 2.73916,-0.25074 5.57242,-0.21077 8.37016,-0.22893 z m 135.20843,180.25284 c 13.80705,13.69674 31.47009,24.387 50.87699,27.46697 14.44232,1.9631 29.43936,1.67321 43.26765,-3.36902 1.66355,-0.50645 3.41905,-1.08541 5.03531,-1.34738 0.64012,26.68051 0.4826,53.37312 0.6902,80.05922 -33.44937,-0.14123 -66.89969,-0.19684 -100.34737,-0.58997 0.0895,-34.11121 -0.23737,-68.2272 0.34737,-102.33485 z m -23.52962,0.55126 c 0.4303,33.8909 0.19713,67.78605 0.25968,101.67881 -33.45287,-0.10029 -66.90449,0.25818 -100.35307,0.76196 0.20979,-26.7533 0.0519,-53.51323 0.69704,-80.26082 9.53181,2.66841 19.05547,5.92777 29.09232,5.85668 26.19783,1.77861 51.96376,-10.23951 70.16167,-28.54688 0.28059,-0.35479 0.12821,0.26518 0.14236,0.51025 z"
     id="path34" />
  <path
     style="fill:#006100;fill-opacity:1;stroke:#008000;stroke-width:0.583143"
     d="m 383.50114,88.623014 c -7.4196,-0.175559 -12.38543,8.767648 -8.84169,15.112756 2.71993,6.16012 11.4376,7.61454 16.22665,3.07745 5.86774,-4.65616 4.15157,-15.133148 -2.9943,-17.513669 -1.39588,-0.526911 -2.90255,-0.738736 -4.39066,-0.676537 z"
     id="path859" />
  <path
     style="fill:#005300;fill-opacity:1;stroke:#008000;stroke-width:0.583143"
     d="m 253.65604,-1.5318809 c -30.7321,0.4052026 -60.11657,18.3077209 -75.75285,44.5535299 -3.34657,5.816736 -5.83714,12.067028 -8.85877,18.050115 -18.09588,5.859304 -35.76521,14.571164 -48.8985,28.653817 -20.37752,20.582259 -30.973587,50.221029 -28.252435,79.058879 0.588234,8.22461 2.455623,16.4003 4.54274,24.27363 -6.418025,6.63582 -14.274664,11.89328 -19.897398,19.34412 -8.287525,9.88943 -12.279678,22.46389 -15.078685,34.83014 -3.266998,3.19465 -8.346241,3.77864 -12.210312,6.16806 -22.547125,11.56058 -41.1310283,32.07815 -48.0778408,56.6816 -4.7595961,20.14097 -2.9260406,42.29946 7.6070616,60.38951 15.8223292,28.6554 47.9647192,48.12491 80.9555782,46.6754 10.357931,0.42902 20.607041,-2.45596 30.293851,-5.23006 0.31569,25.9139 0.50972,51.83343 0.78702,77.74942 -25.004825,0.99985 -50.039344,0.2762 -75.041006,1.2221 -4.372981,0.12332 -9.726375,0.10035 -12.228929,4.43166 -4.488377,5.77373 -0.870248,14.09325 4.700455,17.57973 42.935294,0.83129 85.88705,0.38301 128.82914,0.60711 99.43667,0.009 198.87581,0.41303 298.31094,-0.21304 3.90871,-0.0392 8.52335,0.5477 11.24032,-2.98861 5.56717,-4.7678 5.00163,-14.8193 -1.74602,-18.21868 -6.01831,-1.84196 -12.58762,-1.09375 -18.82994,-1.52938 -21.38846,-0.49055 -42.82363,-0.41424 -64.18942,-0.90228 -0.69643,-7.82959 -0.21183,-16.24055 -0.38214,-24.28245 0.0549,-17.77679 -0.002,-35.55802 0.4334,-53.3303 11.68686,2.77414 23.46391,6.75208 35.66287,5.42597 21.89201,-1.24015 43.54062,-9.9219 59.03189,-25.66401 14.73539,-14.16327 25.28856,-33.31416 26.43394,-53.97608 1.53366,-17.72758 -2.68434,-35.92429 -12.65376,-50.74748 -7.37913,-11.05782 -17.02125,-20.73521 -28.08721,-28.10598 -6.59663,-4.37558 -13.92092,-7.49357 -21.04719,-10.78549 -2.28377,-3.14991 -1.60002,-7.51057 -3.28979,-10.99363 -4.60839,-16.8446 -16.05102,-31.06201 -29.74324,-41.45056 -1.58142,-1.33052 -3.9328,-2.7946 -2.35649,-5.01822 5.62584,-16.13316 5.09026,-33.72502 2.99659,-50.459 -0.87773,-6.75863 -6.12119,-14.54564 -13.74602,-13.63668 -6.2532,0.81136 -11.41551,7.06179 -10.09227,13.45316 1.85081,14.7644 2.49004,29.97932 -1.59679,44.43978 -15.64313,-0.81529 -32.02703,-0.0501 -46.12984,7.5205 -20.60933,10.05566 -35.31946,30.47465 -39.36105,52.93736 -0.16841,2.20656 -0.96342,4.028 -3.34966,4.3861 -13.42868,5.16675 -25.61581,13.31705 -35.93394,23.30068 -0.63576,-25.21697 -0.28273,-50.44711 -0.37927,-75.66969 19.43584,-9.2491 39.1542,-18.02801 57.96677,-28.50145 6.3745,-4.14209 5.14113,-14.9768 -1.4121,-18.39833 -5.56987,-3.7817 -11.95677,0.31474 -17.20481,2.56311 -12.94864,5.7524 -25.60111,12.24675 -38.67674,17.66582 -1.30943,-23.89277 -0.26837,-47.88842 -2.04179,-71.756426 0.10071,-6.149435 -5.99469,-10.308029 -11.73383,-9.906436 -6.77231,-0.1051 -11.18664,6.9308 -10.58385,13.189222 -0.73359,12.95849 -0.84858,25.9416 -0.96968,38.91556 -16.74348,-7.04721 -32.80965,-16.1694 -50.04442,-22.17882 -8.71284,-1.28457 -16.18548,11.3049 -9.54784,17.84055 6.95941,6.51434 16.39695,9.40673 24.63101,13.92196 11.41967,5.54068 22.88561,10.9846 34.35076,16.42997 1.13365,21.15215 0.49305,42.36548 0.71445,63.54215 -0.033,14.04364 0.0187,28.08939 -0.25089,42.13097 -8.10993,-7.24723 -16.7474,-13.9852 -26.60706,-18.7164 -3.62262,-2.20209 -7.78736,-3.37053 -11.48291,-5.30296 -2.54549,-4.05205 -2.02071,-9.32259 -3.94194,-13.69476 -9.18764,-28.32872 -36.97901,-50.27406 -67.13001,-50.25764 -4.92483,-0.5353 -9.89118,0.67054 -14.76746,0.22917 -2.58478,-2.7033 -2.16432,-7.19965 -3.19704,-10.62528 -4.61568,-26.11165 4.30795,-54.92819 24.84774,-72.37457 11.60881,-10.149826 26.38232,-15.955247 41.20806,-19.336144 7.74148,-2.663834 8.77625,-11.774559 11.51481,-18.261954 6.51981,-17.199959 20.90125,-30.850186 37.90299,-37.512519 12.90694,-5.078582 27.42771,-5.268192 40.80316,-2.343973 22.7257,5.579181 41.55334,24.162679 47.82012,46.544728 1.19176,4.93095 3.84649,10.255942 9.27347,11.442016 6.73514,1.813407 14.00649,4.974528 20.99639,2.709156 8.21378,-2.899739 9.34638,-16.507684 1.01025,-20.043283 -2.90054,-1.916583 -6.89293,-2.343485 -9.44034,-4.358071 C 333.30028,34.581622 312.42849,12.917424 286.39294,3.8371394 275.92198,0.09740573 264.77792,-1.779298 253.65604,-1.5318809 Z M 379.04328,208.56151 c 8.23553,-0.49207 16.34346,1.42971 23.44077,5.67881 13.8588,7.61061 23.09196,22.51956 24.39006,38.25048 0.58332,5.31853 0.78275,12.31833 6.53021,14.80647 9.1705,3.96126 19.23438,6.10508 27.48842,12.03903 15.37068,10.60448 27.56713,27.66232 28.47058,46.72634 0.47535,10.1891 -0.16449,20.66761 -5.03872,29.86561 -10.89621,23.09932 -35.98653,39.25081 -61.74473,37.61445 -11.01116,0.12364 -21.72136,-3.24564 -31.26552,-8.57232 0,-10.60326 0,-21.20652 0,-31.80979 18.16201,-9.51986 36.82133,-18.14388 54.58314,-28.39749 8.46181,-4.97459 3.63811,-20.13558 -5.83713,-20.16515 -8.71284,1.66377 -16.30255,6.81945 -24.40957,10.19895 -7.97892,3.64126 -15.88789,7.84139 -23.99248,10.99125 -0.80917,-23.73605 -0.006,-47.54228 -1.62173,-71.24814 -0.19832,-8.5964 -12.15882,-13.31155 -18.28715,-7.33158 -5.75025,4.53615 -3.97671,12.77301 -4.43964,19.13667 -0.17426,6.80495 -0.28712,13.78399 -0.94647,20.43281 -5.4988,-4.2429 -9.97309,-11.12489 -17.25626,-12.26766 -8.14079,-0.3905 -15.14598,10.51522 -9.59568,17.1754 8.72813,9.86035 18.19177,19.03394 27.34739,28.49089 -0.32667,21.60024 0.12343,43.37802 -0.93394,64.86902 -6.57343,4.31707 -14.36378,6.57719 -22.06676,7.93289 -23.90513,3.89439 -49.81634,-6.45969 -63.92764,-26.46095 -6.78549,-9.50394 -11.8308,-20.7645 -11.2863,-32.70075 -0.31259,-9.08031 0.30366,-18.56236 4.73707,-26.66065 8.06474,-17.52815 23.86379,-30.94328 42.33255,-36.4564 5.56831,-2.1079 13.45751,-3.94754 14.48556,-10.95141 1.05381,-8.96079 1.86912,-18.29347 6.56834,-26.19703 6.71471,-12.77019 19.54729,-22.43367 33.79727,-24.64123 2.81368,-0.31647 5.65024,-0.33678 8.47836,-0.34852 z m -243.67198,0.11503 c 18.08091,-0.55046 34.78174,12.2873 41.74721,28.5125 3.46316,7.86985 3.3672,16.54513 5.11954,24.78705 3.14604,6.26193 11.05426,7.39978 16.92255,9.76423 18.25649,6.08908 33.69471,20.26068 40.7383,38.28804 4.32279,10.29933 3.89724,21.93715 2.83459,32.7746 -3.12525,15.82372 -13.53675,29.9667 -26.66288,39.25171 -10.78638,7.49011 -23.9292,12.03371 -37.15943,11.16943 -9.73107,0.31227 -19.75637,-0.79384 -28.36757,-5.76673 -2.64744,-1.22841 -7.24298,-3.50725 -4.71787,-7.04621 8.48342,-10.73901 19.43119,-19.36393 27.71413,-30.28018 2.34462,-5.06309 -0.31357,-11.37037 -5.05012,-14.06834 -3.0523,-2.66629 -7.39558,-2.26185 -10.48251,0.0779 -4.6207,2.73617 -8.2261,6.77569 -12.32614,10.17494 -1.45564,-19.82454 -0.55428,-40.01692 -1.38383,-59.9738 0.18899,-5.31585 -3.35208,-10.50694 -8.7631,-11.40661 -6.70141,-1.71596 -14.16307,3.73893 -13.86748,10.82171 -1.00637,13.30715 -0.82688,26.67059 -1.25097,39.9915 -15.87488,-6.24671 -30.509168,-15.47109 -46.723234,-20.88838 -6.374167,-1.57543 -12.12914,5.24533 -11.878131,11.30866 -0.529256,4.05886 1.9557,7.68234 5.560366,9.36218 17.398209,9.9007 35.554009,18.40111 53.310929,27.63212 0,10.61276 0,21.22551 0,31.83827 -15.6037,8.21058 -34.250592,11.90928 -51.31207,6.3246 -22.318838,-6.28664 -40.940099,-25.16783 -45.89863,-47.82005 -4.318565,-20.43752 2.808155,-42.77647 18.447607,-56.7779 9.540869,-9.09238 21.813658,-14.43311 34.169704,-18.49203 4.863942,-1.44963 8.31944,-5.84963 8.520502,-10.92938 0.588666,-11.59476 3.922218,-23.39196 11.742942,-32.26106 8.594685,-9.84994 21.288835,-16.88067 34.565715,-16.33119 1.48318,-0.0285 2.96648,-0.0323 4.44988,-0.0376 z M 268.623,389.85649 c 15.48113,14.3188 34.95071,25.63841 56.38594,27.00485 12.63347,0.87806 25.51974,0.21744 37.5499,-4.05472 1.2768,-0.0602 4.20703,-1.99193 3.69602,0.4649 0.64393,25.70203 0.53121,51.42042 1.02646,77.12711 -24.16364,0.0506 -48.32684,0.0803 -72.47596,-0.58979 -8.84955,-0.0804 -17.69941,-0.12232 -26.5491,-0.18584 0.12813,-33.24463 -0.23228,-66.56935 0.36674,-99.76651 z m -25.17767,0.38155 c 0.47457,33.18599 0.21197,66.37764 0.2836,99.56606 -33.00814,-0.19768 -66.01558,0.17306 -99.01936,0.68109 0.47431,-26.13996 0.31945,-52.29522 1.06264,-78.42711 9.94927,2.11898 19.73286,5.8716 30.08656,5.17085 11.79734,0.58637 23.60883,-1.44833 34.51527,-5.99327 12.33439,-4.78471 23.41412,-12.34663 33.05648,-21.33589 z"
     id="path861" />
  <path
     style="fill:#808000;fill-opacity:1;stroke:#004900;stroke-width:0.583143;stroke-opacity:1"
     d="m 257.13098,-2.1173023 c -16.08627,-0.2726522 -32.11322,3.9099764 -46.02306,11.9900135 -16.73174,9.4586818 -30.4306,24.1927168 -38.20787,41.8117648 -1.96419,2.914781 -2.52658,7.389066 -5.44304,9.244471 -21.06794,6.933967 -41.21961,18.54366 -54.79437,36.457367 -12.4249,15.742396 -19.99109,35.277456 -21.546462,55.246946 -0.277617,10.26221 -0.237759,20.60224 2.34577,30.61416 0.492494,3.2051 1.849562,6.44873 2.013,9.60224 -7.899489,8.14098 -17.548554,14.78307 -23.390661,24.76538 -5.936127,8.74441 -8.332461,19.22563 -11.509112,29.05011 -1.748031,2.92438 -5.998815,3.03072 -8.72665,4.79955 -25.924889,12.31591 -47.4217558,36.18241 -52.5227772,64.94077 -3.8816191,21.48429 1.02035113,44.3821 13.8379352,62.1174 16.910831,24.41123 46.297892,40.3766 76.224687,39.07797 10.296308,0.3049 20.38537,-2.03205 30.20047,-4.90267 -0.36019,25.53051 0.39657,51.06428 0.60479,76.59454 -25.553743,0.0487 -51.127729,0.17407 -76.663535,1.16182 -4.485647,-0.0545 -9.432882,1.48932 -11.331911,5.95663 -3.41973,6.29126 0.664745,13.83218 6.125285,17.33143 59.344723,0.66765 118.698351,0.31535 178.046691,0.45909 79.04983,-0.0956 158.10307,0.21814 237.15054,-0.40143 6.93058,-0.26952 13.99226,0.10122 20.84148,-0.56563 4.76604,-3.56707 8.51547,-9.97293 5.65832,-15.87813 -1.21848,-4.12229 -5.16293,-6.58118 -9.3508,-6.59909 -21.88201,-1.44093 -43.84854,-1.27074 -65.77105,-1.60464 -4.12388,-0.0403 -8.24695,0.0473 -12.36904,0.15931 -1.24143,-19.59169 -0.14742,-39.25344 -0.13018,-58.86983 0.25486,-5.6939 -0.17932,-12.11867 0.39327,-17.43769 13.24477,3.40492 26.93096,6.67645 40.68338,4.52734 20.70213,-2.52515 40.9078,-11.54361 55.1474,-27.03263 14.85947,-14.77032 24.92215,-34.895 25.16915,-56.07867 1.06802,-19.14608 -5.13735,-38.41428 -17.06599,-53.41489 -10.37255,-14.32674 -25.38745,-24.44422 -41.34965,-31.61959 -3.10369,-1.09659 -5.44199,-3.68004 -5.44186,-7.07126 -3.58653,-17.12905 -13.72384,-32.34815 -27.00457,-43.55624 -2.15463,-2.29894 -5.85015,-3.75362 -6.86223,-6.87136 5.74282,-16.36689 5.73201,-34.20499 3.41686,-51.22438 -1.01436,-6.8479 -5.58834,-14.84828 -13.42483,-14.6173 -6.01319,0.14516 -11.47385,5.59218 -11.90907,11.37925 1.64982,15.37702 2.70012,31.14251 -1.06587,46.25058 -18.28387,-0.82768 -37.54995,1.42863 -53.11276,11.81436 -17.10155,11.14948 -29.07667,29.7621 -32.71982,49.72892 -1.55148,4.7419 -7.55813,4.94126 -11.2574,7.32346 -9.61943,4.69556 -18.5112,10.95919 -26.19248,18.40547 -1.43311,-12.5922 -0.56238,-25.35708 -0.82248,-38.01708 0.043,-11.87856 0.10976,-23.75702 0.16303,-35.63554 19.48418,-9.43785 39.41111,-18.09466 58.16856,-28.94305 5.4867,-4.15358 4.61724,-13.69481 -0.7836,-17.62984 -4.42146,-4.74825 -11.27304,-1.99927 -16.23576,0.14693 -13.72234,5.90736 -27.02943,12.7925 -40.8508,18.44533 -0.49788,-23.31947 -0.51529,-46.67187 -1.84034,-69.962147 0.58319,-9.095808 -11.5745,-14.574441 -18.5002,-9.294118 -6.50598,4.602525 -4.947,13.336275 -5.59489,20.195595 -0.53287,9.7961 -0.18928,19.61761 -0.64543,29.41032 -16.4922,-6.77474 -32.03065,-15.91199 -49.04556,-21.36902 -6.58086,-1.62411 -12.38184,5.25702 -12.90091,11.34283 -0.52393,6.87809 6.72438,10.52004 11.83774,13.29371 16.33198,8.51431 33.01965,16.32194 49.65201,24.22565 1.17521,32.7851 0.69175,65.60805 0.53463,98.40761 -0.49102,1.17104 0.92178,6.35039 -1.07336,4.52747 -10.50377,-9.14035 -22.55257,-16.43419 -35.33485,-21.88497 -3.19646,-3.84977 -2.83553,-9.46403 -4.67995,-13.97722 -8.69815,-26.20827 -33.08718,-46.92368 -60.70159,-49.96924 -7.14307,-0.42722 -14.30536,-0.20904 -21.45672,-0.30183 -3.54533,-7.32314 -3.17042,-15.85367 -3.56948,-23.77448 -0.43009,-19.27822 6.94587,-38.63558 20.09539,-52.76435 12.00408,-12.580549 28.18809,-20.339034 44.95472,-24.102397 4.25526,-0.963306 7.75099,-3.931419 9.17426,-8.086556 3.43073,-8.355921 5.98673,-17.07675 11.51204,-24.368428 12.49147,-18.117406 34.36094,-28.869401 56.34217,-27.761413 17.38973,0.321163 34.505,7.961753 46.2449,20.916403 8.0951,8.33869 13.05151,19.061807 16.49998,30.009562 1.50124,5.010246 5.82873,8.56685 10.91047,9.524797 6.79817,1.576541 14.88356,5.256263 21.30706,0.679077 6.78612,-4.582773 6.50853,-16.620085 -1.38496,-19.940773 -3.5751,-2.301889 -9.32292,-2.316782 -10.23234,-7.381552 -7.43922,-17.485936 -19.09064,-33.566905 -35.35387,-43.794965 -12.8987,-8.8597652 -28.35495,-13.34491828 -43.75137,-15.171741 -1.76874,-0.079977 -3.5404,-0.077309 -5.31048,-0.059486 z M 379.06036,209.30866 c 9.32205,-0.37413 18.53143,2.11333 26.22551,7.53189 12.14615,7.98786 19.6489,21.6975 21.00549,36.08278 0.49078,5.58881 1.18853,12.70681 7.28267,15.0425 10.57293,4.42747 22.17573,7.36107 31.05239,14.95672 14.60311,11.63899 25.35633,29.7522 23.9779,48.91441 0.26885,10.47879 -2.36054,21.08308 -8.25467,29.87489 -10.97976,17.63003 -30.46075,30.3736 -51.43963,30.95557 -12.81346,0.83517 -25.79942,-1.70708 -37.02506,-8.07972 0.0995,-10.40927 0.19901,-20.81853 0.29841,-31.22779 18.3073,-9.36737 36.8947,-18.26393 54.69476,-28.5729 4.81702,-3.60557 5.35636,-10.8158 1.65831,-15.41571 -2.25769,-3.84878 -6.92588,-6.63205 -11.34054,-4.62415 -15.40043,5.49431 -29.65161,13.79072 -44.71413,20.05809 -1.19559,-20.76494 -0.11318,-41.61638 -1.36818,-62.39289 -0.60139,-5.27016 0.49561,-11.99445 -4.55437,-15.47613 -5.26573,-5.13051 -14.811,-3.30856 -17.9476,3.31549 -2.93294,6.05266 -1.46714,13.11195 -2.21547,19.59252 -0.30626,5.17011 0.036,10.37722 -0.64673,15.52024 -5.32008,-4.51459 -10.47954,-11.32801 -18.123,-11.28816 -8.64191,0.52269 -14.41079,13.23558 -7.37813,19.21982 8.40372,9.31078 17.30515,18.15343 26.00797,27.18109 -0.35372,21.10704 -0.26614,42.25367 -0.81549,63.33827 -2.0162,3.35519 -6.55852,3.84117 -9.89521,5.4328 -10.77206,3.84192 -22.456,4.3586 -33.64323,2.80535 -23.336,-4.16139 -43.96332,-21.70809 -50.89322,-44.56161 -2.23274,-7.62427 -1.25862,-15.78131 -1.33143,-23.69704 0.43517,-12.17757 7.28061,-23.07659 14.77782,-32.27621 9.0178,-10.47 21.48035,-17.42248 34.65611,-21.41286 5.25247,-1.69382 11.26402,-4.82749 11.84967,-11.00569 0.84579,-9.28584 2.40553,-18.58937 7.26651,-26.7426 3.95782,-6.7119 9.59727,-12.58416 16.15945,-16.78132 7.5368,-4.47483 15.95467,-6.61222 24.67312,-6.26765 z m -248.00341,0.20273 c 7.46374,-0.11872 15.22666,-0.0626 21.96014,3.64009 12.29349,6.13986 22.73227,17.42325 25.48903,31.10211 1.96164,6.34444 1.31958,13.36336 4.15106,19.41384 4.47963,6.03919 12.72509,6.74798 19.1418,9.74821 18.95622,7.29341 34.75251,23.95176 39.7238,43.84746 1.17498,8.73385 0.88543,17.65067 0.36788,26.42482 -4.10608,18.22151 -17.41191,33.52123 -33.64692,42.31208 -9.23884,4.97549 -19.78164,7.06696 -30.19135,6.32574 -8.72016,-0.0325 -17.76134,-0.26525 -25.60478,-4.65262 -2.11274,-1.41111 -6.14667,-2.22831 -6.55353,-5.23918 3.15589,-6.41787 9.16294,-10.94972 13.80083,-16.28787 5.09076,-5.79633 11.54683,-10.73726 15.11716,-17.68708 1.65949,-6.0345 -3.49259,-11.9685 -8.67653,-14.35307 -5.20555,-2.07896 -9.85279,2.73137 -13.71754,5.49773 -2.07697,1.73541 -4.04844,3.59494 -6.1697,5.2779 -1.27762,-20.34738 -0.11971,-40.84872 -1.72779,-61.1959 -0.83273,-8.45151 -12.59926,-12.88799 -18.87472,-7.11275 -5.54513,3.72435 -4.44458,11.18126 -5.11236,16.93006 -0.76793,10.25867 0.0679,20.86258 -0.95256,30.94009 -10.48535,-3.44464 -19.909674,-9.48739 -30.057694,-13.81452 -6.246674,-2.48663 -12.427494,-6.38306 -19.306767,-6.45655 -7.942432,1.94907 -12.723766,14.01002 -5.904328,19.75285 10.691043,7.51533 22.925405,12.50688 34.389604,18.70735 7.038315,3.57781 14.076635,7.15562 21.114945,10.73342 0.0993,10.43167 0.19875,20.86333 0.29841,31.29499 -16.25798,8.26229 -35.713818,11.70974 -53.19913,5.18388 -24.6072,-8.14872 -44.378852,-32.27728 -44.016749,-58.82738 -0.103325,-20.78592 11.921176,-41.07474 29.665765,-51.53417 8.285434,-5.61461 18.08242,-8.01385 26.970384,-12.34852 6.298859,-3.19098 5.386088,-11.31401 6.589801,-17.11404 2.125856,-18.8903 17.123799,-35.58163 35.665329,-39.7994 3.07926,-0.5662 6.1533,-0.67851 9.26651,-0.70957 z m 111.62642,182.58998 c 0.70376,32.27432 0.3251,64.78365 0.46128,97.14578 -32.66104,-0.0928 -65.32569,-0.13743 -97.98064,0.60023 0.79589,-25.49189 0.46784,-51.10109 1.56492,-76.52733 11.21116,2.09696 22.54164,5.49714 34.15792,4.67551 23.04048,-0.48335 44.81566,-11.25908 61.68263,-26.51834 l 0.10468,0.57367 z m 27.38269,-0.10023 c 16.95138,15.0459 38.74803,26.26475 61.89293,25.65384 11.12885,0.4184 22.18583,-1.36806 32.79161,-4.66189 1.27428,1.85587 0.55957,5.66391 0.92841,8.25457 0.79973,22.75415 0.0817,45.53656 1.20937,68.28195 -22.06858,0.0979 -44.1732,0.56263 -66.1526,-0.28701 -10.58598,-0.0867 -21.1724,-0.0102 -31.75856,-0.0125 0.15359,-31.72045 -0.65736,-63.59899 0.44761,-95.22551 0.23175,-0.4106 -0.17386,-2.78854 0.64123,-2.00341 z"
     id="path865" />
  <path
     style="fill:#008000;fill-opacity:1;stroke:#1b3617;stroke-width:0.583143;stroke-opacity:1"
     d="m 255.41799,-2.862177 c -19.03802,0.4725792 -37.98745,6.4485092 -53.27997,17.934066 -13.88923,9.589639 -24.10158,23.580111 -31.02071,38.82903 -1.71088,3.076047 -2.79893,6.932824 -6.84737,7.504555 -16.00474,5.850731 -31.57235,14.003742 -43.49731,26.407087 -12.63941,11.885859 -21.390131,27.490659 -26.421825,43.997239 -5.784603,19.54022 -4.795825,40.50086 0.441801,60.04112 -0.109678,2.29414 -3.371771,3.59391 -4.764976,5.44705 -8.668113,7.73236 -17.353353,15.99012 -22.007311,26.87266 -3.918322,7.21125 -5.307305,15.44114 -8.823276,22.78951 -5.054252,3.61056 -11.403508,5.13614 -16.502339,8.80859 -18.55185,11.46783 -34.1411093,28.60071 -41.0247198,49.55255 -4.7106317,13.22107 -4.9057846,27.72577 -2.6984505,41.46232 7.9994381,41.45949 48.8778133,73.40029 91.0031293,71.45336 9.684655,-0.14771 19.188857,-2.14115 28.561787,-4.39641 0.4944,22.78426 0.5275,45.58628 0.84202,68.37698 -0.26505,1.89204 0.41148,4.6908 -0.49578,6.16402 -25.766417,0.8992 -51.588244,0.17918 -77.328014,1.68792 -6.012543,-0.0976 -11.15748,5.03784 -11.125284,11.01936 -0.171888,5.68885 3.782089,10.56342 8.041002,13.77563 142.024116,-0.14665 284.050136,0.14519 426.072876,-0.47836 4.89255,-0.33097 11.4841,0.45081 14.19021,-4.72893 4.4235,-5.51102 3.56152,-15.11001 -3.28132,-18.25057 -6.49099,-2.38493 -13.68976,-1.41924 -20.4738,-2.08428 -20.60627,-0.7224 -41.22759,-0.7592 -61.84397,-0.80866 -1.34312,-24.21152 0.21819,-48.53175 0.0774,-72.79431 -0.71238,-2.59662 1.50941,-1.61166 2.97596,-1.19708 11.93298,2.90926 24.24694,5.58943 36.5725,3.68656 20.98077,-2.31349 41.34888,-11.55073 55.83541,-27.08701 14.18312,-13.89027 24.33965,-32.4711 25.50737,-52.5323 1.68814,-18.81702 -2.84689,-38.28273 -13.91317,-53.73353 -9.86187,-15.10953 -24.58492,-26.35043 -40.70409,-34.1149 -3.3293,-2.27246 -8.81982,-3.41383 -8.97212,-8.3584 -3.60379,-18.24292 -15.07052,-34.11021 -29.20637,-45.82267 -1.64335,-1.99635 -5.54183,-3.74566 -3.87922,-6.86413 4.61605,-14.68318 4.5535,-30.39874 3.12318,-45.57857 -0.87389,-7.23248 -3.49225,-16.17486 -11.43622,-18.29727 -8.59243,-2.18623 -17.34838,6.79795 -15.20501,15.36105 1.05075,13.24024 1.44532,26.82231 -0.83144,40.00911 -0.34014,3.00101 -4.49764,1.3354 -6.44988,1.90433 -20.08789,-0.81207 -41.12638,4.95944 -55.97039,19.01024 -12.17656,10.68971 -20.0047,25.54862 -23.7517,41.17882 -0.50498,3.17943 -2.77938,5.41119 -5.80411,6.29954 -11.33663,4.50899 -21.25063,11.896 -30.61503,19.53873 -1.61942,-11.83941 -0.72219,-23.89667 -1.03986,-35.82232 0.0883,-11.93267 -0.13921,-23.88467 0.70956,-35.79613 19.48315,-9.36494 39.28742,-18.24388 57.92256,-29.23007 6.27603,-5.24496 3.51753,-15.6619 -3.07631,-19.33827 -5.03026,-3.81673 -11.11518,0.23564 -16.08943,1.9828 -13.00415,5.60437 -25.67265,11.94909 -38.73859,17.38509 -0.58126,-23.72063 -0.49054,-47.49243 -2.2483,-71.162871 -0.91152,-6.672485 -8.8985,-11.050464 -15.20273,-9.380411 -6.47293,1.586576 -9.70753,8.538562 -9.481,14.759272 -1.02484,11.93777 -0.3294,23.94316 -1.08961,35.8831 -16.30795,-6.10487 -31.55167,-15.61127 -48.42825,-20.55126 -8.03536,-1.70204 -15.16596,7.8751 -12.95102,15.32916 3.97943,7.93815 13.34552,10.74444 20.60542,14.76744 13.48601,6.68775 27.00009,13.32423 40.66109,19.64941 -0.0396,33.88449 0.72067,67.77526 0.12643,101.65604 -9.39104,-7.18716 -19.07087,-14.15372 -29.9328,-18.99545 -2.99326,-1.56764 -6.94244,-2.97232 -7.25088,-6.92499 -4.79693,-22.58662 -20.11412,-42.79157 -40.99172,-52.83468 -11.78891,-6.53719 -25.49713,-7.42909 -38.68786,-7.35099 -2.74562,0.0214 -6.20477,0.76081 -6.3577,-2.81871 -2.58923,-10.46178 -2.18372,-21.45997 -1.44419,-32.13326 3.18575,-22.4663 17.10351,-43.28735 37.15376,-54.178816 8.76011,-5.230149 18.79442,-7.844032 28.51253,-10.853075 7.68529,-2.885161 8.90903,-12.022938 12.06124,-18.559044 8.00636,-21.027382 27.95848,-36.763803 50.0686,-40.137995 8.92782,-0.115927 18.1442,-1.005396 26.86788,1.072893 20.65239,5.04528 38.12612,21.001604 45.33298,40.97053 2.45942,6.108399 4.16068,14.226683 11.23649,16.662724 6.4064,1.791003 13.08715,4.347726 19.82802,3.451026 7.71867,-1.196657 12.51276,-10.450276 8.87927,-17.41116 -2.6842,-5.992925 -10.41006,-6.30952 -14.57744,-10.594534 C 336.80355,44.142269 328.35942,30.33393 316.19242,20.18075 304.02173,9.0972126 288.61406,2.1624335 272.55455,-1.0137124 266.92452,-2.187943 261.18262,-3.0157923 255.41799,-2.862177 Z M 379.19362,210.06606 c 15.63232,-0.79472 31.0427,7.69949 39.02233,21.10167 5.15187,7.98208 7.09849,17.33402 8.16894,26.64497 0.68252,4.56608 2.64686,9.78249 7.70515,10.90441 11.68337,4.89956 24.36834,8.52451 33.6266,17.70432 12.6327,11.30999 21.15407,27.96386 20.20739,45.22319 0.29415,13.82996 -4.79046,27.69656 -14.31219,37.85777 -11.13226,13.21746 -27.71204,22.21365 -45.15171,22.37915 -7.66036,0.89202 -15.62402,-0.60516 -22.95348,-2.35404 -4.48521,-1.30026 -8.77562,-3.15894 -13.02488,-5.07534 0.28251,-10.27927 -0.51692,-20.72559 0.78133,-30.85762 17.59323,-9.33858 35.75057,-17.68238 52.86599,-27.88611 6.86795,-3.56283 6.74847,-13.95397 1.20234,-18.65148 -2.69792,-3.37165 -7.30486,-4.3676 -11.20729,-2.56264 -14.75423,5.42247 -28.54566,13.20013 -42.96014,19.3656 -0.86233,-23.19444 -0.0179,-46.72111 -2.28246,-69.9328 -0.36105,-8.81045 -11.9057,-13.45887 -18.73575,-8.36674 -6.49378,4.19889 -5.61287,12.76703 -6.24652,19.46037 -0.72019,6.17364 0.21352,12.47935 -0.79677,18.59202 -1.65646,-0.38671 -3.82471,-3.44105 -5.82402,-4.81477 -4.16544,-3.63427 -10.41068,-7.331 -15.82973,-3.98591 -6.08858,3.18524 -9.60357,12.43544 -4.28361,17.85079 8.27627,9.87572 17.6457,18.76494 26.51367,28.09795 -0.39719,20.7272 -0.51014,41.48009 -0.83599,62.1959 -1.85691,3.72828 -6.86495,4.26014 -10.33941,5.85877 -10.28792,3.32939 -21.34886,4.20772 -32.01708,2.56492 -23.17499,-3.71032 -43.46643,-21.15023 -50.62073,-43.4738 -2.30314,-9.73488 -2.26983,-19.99114 -0.67653,-29.84624 2.72606,-12.83194 10.75199,-24.04425 20.37097,-32.68004 8.6822,-7.70329 19.63634,-11.89332 30.36833,-15.83038 4.78122,-1.81122 9.43738,-5.53152 9.63313,-11.05336 1.2295,-10.75517 3.49301,-21.80512 10.46242,-30.51709 8.45445,-11.63137 22.66563,-18.77367 37.1697,-17.91344 z m -246.79498,0.0103 c 8.89766,-0.16712 18.33891,1.1921 25.62186,6.69476 11.00762,7.02918 18.85069,18.57701 20.66611,31.61475 1.52014,5.62878 0.74555,12.3759 4.69038,17.0595 6.12937,5.53935 14.89757,6.40374 22.00684,10.26766 16.94858,7.81404 30.8317,23.27911 35.33599,41.57745 1.14632,8.57323 0.81229,17.32696 0.43736,25.94988 -4.59385,21.22872 -21.67529,38.74681 -41.93964,45.87699 -9.71224,3.41082 -20.23514,2.31378 -30.31549,2.15718 -7.86531,-0.16665 -15.67613,-3.10156 -21.94419,-7.74716 -0.0757,-3.41864 3.43571,-5.85278 5.29442,-8.47361 7.09321,-8.22143 15.35112,-15.48451 21.86503,-24.17445 3.79775,-6.16442 -0.82976,-13.62352 -6.49089,-16.67084 -5.02045,-3.35566 -10.4123,1.1018 -14.36275,4.0215 -2.12534,1.6121 -4.07711,3.5524 -6.29783,4.93408 -1.28723,-19.84526 -0.24608,-39.8768 -1.98309,-59.71902 -1.07192,-9.29604 -14.91852,-13.59633 -20.89049,-6.14316 -4.79957,4.43459 -3.37261,11.58205 -4.18742,17.40809 -0.74348,9.47821 -0.0703,19.22894 -1.16907,28.55774 -10.58001,-3.48664 -20.315755,-9.39042 -30.587967,-13.80251 -6.185497,-2.37006 -12.579298,-6.61517 -19.466706,-5.39112 -6.711142,2.492 -10.011571,11.69697 -6.733482,17.96469 4.343894,5.51512 11.499309,7.73962 17.33836,11.28422 13.108605,6.81612 26.299745,13.47162 39.450925,20.20553 1.29497,10.15814 0.50175,20.62015 0.78133,30.92369 -11.8331,5.48571 -24.661222,9.00813 -37.850959,7.71792 -31.068141,-2.02434 -58.764274,-30.36974 -58.129679,-61.9104 0.30427,-16.19834 7.630864,-32.0412 19.783021,-42.84883 9.853219,-9.9132 23.613088,-13.86773 35.949046,-19.69046 4.151008,-1.75915 6.049524,-6.08099 6.356847,-10.34848 1.444989,-10.20381 3.296609,-20.71162 9.970307,-28.97327 8.433957,-11.22515 21.977447,-19.0262 36.305207,-18.31714 l 0.4875,-0.005 z M 270.66857,393.4784 c 14.94093,12.24555 32.62479,22.67205 52.26195,24.24487 13.42318,1.06397 27.07783,0.42636 40.01936,-3.53758 2.62491,-1.39128 1.6315,2.16568 1.94533,3.66856 0.56847,23.56461 0.50447,47.14159 1.2164,70.70387 -17.53808,1.0932 -35.15176,0.64245 -52.71526,0.44875 -14.63885,-0.83415 -29.35298,-0.20157 -44.01936,-0.34283 0.22798,-31.88071 0.46906,-63.76164 0.66857,-95.64236 l 0.4703,0.34477 z m -28.6606,0.71298 c 0.58171,31.26071 0.47384,62.52932 0.67085,93.79385 -17.80248,1.1604 -35.99325,0.38971 -53.95102,0.63614 -14.15266,-0.18663 -28.48559,0.57235 -42.52962,0.20213 -0.57262,-13.81614 0.43088,-27.69754 0.42409,-41.53683 0.34031,-10.93304 0.065,-22.24535 0.86521,-32.95064 13.13949,2.15237 26.45453,6.08803 39.91147,3.77941 20.19029,-1.82297 38.51847,-12.04358 54.05285,-24.54874 0.92038,-0.87632 0.40931,0.0761 0.55617,0.62468 z"
     id="path869" />
  <path
     id="path852"
     d="m 253.96067,-3.3188946 c -30.69479,0.698102 -60.53926,17.6949306 -76.37927,44.0728916 -4.06872,5.917042 -6.3407,13.001496 -10.79271,18.616174 -7.51256,3.593162 -15.4545,6.346386 -22.68381,10.580311 -33.41678,17.018617 -55.169395,54.128608 -54.287099,91.551788 -0.06434,9.96247 1.764848,19.79817 4.041522,29.44534 -0.559998,4.18164 -5.300267,6.13493 -7.806005,9.1297 -9.958662,8.64574 -17.934911,19.60395 -22.106293,32.18465 -1.923942,4.64615 -2.940414,9.82972 -5.543281,14.11162 -8.058536,5.12589 -17.066274,8.74297 -24.541173,14.82322 -21.187794,15.68719 -36.8677437,40.60335 -36.6959391,67.52857 -1.5999673,29.93987 15.4901121,58.85622 40.3459631,74.82438 14.078773,9.17427 30.484209,15.3549 47.461762,15.16323 11.107758,0.59456 22.088433,-1.42066 32.837133,-4.00113 0.43527,24.26816 0.88896,48.57451 0.57289,72.83029 -24.790375,0.88958 -49.993271,0.4329 -74.908081,1.86869 -5.382943,0.0843 -11.547608,2.35142 -13.008772,8.12106 -2.487836,6.74844 2.245532,13.94606 7.585421,17.69817 133.507002,-0.005 267.015272,0.52812 400.521502,-0.0351 11.71746,-0.37382 23.53435,0.37069 35.19147,-0.89882 6.73612,-2.60157 10.09912,-11.52464 7.04442,-18.05808 -2.40735,-6.32211 -10.1045,-6.74139 -15.83002,-7.11466 -23.65879,-1.38144 -47.42763,-0.62296 -71.06292,-1.89446 -0.67337,-24.10662 -0.64995,-48.25216 0.0171,-72.35876 12.8791,2.61984 26.03088,5.99757 39.26538,3.88725 20.45894,-2.30792 40.16868,-11.32799 54.61162,-26.1139 15.17109,-14.37982 25.82251,-34.00424 27.08504,-55.09067 1.47357,-20.91582 -4.84661,-42.41286 -18.3111,-58.61674 -10.50292,-13.81167 -25.51562,-23.24848 -40.75685,-30.92471 -5.77514,-2.7234 -4.99605,-9.80277 -7.29841,-14.86104 -5.44483,-16.21547 -17.50008,-28.93825 -29.90319,-40.20046 -1.93502,-3.14608 1.03061,-6.78482 1.24981,-10.0945 2.59199,-13.38418 2.45175,-27.23918 0.9142,-40.74376 -0.94818,-7.19637 -4.71693,-16.04068 -12.90433,-16.95217 -6.3756,-0.86192 -12.72405,3.89855 -14.46703,9.80154 0.29469,15.39443 1.41991,30.97052 -0.97488,46.19618 -0.8901,1.95739 -4.11082,0.61643 -5.93963,1.05647 -20.82029,-0.1297 -42.82257,5.7179 -57.66578,21.06249 -11.72042,10.49159 -18.68548,25.18484 -22.64972,40.18173 -1.84344,5.67014 -8.75381,6.45391 -13.12618,9.41286 -7.96377,4.04285 -15.03204,9.53536 -22.11641,14.89465 -0.58062,-22.87337 -0.84103,-45.78413 -0.18992,-68.65729 0.39569,-3.01912 5.28265,-2.97157 7.49046,-4.76193 16.85009,-8.15878 33.94889,-15.97997 50.00128,-25.64228 6.81051,-5.55266 3.74113,-17.04159 -3.5672,-20.66515 -5.63407,-3.37723 -11.83333,1.04286 -17.19099,2.90156 -12.29466,5.33514 -24.5133,11.21245 -36.77256,16.40026 0.0556,-23.056 -0.77353,-46.12619 -2.06151,-69.144644 -0.58102,-9.65148 -14.00339,-15.088599 -20.98177,-8.203867 -6.56755,5.708969 -5.05467,15.240061 -5.59084,22.990801 -0.18866,8.13676 0.15038,16.31101 -0.75654,24.41466 -15.49677,-6.00281 -29.95161,-14.61894 -45.86446,-19.55808 -6.20284,-2.33282 -12.90585,2.04593 -14.78588,8.05353 -2.07491,4.96774 0.16832,10.59819 4.46697,13.55239 8.19824,5.69687 17.59508,9.48299 26.39533,14.163 9.83302,4.88623 19.74657,9.60704 29.6639,14.31877 0.0243,33.23624 0.43718,66.59801 0.0501,99.75968 -9.41536,-6.9817 -19.37422,-13.59014 -30.01038,-18.74744 -2.45936,-1.35853 -5.43701,-2.67265 -5.63199,-5.92568 -3.58816,-16.1194 -12.35021,-30.91975 -24.79109,-41.78604 -13.0992,-11.93106 -30.70473,-18.89752 -48.48682,-18.4463 -3.96019,-0.42099 -8.56475,1.00963 -12.0763,-1.18679 -2.9885,-7.7721 -2.32515,-16.38946 -2.48008,-24.60119 -0.38704,-29.43944 20.15155,-57.365769 47.62695,-67.24752 7.11205,-3.230417 15.34345,-4.035446 21.84287,-8.512338 5.67574,-5.654445 6.97792,-14.10799 10.67996,-20.984051 6.39783,-13.220276 17.78891,-23.771133 30.92255,-30.158314 9.20437,-4.4143 19.35913,-5.845674 29.5009,-5.043869 9.2335,-0.118576 18.30366,1.402483 26.45358,6.02427 14.58833,6.837806 25.85619,19.827433 31.72661,34.763331 2.79609,6.811583 4.96819,15.995358 13.11617,18.176542 6.92533,1.959321 14.51103,4.51749 21.67312,2.384964 8.39609,-3.241689 10.86088,-16.199435 3.20957,-21.552389 -3.85611,-2.997072 -9.63346,-3.673833 -11.81549,-8.604784 C 336.00952,42.575596 327.96701,29.206649 316.23673,19.234841 299.26565,4.5259722 276.33902,-3.4611374 253.96067,-3.3188946 Z M 377.36499,210.89408 c 7.55024,-0.1765 15.0411,0.37712 21.86788,3.94534 11.68866,5.85733 20.95047,17.15208 24.04128,30.00412 2.40661,7.26832 1.43937,15.9709 6.48264,22.15874 6.11214,3.80326 13.33563,5.60123 19.81713,8.75502 19.00394,7.72313 34.07303,25.76509 37.1954,46.15386 1.36027,13.64261 -0.0365,27.86372 -7.83757,39.49845 -11.00995,17.05188 -30.18623,29.6406 -50.83342,29.81259 -12.01518,1.07176 -23.9892,-2.23456 -34.95885,-7.0673 0.26857,-10.07366 -0.31704,-20.21583 0.82801,-30.24488 18.02302,-9.56665 36.62919,-18.12977 54.07973,-28.72437 5.29293,-4.44549 5.03089,-12.95627 0.39522,-17.7836 -2.93597,-3.82913 -8.29529,-5.6468 -12.73121,-3.3041 -14.35084,5.33105 -27.85447,12.64339 -41.89749,18.68679 -0.60062,-22.78012 -0.23327,-45.63631 -2.33143,-68.3451 -0.11863,-7.06073 -7.62228,-12.50053 -14.32461,-11.6082 -6.64959,1.08496 -11.32096,7.38973 -11.24259,13.98633 -0.77414,8.59081 -0.41954,17.22909 -1.4442,25.78702 -4.36213,-3.90533 -8.97154,-8.67317 -15.03758,-9.50456 -7.85991,-0.78491 -14.7214,7.67306 -13.34966,15.15262 3.33207,7.45026 10.11501,12.64986 15.39201,18.68186 4.58882,4.73707 9.20267,9.44923 13.80503,14.17349 -0.93209,19.69369 -0.51017,39.41901 -1.05467,59.11504 0.35385,3.21381 -2.06464,5.46143 -4.98975,6.14692 -10.81117,4.57622 -22.81763,5.43788 -34.35763,4.68907 -24.28608,-3.1389 -46.12518,-21.18397 -52.73349,-44.86674 -1.55851,-9.88719 -1.65133,-20.08373 0.15262,-29.94419 5.41669,-19.26156 21.0264,-35.04956 39.66857,-42.16629 6.22449,-3.01273 14.51015,-3.95832 18.40433,-10.32233 3.18971,-7.43229 2.53321,-15.87769 5.62756,-23.3804 5.65478,-15.77715 20.4856,-28.25951 37.40888,-29.36561 1.31331,-0.0818 2.6214,-0.11229 3.95786,-0.11959 z m -244.31434,0.24032 c 7.76835,-0.39551 15.88037,0.43075 22.48435,4.92906 11.6545,6.92214 20.64401,18.67761 22.47236,32.3124 1.51036,6.98841 1.30992,16.32049 8.57859,20.17084 8.77899,4.3332 18.53774,6.67312 26.63668,12.40205 13.01544,8.35701 23.87806,21.88799 26.73918,37.14578 1.34219,12.71973 2.36294,26.57942 -4.16195,38.2777 -8.75856,16.17309 -24.00947,29.50847 -42.21505,33.5059 -10.45152,1.65878 -21.23815,1.21854 -31.65261,-0.24487 -4.98436,-1.22163 -10.16476,-3.13225 -14.03304,-6.5467 -0.23686,-2.97528 3.19718,-4.98914 4.64845,-7.32585 7.216,-8.72545 16.18798,-16.05432 22.42786,-25.57278 3.17955,-5.49254 -0.95974,-12.14813 -5.43393,-15.51481 -4.65843,-3.57874 -11.00607,-1.73765 -14.99317,1.93053 -2.3298,1.68056 -4.55425,3.4998 -6.81549,5.26993 -1.16299,-14.05278 -0.47035,-28.44928 -1.28701,-42.62642 -0.63872,-6.38571 0.24201,-13.14792 -1.91003,-19.26993 -3.83541,-7.87707 -16.46883,-9.63067 -21.64123,-2.15832 -4.37795,5.70915 -3.03298,13.53669 -3.78588,20.25171 -0.3939,8.03916 -0.21266,16.39504 -0.97152,24.22665 -14.91478,-5.18374 -28.321546,-14.17387 -43.518225,-18.62642 -8.168528,-2.61019 -15.652889,6.34819 -14.358765,14.08997 -0.02967,6.5714 6.861738,9.36072 11.647772,12.11689 14.956412,8.29458 30.426328,15.68492 45.439918,23.80338 2.2196,1.59081 0.64013,5.25242 1.29157,7.62985 0.26475,7.57447 0.36797,15.15332 0.5467,22.73006 -9.64038,4.05154 -19.782051,7.60169 -30.359679,7.35345 -25.63353,1.79116 -50.585126,-15.28978 -60.216625,-38.817 -7.925443,-18.13659 -4.746315,-39.71276 6.869904,-55.52139 7.822243,-11.22848 19.645599,-18.49523 32.096027,-23.56162 5.075121,-2.59763 11.070752,-3.91865 15.412197,-7.71426 4.380615,-6.62828 3.589802,-15.20156 6.075685,-22.50478 3.127025,-12.16823 12.226611,-22.15745 23.032521,-28.08177 5.80708,-3.14544 12.33609,-4.52964 18.94305,-4.05635 0.67046,-9.5e-4 1.34092,-0.002 2.01139,-0.003 z M 241.2978,395.39636 c 0.56347,30.5684 0.74642,61.33024 0.0968,91.79384 -18.1448,0.9677 -36.35801,0.45242 -54.52847,0.83372 -13.29765,0.11047 -26.5953,0.22095 -39.89294,0.33143 -1.07686,-11.68122 0.26277,-23.48373 0.20487,-35.20839 0.4119,-12.60331 0.22596,-25.45754 1.01836,-37.91234 13.71291,2.14018 27.62521,5.89945 41.55974,3.16444 18.63509,-2.3007 35.59397,-11.42342 50.18267,-22.87579 0.53171,-0.0759 1.73356,-1.97347 1.35896,-0.12691 z m 29.90888,-0.52734 c 15.83137,12.12328 34.17574,22.87189 54.61617,23.66401 12.53349,0.67273 25.18509,-0.25824 37.29043,-3.6959 2.05539,-0.51832 0.6072,3.33899 1.15426,4.5985 0.55045,22.76901 0.17729,45.58006 1.438,68.32177 -13.82228,0.92944 -27.74308,0.23962 -41.60131,0.40008 -18.03721,-0.0734 -36.07389,-0.23578 -54.11053,-0.3921 0.32927,-30.99447 0.2627,-61.99681 1.05922,-92.98406 z"
     style="fill:#003000;stroke:#1b3617;stroke-width:0.583143" />
</svg>
