<?xml version="1.0" encoding="UTF-8" standalone="no"?>
<svg
   xmlns:dc="http://purl.org/dc/elements/1.1/"
   xmlns:cc="http://creativecommons.org/ns#"
   xmlns:rdf="http://www.w3.org/1999/02/22-rdf-syntax-ns#"
   xmlns:svg="http://www.w3.org/2000/svg"
   xmlns="http://www.w3.org/2000/svg"
   xmlns:sodipodi="http://sodipodi.sourceforge.net/DTD/sodipodi-0.dtd"
   xmlns:inkscape="http://www.inkscape.org/namespaces/inkscape"
   inkscape:version="1.0 (6e3e5246a0, 2020-05-07)"
   sodipodi:docname="rain.svg"
   id="svg34"
   preserveAspectRatio="xMidYMid meet"
   viewBox="0 0 1280.000000 1268.000000"
   height="1268.000000pt"
   width="1280.000000pt"
   version="1.0">
  <defs
     id="defs38" />
  <sodipodi:namedview
     inkscape:current-layer="svg34"
     inkscape:window-maximized="1"
     inkscape:window-y="27"
     inkscape:window-x="67"
     inkscape:cy="838.59377"
     inkscape:cx="853.33333"
     inkscape:zoom="0.51932177"
     showgrid="false"
     id="namedview36"
     inkscape:window-height="1025"
     inkscape:window-width="1853"
     inkscape:pageshadow="2"
     inkscape:pageopacity="0"
     guidetolerance="10"
     gridtolerance="10"
     objecttolerance="10"
     borderopacity="1"
     bordercolor="#666666"
     pagecolor="#ffffff" />
  <metadata
     id="metadata2">
Created by potrace 1.15, written by Peter Selinger 2001-2017
<rdf:RDF>
  <cc:Work
     rdf:about="">
    <dc:format>image/svg+xml</dc:format>
    <dc:type
       rdf:resource="http://purl.org/dc/dcmitype/StillImage" />
  </cc:Work>
</rdf:RDF>
</metadata>
  <g
     id="g32"
     stroke="none"
     fill="#000000"
     transform="translate(0.000000,1268.000000) scale(0.100000,-0.100000)">
    <path
       id="path4"
       d="M6710 12673 c-25 -2 -90 -10 -145 -19 -533 -81 -1001 -335 -1367 -742 l-65 -73 -84 45 c-869 470 -1958 306 -2664 -399 -315 -316 -513 -683 -619 -1147 -5 -23 -15 -30 -64 -43 -136 -38 -306 -101 -427 -160 -670 -328 -1136 -962 -1251 -1705 -22 -142 -25 -491 -6 -625 145 -1004 882 -1768 1877 -1946 113 -21 162 -24 380 -23 266 0 345 8 545 59 229 58 493 173 681 296 l93 61 51 -12 c284 -67 433 -84 678 -77 181 5 335 26 492 65 l70 18 75 -60 c307 -244 686 -408 1083 -466 150 -23 445 -27 587 -10 416 52 839 229 1148 481 l73 60 89 -51 c268 -153 567 -253 875 -291 117 -14 417 -14 525 0 225 30 486 103 667 186 l83 38 127 -19 c170 -25 470 -25 633 0 515 79 970 315 1323 686 325 342 525 752 603 1235 22 136 25 485 6 620 -99 685 -474 1268 -1050 1632 -320 202 -774 341 -1120 343 l-72 0 -113 113 c-388 393 -872 620 -1432 672 l-70 7 -56 102 c-268 481 -730 863 -1260 1039 -272 91 -610 132 -899 110z" />
    <path
       id="path6"
       d="M3943 5543 c-60 -12 -557 -585 -717 -828 -121 -183 -153 -279 -143 -435 17 -274 207 -501 474 -565 101 -24 243 -17 340 17 182 65 322 205 385 388 34 96 32 291 -5 496 -41 230 -114 542 -187 794 -38 134 -56 151 -147 133z" />
    <path
       id="path8"
       d="M7553 5543 c-44 -9 -441 -455 -632 -712 -183 -246 -226 -345 -225 -521 1 -87 5 -119 27 -183 71 -205 236 -360 442 -412 76 -19 214 -19 290 0 114 29 203 81 290 169 87 88 133 167 161 278 42 162 -10 521 -156 1079 -84 320 -86 323 -197 302z" />
    <path
       id="path10"
       d="M11163 5542 c-43 -13 -429 -447 -608 -684 -112 -148 -183 -261 -217 -348 -19 -47 -22 -75 -23 -190 0 -116 3 -145 23 -202 83 -241 300 -403 555 -416 288 -14 526 153 623 438 52 154 -10 582 -171 1167 -58 213 -75 244 -129 242 -17 -1 -41 -4 -53 -7z" />
    <path
       id="path12"
       d="M5303 4620 c-32 -7 -108 -82 -289 -285 -275 -308 -453 -545 -526 -702 -160 -341 44 -750 422 -844 30 -7 98 -13 150 -13 257 3 483 165 572 410 57 160 23 475 -107 991 -115 455 -122 467 -222 443z" />
    <path
       id="path14"
       d="M8918 4623 c-62 -10 -548 -565 -723 -828 -117 -174 -145 -252 -145 -404 0 -166 54 -301 169 -423 117 -125 263 -190 431 -192 109 -1 176 13 275 59 161 73 293 232 336 405 38 151 -2 451 -127 955 -76 304 -102 388 -130 413 -25 22 -32 23 -86 15z" />
    <path
       id="path16"
       d="M6664 3698 c-36 -8 -56 -24 -141 -116 -446 -484 -663 -775 -717 -961 -26 -88 -21 -243 9 -339 38 -120 119 -237 214 -307 249 -182 575 -163 794 45 154 146 210 310 186 544 -23 233 -110 641 -210 986 -41 140 -62 163 -135 148z" />
    <path
       id="path18"
       d="M10275 3696 c-33 -9 -64 -36 -167 -146 -229 -245 -448 -510 -562 -680 -118 -176 -152 -277 -143 -435 11 -209 121 -393 298 -498 393 -232 898 31 926 482 9 154 -46 484 -152 896 -81 315 -95 356 -130 376 -25 13 -37 14 -70 5z" />
    <path
       id="path20"
       d="M3024 3691 c-21 -9 -181 -177 -320 -336 -334 -382 -485 -607 -520 -775 -66 -312 148 -639 466 -714 320 -76 654 127 737 447 33 128 3 402 -83 776 -61 263 -142 554 -162 580 -20 28 -78 38 -118 22z" />
    <path
       id="path22"
       d="M4393 2773 c-52 -10 -509 -527 -687 -776 -73 -102 -134 -214 -157 -287 -26 -81 -28 -236 -4 -324 55 -207 237 -387 444 -441 80 -20 226 -21 304 0 214 56 381 217 442 430 38 130 13 383 -76 779 -42 185 -130 519 -150 569 -20 48 -52 62 -116 50z" />
    <path
       id="path24"
       d="M8008 2773 c-20 -3 -62 -41 -146 -131 -367 -391 -619 -720 -689 -897 -24 -63 -27 -83 -28 -195 0 -106 4 -136 24 -199 51 -154 171 -292 316 -361 105 -49 159 -62 276 -61 171 1 306 58 430 181 132 131 188 282 176 474 -12 181 -60 441 -147 786 -65 257 -98 362 -121 387 -22 22 -34 25 -91 16z" />
    <path
       id="path26"
       d="M2140 1850 c-38 -9 -111 -81 -304 -300 -315 -356 -486 -591 -536 -733 -64 -182 -38 -378 72 -543 120 -179 332 -285 545 -271 268 18 498 208 563 465 16 62 14 241 -5 362 -43 285 -196 924 -238 990 -9 15 -52 43 -60 39 -1 -1 -18 -5 -37 -9z" />
    <path
       id="path28"
       d="M5754 1848 c-37 -8 -57 -26 -177 -156 -415 -451 -636 -753 -682 -929 -20 -75 -19 -210 1 -292 41 -165 176 -333 326 -405 151 -72 315 -84 465 -33 99 34 156 69 233 143 109 104 175 239 187 378 15 179 -82 690 -222 1171 -36 124 -52 139 -131 123z" />
    <path
       id="path30"
       d="M9371 1850 c-41 -10 -105 -72 -291 -280 -375 -422 -535 -650 -576 -827 -33 -139 1 -322 82 -451 170 -269 502 -365 789 -229 142 68 265 205 316 354 21 60 24 85 23 218 -1 187 -36 394 -135 785 -72 288 -105 393 -134 418 -14 12 -29 22 -33 21 -4 -1 -22 -5 -41 -9z" />
  </g>
  <path
     transform="scale(0.75000002)"
     id="path40"
     d="M 910.30368,1.2110146 C 824.41146,2.3496856 741.04526,44.889293 686.30918,110.53746 c -7.43395,1.86844 -16.88506,-7.63055 -25.24953,-10.10889 -81.31056,-39.221471 -180.32699,-39.651585 -261.12894,1.1722 -82.28014,39.61674 -143.71344,118.35673 -163.68796,207.30096 -2.33088,10.83249 -16.83008,9.72976 -24.73899,14.36206 C 117.1988,352.37874 41.112951,431.1551 12.969957,525.43931 -0.35619414,564.57193 1.233951,606.7653 2.667735,647.49106 c 11.829016,99.40103 76.8166,190.91106 167.119305,234.37581 41.64377,20.49149 88.07,32.42527 134.68588,29.82865 41.41671,2.21593 82.38168,-7.75432 120.0163,-24.59467 18.90424,-8.05659 36.79554,-18.28635 53.76055,-29.85294 31.13039,7.29679 62.80799,12.92559 94.92142,10.75619 26.62274,0.77816 52.90356,-3.7467 78.68617,-9.98145 68.95557,58.15358 163.92792,85.39654 252.87243,67.48046 51.90595,-10.42764 100.83701,-34.43986 141.75661,-67.92047 48.7121,26.74829 102.6481,47.11123 158.9738,46.29367 46.9254,1.5639 93.2501,-10.0914 135.9647,-28.89945 15.9717,-2.92425 32.2149,3.36146 48.4594,1.93688 38.4652,0.48867 77.6662,-1.72085 113.7789,-16.22083 92.9981,-31.66288 166.8413,-111.8223 192.0075,-206.64701 10.846,-40.33896 11.6162,-83.09906 7.1115,-124.43294 -16.782,-108.10804 -95.7838,-204.98391 -200.3041,-239.11123 -31.8663,-11.09547 -65.3903,-16.43723 -98.9944,-18.42962 -44.5275,-46.74431 -100.7143,-85.07873 -165.1514,-96.8797 -15.952,-3.59655 -32.1522,-6.01006 -48.4761,-7.0419 C 1142.5427,74.355514 1044.2435,6.019201 938.32249,1.8503702 928.9954,1.2814937 919.64708,1.063707 910.30368,1.2110146 Z"
     style="fill:#000080;stroke-width:1.92559" />
  <path
     transform="scale(0.75000002)"
     id="path42"
     d="m 530.7559,950.9323 c -15.65613,4.92119 -24.64883,21.01056 -36.06718,31.82487 -28.34714,33.55433 -59.78839,65.99563 -78.88143,106.03143 -16.02854,42.7676 12.12819,94.4878 56.20311,105.4787 30.05041,6.9175 64.30981,-2.1217 83.66908,-27.0861 24.79815,-27.9533 18.32448,-68.175 12.45059,-101.7411 -7.5626,-36.0038 -14.79092,-72.42973 -27.30244,-107.07247 -1.75778,-3.99742 -5.33245,-7.83912 -10.07173,-7.43533 z"
     style="fill:#000080;stroke-width:1.92559" />
  <path
     transform="scale(0.75000002)"
     id="path44"
     d="m 1012.2997,950.36064 c -17.77573,9.09596 -29.74333,26.72487 -43.55003,40.76726 -25.65481,30.7494 -53.49064,60.9387 -70.99617,97.3147 -5.93273,15.4756 -4.6815,33.0847 -2.14748,49.159 10.37172,32.4334 40.73006,58.4296 75.44395,59.0463 39.42433,3.5158 76.64833,-28.1749 83.89853,-66.0868 1.5941,-54.4242 -13.3569,-107.714 -27.8346,-159.67338 -2.9901,-6.9138 -4.8132,-20.55252 -14.8142,-20.52708 z"
     style="fill:#000080;stroke-width:1.92559" />
  <path
     transform="scale(0.75000002)"
     id="path46"
     d="m 712.52468,1073.6133 c -16.37625,4.7301 -25.80499,21.4929 -37.63713,32.639 -28.67828,34.0023 -61.76543,66.3728 -79.02269,108.1133 -17.15215,44.0911 17.25522,97.6129 62.91258,104.5647 22.814,2.454 47.21542,-0.9922 65.01118,-16.6157 19.24938,-15.0646 32.19748,-38.7576 29.98953,-63.6385 -1.43421,-49.9781 -15.36786,-98.6295 -28.80108,-146.465 -3.01777,-5.8771 -4.13356,-17.8225 -12.45239,-18.5978 z"
     style="fill:#000080;stroke-width:1.92559" />
  <path
     transform="scale(0.75000002)"
     id="path48"
     d="m 589.64054,1320.0623 c -16.70767,9.0179 -28.06372,25.8874 -41.37495,39.1575 -27.14914,32.0067 -57.46449,63.1225 -74.23933,102.1777 -2.90722,16.3288 -3.29524,33.8891 0.60926,50.0804 12.85413,32.3025 46.18414,59.1511 82.34005,54.3538 34.20735,0.175 65.28739,-27.2528 73.96734,-59.5665 5.67942,-46.2984 -7.82966,-92.2341 -18.27938,-136.9033 -5.6098,-15.7135 -5.99523,-35.0618 -17.84421,-47.735 -1.4994,-1.0643 -3.34057,-1.6248 -5.17878,-1.5646 z"
     style="fill:#000080;stroke-width:1.92559" />
  <path
     transform="scale(0.75000002)"
     id="path50"
     d="m 408.71421,1197.4866 c -12.872,5.0677 -20.61358,18.5976 -30.84703,27.4622 -31.48581,34.6891 -64.20162,70.0224 -83.9361,113.0305 -4.42767,15.2897 -3.83878,32.2727 -0.52277,47.7449 11.88759,34.6572 47.69986,62.0643 85.30197,56.7141 35.41899,-1.2087 66.67162,-30.7751 73.55156,-64.8866 2.5637,-54.7424 -14.53694,-107.8131 -28.07147,-160.1849 -2.59762,-8.2746 -4.7832,-19.2621 -15.47616,-19.8802 z"
     style="fill:#000080;stroke-width:1.92559" />
  <path
     transform="scale(0.75000002)"
     id="path52"
     d="m 289.42927,1443.7964 c -14.92002,4.4356 -23.52636,19.8551 -34.61769,29.8175 -28.3772,32.9209 -59.72919,64.6903 -79.12366,104.0448 -19.37261,40.7526 5.60787,92.753 47.26717,107.4418 17.5796,6.1661 37.84293,5.5196 55.45846,-0.1617 34.58587,-12.3561 59.08346,-49.4956 53.13044,-86.3469 -5.42614,-48.2166 -16.63159,-95.8076 -30.65268,-142.1971 -2.11607,-4.9595 -4.82966,-12.7425 -11.46204,-12.5984 z"
     style="fill:#000080;stroke-width:1.92559" />
  <path
     transform="scale(0.75000002)"
     id="path54"
     d="M 904.94436,1.3012766 C 825.27528,3.5945432 748.80392,42.258142 695.00633,100.31865 c -5.29506,3.86498 -10.14868,14.4982 -17.46193,7.928 C 632.11461,83.572561 580.66982,70.175574 528.86796,71.575396 439.38891,70.213572 352.22907,115.08077 296.48088,184.25257 c -30.5955,35.98249 -49.02082,80.25874 -61.35922,125.39109 -2.75877,10.7138 -17.14775,9.04208 -25.12364,13.74049 C 100.53879,358.8787 14.131539,461.15209 2.5955653,576.34141 c -4.950871,52.59812 0.919583,106.73136 23.1145837,155.1039 41.572752,97.79659 138.527141,169.37037 244.267661,179.84318 32.03188,-0.21724 64.57022,1.62922 96.20918,-4.10146 40.1029,-9.89181 78.16867,-27.1849 112.78863,-49.61943 54.32759,13.33832 111.73662,16.13626 166.24473,2.14141 11.27042,-3.85133 18.48454,10.2292 28.00902,14.71887 56.73528,39.97947 127.58196,61.63306 197.08825,54.95439 56.01612,-2.10864 109.83591,-24.63993 155.57028,-56.1279 9.1211,-3.95466 17.0289,-20.21373 27.267,-11.8385 46.3207,23.81662 96.9909,44.42585 150.0827,41.55637 30.7666,1.09177 61.8598,-0.67863 91.1453,-10.95848 20.6149,-4.48447 38.9577,-18.73775 60.7392,-15.67832 43.6151,-1.83323 88.8156,4.97045 130.9445,-9.59455 88.4257,-25.49999 164.3044,-92.21874 197.9022,-178.2807 14.4486,-33.81642 21.7129,-70.32841 21.035,-107.10924 1.88,-37.09631 -3.6516,-74.34068 -17.4807,-108.88225 -16.6362,-46.32074 -44.6922,-88.14539 -81.4412,-120.92102 -53.5774,-50.83487 -127.8471,-75.75847 -200.6914,-79.49438 -43.0684,-42.03331 -93.4058,-79.56758 -152.8436,-93.9815 -20.4336,-5.46471 -41.4702,-8.04598 -62.4274,-10.55689 C 1147.6444,85.00228 1066.7105,22.311031 975.02902,5.7504389 951.8867,1.9837967 928.35464,1.1754473 904.94436,1.3012766 Z"
     style="fill:#000080;stroke-width:1.92559" />
  <path
     transform="scale(0.75000002)"
     id="path56"
     d="m 771.76285,1443.3188 c -17.37228,5.897 -27.43455,23.7368 -40.32109,35.7769 -27.54756,32.0671 -57.51296,63.5989 -75.67305,102.2148 -8.88107,25.1775 -5.20973,54.9605 12.44083,75.5606 16.15972,21.1782 42.25969,36.332 69.60312,32.0216 34.30193,0.2254 63.40695,-27.239 73.77076,-58.4195 5.74586,-54.2777 -11.28558,-107.4828 -24.31749,-159.5343 -4.15313,-8.7671 -3.33349,-22.9482 -13.26158,-27.496 -0.73449,-0.1611 -1.49384,-0.1925 -2.2415,-0.1241 z"
     style="fill:#000080;stroke-width:1.92559" />
  <path
     transform="scale(0.75000002)"
     id="path58"
     d="m 891.77741,1197.3663 c -15.30507,5.2757 -24.24217,21.0168 -35.78334,31.5305 -27.86213,32.525 -58.93866,63.8282 -77.6305,102.851 -18.73054,40.4119 5.30499,92.1222 46.84618,106.5886 18.25266,6.8 39.59329,6.0529 57.75207,-0.6514 34.18697,-13.0968 57.21116,-50.1429 51.56214,-86.6816 -5.73352,-48.2081 -16.93452,-95.8346 -31.32842,-142.1475 -2.08972,-4.8153 -4.98701,-12.0212 -11.41813,-11.4896 z"
     style="fill:#000080;stroke-width:1.92559" />
  <path
     transform="scale(0.75000002)"
     id="path60"
     d="m 1193.6548,1073.8315 c -16.7565,5.9477 -26.6782,22.9727 -39.2076,34.7396 -27.9329,32.1894 -56.8957,64.6285 -76.2375,102.9099 -11.3448,32.6073 -0.3149,72.2523 28.4814,92.2928 16.2746,13.8207 38.015,18.0572 58.7869,15.2505 33.498,-3.167 63.3621,-31.2827 69.4302,-64.259 3.9912,-49.22 -11.8544,-97.2765 -23.0124,-144.6116 -4.8286,-11.6971 -4.1749,-28.5926 -15.804,-36.0627 -0.7869,-0.2389 -1.6178,-0.3194 -2.437,-0.2595 z"
     style="fill:#000080;stroke-width:1.92559" />
  <path
     transform="scale(0.75000002)"
     id="path62"
     d="m 1072.8316,1320.4572 c -16.2964,5.8517 -26.0855,22.384 -38.4867,33.6684 -29.2149,32.9397 -59.69082,66.3474 -78.43261,106.6062 -12.22521,38.5799 8.76129,84.3131 46.63911,99.2957 17.7796,8.9684 39.2723,7.2514 57.9482,2.3205 35.9534,-12.1146 60.0859,-50.6208 54.5655,-88.2774 -6.65,-49.0473 -16.9115,-97.9077 -32.8237,-144.8166 -1.5122,-4.1322 -4.1087,-9.5007 -9.4098,-8.7968 z"
     style="fill:#000080;stroke-width:1.92559" />
  <path
     transform="scale(0.75000002)"
     id="path64"
     d="m 1253.852,1443.5069 c -17.2747,5.6963 -27.6684,22.9945 -40.2413,35.1686 -28.1095,33.219 -60.6413,65.0128 -77.0579,106.0913 -16.8207,47.1808 22.2879,104.0932 72.5593,104.843 26.2567,1.5162 53.1082,-9.3851 68.5891,-31.1874 13.0247,-13.7997 18.388,-32.7202 16.3731,-51.3947 0.198,-49.117 -15.0564,-96.5237 -27.6646,-143.4902 -3.304,-6.0729 -3.6202,-19.4346 -12.5577,-20.0306 z"
     style="fill:#000080;stroke-width:1.92559" />
  <path
     transform="scale(0.75000002)"
     id="path66"
     d="m 1494.889,951.10154 c -16.165,4.8714 -25.4766,21.39127 -37.3534,32.3702 -30.1234,34.79746 -61.8752,69.62626 -81.6871,111.60896 0.96,23.1142 -2.0544,49.4149 14.5435,68.2117 16.3273,20.9465 42.2208,36.2214 69.5393,32.6297 23.0366,0.8666 44.4441,-10.8497 58.5274,-28.662 21.122,-21.2202 21.391,-53.2783 16.536,-80.8651 -7.3715,-43.0964 -15.725,-86.50088 -30.6395,-127.67384 -1.7788,-3.66849 -4.8695,-7.91682 -9.4662,-7.61962 z"
     style="fill:#000080;stroke-width:1.92559" />
  <path
     transform="scale(0.75000002)"
     id="path68"
     d="m 1373.7951,1197.4377 c -14.7636,3.978 -23.0527,19.1105 -33.8609,28.8872 -28.7502,33.3414 -60.2245,65.7311 -80.0839,105.452 -20.358,44.6708 11.9466,102.4637 60.0922,110.2707 29.813,4.8389 62.5708,-5.9471 80.1752,-31.4149 12.4188,-13.5927 17.1175,-32.0131 15.2509,-50.0765 -0.8661,-50.173 -15.3157,-98.934 -28.6849,-146.9127 -2.4986,-5.8693 -4.7713,-16.4252 -12.8886,-16.2058 z"
     style="fill:#000080;stroke-width:1.92559" />
</svg>
